<svg id="レイヤー_1" data-name="レイヤー 1" xmlns="http://www.w3.org/2000/svg" viewBox="0 0 766 58"><defs><style>.cls-1{fill:#fff;}</style></defs><path class="cls-1" d="M2.93,41.5a1.57,1.57,0,0,1-1.5-1,6.79,6.79,0,0,1-.54-2.59,13.22,13.22,0,0,1,.26-3.18q.57-3.27,1.18-6.55t1.15-6.54c.36-2.18.7-4.29,1-6.31s.58-3.94.79-5.74a7.62,7.62,0,0,0,.07-2.53,1.91,1.91,0,0,0-1-1.29,7.49,7.49,0,0,0-2.17-.72A10.84,10.84,0,0,1,.61,4.59.78.78,0,0,1,0,3.85c0-.31.21-.53.64-.66A5.41,5.41,0,0,1,2.3,3C3.4,3,4.64,3,6,3.13s2.77.14,4.17.14c.81,0,1.76,0,2.84-.06l3.16-.08,2.61,0A3.19,3.19,0,0,1,20,3.3c.34.14.49.32.45.55a1.27,1.27,0,0,1-.89.8,7.2,7.2,0,0,1-1.53.4,9.2,9.2,0,0,0-2.4.63,2.66,2.66,0,0,0-1.27,1.18,7.64,7.64,0,0,0-.67,2.27q-.9,5.1-2,10.3t-2,10.36c-.12.77-.06,1.17.2,1.21s.72-.31,1.4-1L27.11,13a24.67,24.67,0,0,0,2.13-2.67A4.06,4.06,0,0,0,30,8a2.58,2.58,0,0,0-.7-2,5.22,5.22,0,0,0-2.55-1,8.12,8.12,0,0,1-1.6-.49.83.83,0,0,1-.57-.77c0-.27.22-.47.67-.6A5.17,5.17,0,0,1,26.85,3c.77,0,1.66,0,2.68.09s2,.11,3.06.14,1.94.06,2.74.06,1.81,0,2.87-.08L41.36,3c1,0,2-.06,2.77-.06,1,0,1.54.27,1.54.81,0,.31-.23.55-.67.74A6.94,6.94,0,0,1,43.43,5,8.91,8.91,0,0,0,39.8,6.14a4.19,4.19,0,0,0-1.4,2.7l-3.83,21c-.17.76-.12,1.14.16,1.12s.75-.39,1.43-1.12L50.7,13.2a17.44,17.44,0,0,0,3.16-4.47A2.81,2.81,0,0,0,54,6.2a2.75,2.75,0,0,0-1.82-1.15,3.82,3.82,0,0,1-1.24-.43.63.63,0,0,1-.29-.77c0-.27.28-.46.7-.58a5.35,5.35,0,0,1,1.34-.17l2.27,0,2.55.06c.87,0,1.71,0,2.52,0A26.55,26.55,0,0,0,63.33,3a27,27,0,0,1,3.13-.17,3.13,3.13,0,0,1,1.27.23q.51.23.51.63c0,.35-.26.62-.79.83A6.89,6.89,0,0,1,65.82,5,13,13,0,0,0,61.9,6.52a16.23,16.23,0,0,0-3.73,3L35.33,33.69c-1.1,1.23-2.2,2.44-3.28,3.62s-2,2.16-2.84,2.93a3.4,3.4,0,0,1-2,1.15,1.77,1.77,0,0,1-1.43-.58,3,3,0,0,1-.61-1.55,9.6,9.6,0,0,1,0-2.26c.11-.87.27-1.79.48-2.79.39-2.14.82-4.43,1.31-6.86s1-4.84,1.47-7.23.9-4.62,1.24-6.69L11,33.69c-.68.73-1.38,1.54-2.1,2.42s-1.44,1.74-2.14,2.58a14,14,0,0,1-2,2A3.07,3.07,0,0,1,2.93,41.5Z"/><path class="cls-1" d="M65.69,41.5a2.4,2.4,0,0,1-1.11-.31,3.61,3.61,0,0,1-1.09-.87A1.73,1.73,0,0,1,63,39.15a7.73,7.73,0,0,1,.23-1.84c.14-.61.35-1.34.6-2.18L72.58,9.3a18.23,18.23,0,0,0,.54-1.9,7.45,7.45,0,0,0,.23-1.6,1.16,1.16,0,0,0-.8-1.06,16.34,16.34,0,0,0-1.63-.66,6.21,6.21,0,0,1-.83-.29c-.25-.12-.38-.27-.38-.46A.72.72,0,0,1,70,2.76a3.64,3.64,0,0,1,1.28-.52c.43-.15,1.07-.35,2-.6S75,1.14,76,.89,77.83.43,78.64.26A10,10,0,0,1,80.3,0a5.77,5.77,0,0,1,.92.09.55.55,0,0,1,.54.6,3.25,3.25,0,0,1-.16,1.09c-.1.31-.22.63-.35,1L72.45,28c-.08.27,0,.4.1.4a.68.68,0,0,0,.48-.28,48.33,48.33,0,0,1,5.26-6.2,29.68,29.68,0,0,1,5.48-4.39,9.87,9.87,0,0,1,5-1.64,4.71,4.71,0,0,1,3.73,1.41,4.86,4.86,0,0,1,1.24,3.35,19.17,19.17,0,0,1-1,5.95,25.57,25.57,0,0,1-2.59,5.59,25.86,25.86,0,0,1-3.6,4.65,7.38,7.38,0,0,1-1.47,1.21c-.72.5-1.55,1-2.48,1.52A23.93,23.93,0,0,1,80,40.87a6,6,0,0,1-2.11.52A3.16,3.16,0,0,1,76.44,41a6,6,0,0,1-1.37-1,1.55,1.55,0,0,1-.58-1,2.09,2.09,0,0,1,.32-.86,4.77,4.77,0,0,1,.8-1.06,1.34,1.34,0,0,1,.92-.49,1.65,1.65,0,0,1,1,.28l.83.64.9.66a1.71,1.71,0,0,0,1,.31c.55,0,1.12-.39,1.72-1.17a15.62,15.62,0,0,0,1.72-3,32.69,32.69,0,0,0,1.47-4.07c.42-1.48.77-2.93,1.05-4.37a20,20,0,0,0,.41-3.81,2.69,2.69,0,0,0-.47-1.7,1.73,1.73,0,0,0-1.44-.6,4.11,4.11,0,0,0-2.45,1.21,22.85,22.85,0,0,0-3.06,3.21c-1.09,1.34-2.2,2.8-3.32,4.36s-2.22,3.15-3.29,4.74-2,3-2.93,4.33a17.89,17.89,0,0,1-2.23,3.05A2.66,2.66,0,0,1,65.69,41.5Z"/><path class="cls-1" d="M97.61,41.39A3.88,3.88,0,0,1,95.92,41a4.74,4.74,0,0,1-1.43-1.07,1.86,1.86,0,0,1-.58-1.26,8.79,8.79,0,0,1,1.28-4.19,32.21,32.21,0,0,1,3.92-5.31q2.65-3,6.86-6.92a52.14,52.14,0,0,1,5.32-4.27,7.43,7.43,0,0,1,3.48-1.58,5.1,5.1,0,0,1,3.12,1.32l.58.57h.06a.31.31,0,0,0,.19-.05,1.33,1.33,0,0,0,.2-.29c.42-.69.7-1.14.82-1.35a1.11,1.11,0,0,0,.2-.43,1.25,1.25,0,0,1,1.27-.69,5.19,5.19,0,0,1,1.82.35,5.39,5.39,0,0,1,1.53.83c.4.32.61.62.61.89a2.59,2.59,0,0,1-.2.86l-6.63,16.07c-.42,1.11-.19,1.67.7,1.67a5.12,5.12,0,0,0,2.46-1,16.75,16.75,0,0,0,3-2.44l.26-.14a.28.28,0,0,1,.13,0,.69.69,0,0,1,.51.2.88.88,0,0,1,.19.6,3.79,3.79,0,0,1-1.12,2,19.3,19.3,0,0,1-2.71,2.59,18.89,18.89,0,0,1-4.21,2.58,9.38,9.38,0,0,1-3.63.92,4.08,4.08,0,0,1-1.73-.43,4.54,4.54,0,0,1-1.46-1.09,2,2,0,0,1-.58-1.3,3.25,3.25,0,0,1,.39-1.32,4.65,4.65,0,0,1,.22-.6c.15-.36.35-.82.61-1.38s.53-1.11.82-1.66.58-1.08.83-1.58c.13-.27.14-.47,0-.6s-.25-.13-.42,0a72.28,72.28,0,0,1-6.15,5.74,26,26,0,0,1-4.82,3.18A9.32,9.32,0,0,1,97.61,41.39Zm5.68-5.28c.81,0,2-.64,3.7-1.9a41.51,41.51,0,0,0,5.29-4.94A35.88,35.88,0,0,0,115.73,25,6.09,6.09,0,0,0,117,22.27c0-.3-.38-.74-1.15-1.32a4.08,4.08,0,0,0-1.11-.63,3.09,3.09,0,0,0-1-.23,6.51,6.51,0,0,0-2.84,1,21.88,21.88,0,0,0-3.41,2.41,21.41,21.41,0,0,0-2.94,3.31,22.3,22.3,0,0,0-2.29,3.87,8.3,8.3,0,0,0-.89,3.39,2,2,0,0,0,.51,1.46A1.83,1.83,0,0,0,103.29,36.11Z"/><path class="cls-1" d="M133.14,41.39a3.14,3.14,0,0,1-1.66-.52,4.68,4.68,0,0,1-1.34-1.23,2.27,2.27,0,0,1-.51-1.24,3.42,3.42,0,0,1,.19-1.17c.13-.37.32-.86.58-1.47l6-14.81c.21-.5.22-.83,0-1a.93.93,0,0,0-.67-.26l-2.93-.12c-.64,0-1-.17-1.18-.4a1.17,1.17,0,0,1-.22-.63c0-.08.12-.26.38-.54a4,4,0,0,1,1-.81,2.58,2.58,0,0,1,1.34-.37H137a1.87,1.87,0,0,0,1.18-.26,4.33,4.33,0,0,0,.74-1.06l1.72-3.1a6.85,6.85,0,0,1,1.24-1.49,10,10,0,0,1,1.69-1.27,3.26,3.26,0,0,1,1.53-.51,1,1,0,0,1,1.09.8,2.12,2.12,0,0,1-.07,1.55l-1.53,4.25c-.12.46-.1.75.07.89a1.37,1.37,0,0,0,.83.2c.68,0,1.39,0,2.13.11l2.14.23a3.35,3.35,0,0,1,1.53.43.93.93,0,0,1,.26.66c0,.08-.11.24-.32.49a1.73,1.73,0,0,1-1.21.43c-.69,0-1.37.09-2,.15s-1.44.1-2.29.14a5,5,0,0,0-1.63.29,1.49,1.49,0,0,0-.8.8l-5,12.57a5,5,0,0,0-.39,1.61.84.84,0,0,0,.32.77,1.38,1.38,0,0,0,.77.2,3.91,3.91,0,0,0,2-.71c.76-.48,1.53-1,2.29-1.61A20.38,20.38,0,0,0,145,31.8a1.51,1.51,0,0,1,.64-.32c.17,0,.28,0,.32.15a.72.72,0,0,1,.19.54,1.79,1.79,0,0,1-.26.84,7.88,7.88,0,0,1-1.5,2,27,27,0,0,1-2.48,2.23,25,25,0,0,1-3,2.07,20.42,20.42,0,0,1-3.06,1.49A7.74,7.74,0,0,1,133.14,41.39Z"/><path class="cls-1" d="M174,41.39a3.49,3.49,0,0,1-2.36-.89,2.49,2.49,0,0,1-1-1.81,3.32,3.32,0,0,1,0-.55,1.64,1.64,0,0,1,.22-.6c1.4-2.68,2.66-5.28,3.76-7.81s2.15-4.88,3.13-7.06c.13-.3,0-.46-.26-.46a3.8,3.8,0,0,0-1.21.29,13.61,13.61,0,0,0-1.59.72c-.56.29-1.09.58-1.6.89a1,1,0,0,1-1,.14.65.65,0,0,1-.35-.6c0-.23.25-.59.74-1.09a17.56,17.56,0,0,1,1.91-1.64c.79-.59,1.67-1.19,2.65-1.81S179,17.94,180,17.42a22.4,22.4,0,0,1,2.68-1.23,2.1,2.1,0,0,1,1.66.11,3.74,3.74,0,0,1,1.34,1.06,1.09,1.09,0,0,1,.25,1.18l-7.33,16.13a1.59,1.59,0,0,0-.26.6,3.05,3.05,0,0,0-.06.55.41.41,0,0,0,.22.4.9.9,0,0,0,.42.12,4,4,0,0,0,1.88-.72c.78-.48,1.61-1,2.49-1.7s1.64-1.28,2.32-1.89c.09-.11.17-.17.26-.17a.59.59,0,0,1,.44.2.62.62,0,0,1,.2.43,4.17,4.17,0,0,1-1.31,2.5,21.58,21.58,0,0,1-3.29,2.92,23.83,23.83,0,0,1-4.11,2.47A9.11,9.11,0,0,1,174,41.39Zm12.11-29.91a2.81,2.81,0,0,1-2.07-.89,2.79,2.79,0,0,1-.86-2,4.27,4.27,0,0,1,1.37-3.13,4.66,4.66,0,0,1,3.41-1.35,2.5,2.5,0,0,1,2.11,1,3.47,3.47,0,0,1,.76,2.15,3.89,3.89,0,0,1-1.37,2.9A4.7,4.7,0,0,1,186.07,11.48Z"/><path class="cls-1" d="M193.91,41.39a6.52,6.52,0,0,1-3.73-1,2.93,2.93,0,0,1-1.43-2.52,3.63,3.63,0,0,1,.7-2.33,2.13,2.13,0,0,1,1.72-.89,1.64,1.64,0,0,1,1,.49l1.34,1.12c.55.46,1.18.94,1.88,1.43a3.92,3.92,0,0,0,2.33.75,2.36,2.36,0,0,0,1.91-.75,2.88,2.88,0,0,0,.7-1.78,4.64,4.64,0,0,0-.73-2.41c-.53-1-1.12-1.89-1.75-2.81a17.1,17.1,0,0,1-1.82-3,6.67,6.67,0,0,1-.74-2.9,5.31,5.31,0,0,1,1.09-3.09,12.84,12.84,0,0,1,2.77-2.85,18.79,18.79,0,0,1,3.32-2.06,6.59,6.59,0,0,1,2.71-.78,6.27,6.27,0,0,1,2.62.58,7.87,7.87,0,0,1,2.1,1.32,2,2,0,0,1,.83,1.32,2.35,2.35,0,0,1-.58,1.29,6.67,6.67,0,0,1-1.3,1.35,2.3,2.3,0,0,1-1.37.57,1.69,1.69,0,0,1-1.12-.46,9.09,9.09,0,0,1-1-1A4.84,4.84,0,0,0,204.15,20a3,3,0,0,0-1.63-.46,2,2,0,0,0-1.53.63,2.15,2.15,0,0,0-.57,1.49,2.87,2.87,0,0,0,.48,1.29A20.74,20.74,0,0,0,202,24.71c.45.63.88,1.24,1.31,1.81a17.35,17.35,0,0,1,2.2,3.39,6.83,6.83,0,0,1,.73,2.92,4.92,4.92,0,0,1-1.08,2.87,12.31,12.31,0,0,1-2.9,2.79,16.83,16.83,0,0,1-4,2.09A12.45,12.45,0,0,1,193.91,41.39Z"/><path class="cls-1" d="M248.89,41c-1.11,0-2.45,0-4-.14l-4.62-.26c-1.51-.07-2.78-.11-3.8-.11q-1.22,0-2.58.06c-.92,0-1.86.09-2.84.17s-2,.11-2.93.11a1.65,1.65,0,0,1-.9-.2.49.49,0,0,1-.25-.54c.13-.65.76-1,1.91-1.15a11.48,11.48,0,0,0,2.9-.66A3.83,3.83,0,0,0,233.42,37,7.47,7.47,0,0,0,234.47,35l9.25-26.23a2.27,2.27,0,0,0,0-2,3.13,3.13,0,0,0-1.53-1A19.9,19.9,0,0,0,239.58,5a1.49,1.49,0,0,1-1-.43.82.82,0,0,1-.13-.77c0-.23.25-.41.61-.55a3.09,3.09,0,0,1,1.05-.2c1.53,0,3.11,0,4.75.12s3.1.11,4.37.11c.85,0,1.66,0,2.42-.06l2.52-.11c.92,0,2-.06,3.29-.06a24,24,0,0,1,10.23,2,15.29,15.29,0,0,1,6.54,5.51,14.69,14.69,0,0,1,2.3,8.18,18.18,18.18,0,0,1-2.07,8.44,22.79,22.79,0,0,1-5.84,7.12,29.25,29.25,0,0,1-8.8,4.91A32.41,32.41,0,0,1,248.89,41ZM249,39a15.42,15.42,0,0,0,7.34-1.83,20.67,20.67,0,0,0,6.06-4.91,24.49,24.49,0,0,0,4.11-6.86,20.9,20.9,0,0,0,1.5-7.75,16.49,16.49,0,0,0-1.34-7.23,8.7,8.7,0,0,0-3.79-4,12.25,12.25,0,0,0-5.77-1.29,11.89,11.89,0,0,0-2.91.26,2.64,2.64,0,0,0-1.46.86,5.06,5.06,0,0,0-.8,1.52l-8.67,25.43a4.66,4.66,0,0,0-.07,3.47,3.72,3.72,0,0,0,2.23,1.84A11.15,11.15,0,0,0,249,39Z"/><path class="cls-1" d="M278.93,41.39a3.85,3.85,0,0,1-1.69-.43,4.79,4.79,0,0,1-1.44-1.07,1.89,1.89,0,0,1-.57-1.26,8.77,8.77,0,0,1,1.27-4.19,31.77,31.77,0,0,1,3.93-5.31q2.64-3,6.85-6.92a52.13,52.13,0,0,1,5.33-4.27,7.45,7.45,0,0,1,3.47-1.58,5.15,5.15,0,0,1,3.13,1.32l.57.57h.07a.33.33,0,0,0,.19-.05,2,2,0,0,0,.19-.29l.83-1.35a1,1,0,0,0,.19-.43,1.27,1.27,0,0,1,1.28-.69,5.14,5.14,0,0,1,1.81.35,5.45,5.45,0,0,1,1.54.83c.4.32.6.62.6.89a2.54,2.54,0,0,1-.19.86l-6.63,16.07c-.43,1.11-.2,1.67.7,1.67a5.13,5.13,0,0,0,2.45-1,17.17,17.17,0,0,0,3-2.44l.25-.14.13,0a.69.69,0,0,1,.51.2.83.83,0,0,1,.19.6,3.82,3.82,0,0,1-1.11,2A19.87,19.87,0,0,1,303,37.89a19.35,19.35,0,0,1-4.21,2.58,9.47,9.47,0,0,1-3.64.92,4,4,0,0,1-1.72-.43A4.59,4.59,0,0,1,292,39.87a2,2,0,0,1-.57-1.3,3.37,3.37,0,0,1,.38-1.32,6.09,6.09,0,0,1,.23-.6c.14-.36.35-.82.6-1.38s.53-1.11.83-1.66.57-1.08.83-1.58q.19-.41,0-.6c-.11-.14-.24-.13-.41,0a70.76,70.76,0,0,1-6.16,5.74A25.92,25.92,0,0,1,283,40.38,9.39,9.39,0,0,1,278.93,41.39Zm5.67-5.28c.81,0,2-.64,3.7-1.9a41.53,41.53,0,0,0,5.3-4.94A36.72,36.72,0,0,0,297,25a6.14,6.14,0,0,0,1.28-2.76c0-.3-.39-.74-1.15-1.32a4,4,0,0,0-1.12-.63,3,3,0,0,0-1-.23,6.48,6.48,0,0,0-2.83,1,22,22,0,0,0-3.42,2.41,20.87,20.87,0,0,0-2.93,3.31,22.37,22.37,0,0,0-2.3,3.87,8.46,8.46,0,0,0-.89,3.39,2,2,0,0,0,.51,1.46A1.84,1.84,0,0,0,284.6,36.11Z"/><path class="cls-1" d="M313.69,41.44a2.44,2.44,0,0,1-1.15-.34,5.62,5.62,0,0,1-1.21-.89,3.06,3.06,0,0,1-.83-1.29,1.82,1.82,0,0,1,.13-1.49l6.76-15c.51-1.23.38-1.84-.39-1.84a12,12,0,0,0-1.3.09,5.06,5.06,0,0,0-1.76.57A6.66,6.66,0,0,0,312,22.79a.82.82,0,0,1-.7.26c-.3,0-.47-.2-.51-.55a2.19,2.19,0,0,1,.35-1,10,10,0,0,1,.86-1.29c.34-.44.61-.78.83-1A10.62,10.62,0,0,1,316.21,17a12.79,12.79,0,0,1,4.75-.92,3.16,3.16,0,0,1,2,.61,2.69,2.69,0,0,1,1,1.55,3.09,3.09,0,0,1-.23,2l-3.63,8.26c-.13.27,0,.42.29.46a.61.61,0,0,0,.67-.29,57.75,57.75,0,0,1,4.75-6.54,23.22,23.22,0,0,1,4.84-4.42,8.83,8.83,0,0,1,4.82-1.61,4.25,4.25,0,0,1,3.22,1.12A4.6,4.6,0,0,1,339.93,20a6.11,6.11,0,0,1-.73,3.42L334,34.33c-.55,1.26-.44,1.89.32,1.89a3.25,3.25,0,0,0,1.34-.4,19.08,19.08,0,0,0,1.76-1c.61-.38,1.15-.74,1.62-1.09a12.82,12.82,0,0,0,1-.8,2.15,2.15,0,0,1,.45-.4.82.82,0,0,1,.44-.18.58.58,0,0,1,.39.18.56.56,0,0,1,.19.46,2.26,2.26,0,0,1-.64,1.6,23.72,23.72,0,0,1-4,3.48,21.71,21.71,0,0,1-4.52,2.41,12.67,12.67,0,0,1-4.5.89,3,3,0,0,1-1.53-.46,3.09,3.09,0,0,1-1.12-1.09,1.52,1.52,0,0,1,0-1.38q2-4.08,4.08-8.09t3.89-8.16a4.14,4.14,0,0,0,.42-2.15.84.84,0,0,0-.93-.66,2.59,2.59,0,0,0-1.78.72,18.6,18.6,0,0,0-2.08,2c-.74.84-1.54,1.76-2.39,2.75-.42.5-1,1.27-1.72,2.3s-1.54,2.19-2.45,3.47-1.82,2.59-2.72,3.93-1.7,2.59-2.42,3.73a14.59,14.59,0,0,1-1.72,2.24A2.38,2.38,0,0,1,313.69,41.44Z"/><path class="cls-1" d="M352.21,41.39a7.71,7.71,0,0,1-6.47-3.53,6.55,6.55,0,0,1-1.06-3.65,18.29,18.29,0,0,1,.9-5.16,20.41,20.41,0,0,1,2.32-4.91A19.4,19.4,0,0,1,351.48,20a16.69,16.69,0,0,1,4.68-2.87,15,15,0,0,1,5.62-1.06,6.62,6.62,0,0,1,3.54.83,2.45,2.45,0,0,1,1.3,2.1,3.46,3.46,0,0,1-.76,2.07,2.07,2.07,0,0,1-1.6,1,1.23,1.23,0,0,1-.89-.37,8.75,8.75,0,0,1-1-1.24,6.07,6.07,0,0,0-1.24-1.58,2.38,2.38,0,0,0-1.63-.66,4.24,4.24,0,0,0-2.87,1.3,14.37,14.37,0,0,0-2.58,3.32,21,21,0,0,0-1.91,4.48,16.26,16.26,0,0,0-.74,4.68,3.83,3.83,0,0,0,1,3.07,4.27,4.27,0,0,0,3,1,6.9,6.9,0,0,0,3.19-.72,9.86,9.86,0,0,0,2.55-1.87,2.65,2.65,0,0,1,.61-.51,1.11,1.11,0,0,1,.6-.18c.39,0,.58.21.58.64a4.54,4.54,0,0,1-.93,2.46,11.48,11.48,0,0,1-2.52,2.64,13.77,13.77,0,0,1-3.5,2A10.09,10.09,0,0,1,352.21,41.39Z"/><path class="cls-1" d="M374.62,41.44a7.08,7.08,0,0,1-3.35-.94A9.13,9.13,0,0,1,368.34,38a5.18,5.18,0,0,1-1.18-3.24,17.13,17.13,0,0,1,1.4-6.66,21.43,21.43,0,0,1,3.83-6,20.39,20.39,0,0,1,5.48-4.36,13.11,13.11,0,0,1,6.32-1.67,8.09,8.09,0,0,1,4.72,1.12A3.36,3.36,0,0,1,390.44,20a4.5,4.5,0,0,1-1.37,3.27,11.72,11.72,0,0,1-3.57,2.35,28.14,28.14,0,0,1-4.85,1.61q-2.65.63-5.07,1.09a2,2,0,0,0-.48.14.76.76,0,0,0-.29.38,14,14,0,0,0-.44,1.55,9.84,9.84,0,0,0-.26,1.55,4.85,4.85,0,0,0,1.05,3.35,4,4,0,0,0,3.29,1.35,6.79,6.79,0,0,0,3.51-.89,13.82,13.82,0,0,0,2.8-2.15,2,2,0,0,1,1.15-.63.5.5,0,0,1,.57.57,2.64,2.64,0,0,1,0,.38.47.47,0,0,1-.16.31,18.1,18.1,0,0,1-2.93,3.68,13.16,13.16,0,0,1-3.89,2.61A12,12,0,0,1,374.62,41.44ZM376,26.52c.73-.15,1.6-.37,2.62-.66a14.12,14.12,0,0,0,3-1.23,8.46,8.46,0,0,0,2.39-2,4.79,4.79,0,0,0,1-2.85,1.73,1.73,0,0,0-.39-1.26,1.58,1.58,0,0,0-1.34-.57,4.62,4.62,0,0,0-2.48.8,11.62,11.62,0,0,0-2.39,2,12.94,12.94,0,0,0-1.89,2.67,8.43,8.43,0,0,0-.95,2.7C375.54,26.44,375.68,26.56,376,26.52Z"/><path class="cls-1" d="M429.15,41c-1.11,0-2.44,0-4-.14l-4.62-.26c-1.51-.07-2.78-.11-3.8-.11-.8,0-1.67,0-2.58.06s-1.86.09-2.84.17-2,.11-2.93.11a1.61,1.61,0,0,1-.89-.2.48.48,0,0,1-.26-.54c.13-.65.77-1,1.91-1.15a11.46,11.46,0,0,0,2.91-.66A3.8,3.8,0,0,0,413.68,37,7.47,7.47,0,0,0,414.74,35L424,8.73a2.3,2.3,0,0,0,0-2,3.13,3.13,0,0,0-1.53-1A19.9,19.9,0,0,0,419.84,5a1.49,1.49,0,0,1-1-.43.82.82,0,0,1-.13-.77c.05-.23.25-.41.61-.55a3.09,3.09,0,0,1,1.05-.2c1.53,0,3.12,0,4.76.12s3.09.11,4.36.11q1.28,0,2.43-.06l2.52-.11c.91,0,2-.06,3.28-.06A24.07,24.07,0,0,1,448,5a15.35,15.35,0,0,1,6.54,5.51,14.68,14.68,0,0,1,2.29,8.18,18.18,18.18,0,0,1-2.07,8.44,22.65,22.65,0,0,1-5.84,7.12,29.25,29.25,0,0,1-8.8,4.91A32.37,32.37,0,0,1,429.15,41Zm.13-1.95a15.38,15.38,0,0,0,7.33-1.83,20.67,20.67,0,0,0,6.06-4.91,24.29,24.29,0,0,0,4.12-6.86,20.9,20.9,0,0,0,1.5-7.75A16.63,16.63,0,0,0,447,10.45a8.72,8.72,0,0,0-3.8-4,12.25,12.25,0,0,0-5.77-1.29,11.8,11.8,0,0,0-2.9.26,2.67,2.67,0,0,0-1.47.86,5.06,5.06,0,0,0-.8,1.52l-8.67,25.43a4.66,4.66,0,0,0-.07,3.47,3.71,3.71,0,0,0,2.24,1.84A11.06,11.06,0,0,0,429.28,39Z"/><path class="cls-1" d="M462,41.44a3.93,3.93,0,0,1-1.25-.25,3.24,3.24,0,0,1-1.24-.78,1.6,1.6,0,0,1-.51-1.15,3.51,3.51,0,0,1,.22-1.15c.15-.42.33-.93.54-1.55L466,21.93a1.53,1.53,0,0,0,.2-1.09c-.09-.31-.34-.46-.77-.46a4.72,4.72,0,0,0-2,.37,12.22,12.22,0,0,0-1.56.89,1,1,0,0,1-.77.17.56.56,0,0,1-.51-.51,2.62,2.62,0,0,1,.9-1.93,10.14,10.14,0,0,1,2.36-1.81,15.31,15.31,0,0,1,2.64-1.06,10.15,10.15,0,0,1,2.84-.43,3.08,3.08,0,0,1,2.49.86,3,3,0,0,1,.54,2.3,11.93,11.93,0,0,1-1,3.33l-2.61,5.62c-.13.27-.08.43.16.49s.43-.05.6-.31a73.29,73.29,0,0,1,4.63-6.46,23,23,0,0,1,4.49-4.36A7.44,7.44,0,0,1,482.92,16a3.69,3.69,0,0,1,2.8,1,3.34,3.34,0,0,1,1,2.38A5.86,5.86,0,0,1,486,22a6.55,6.55,0,0,1-1.66,2.13,3.14,3.14,0,0,1-1.94.8,1.09,1.09,0,0,1-1-.57,4.67,4.67,0,0,1-.54-1.67,5.56,5.56,0,0,0-.45-1.63,1.11,1.11,0,0,0-1.09-.66,3.14,3.14,0,0,0-2.07,1.11,29.08,29.08,0,0,0-2.65,3.25L473.13,27,471,30.19c-.79,1.15-1.56,2.31-2.33,3.48s-1.42,2.19-2,3.07a23.66,23.66,0,0,1-2.48,3.44A3.15,3.15,0,0,1,462,41.44Z"/><path class="cls-1" d="M485.08,41.39A3.81,3.81,0,0,1,483.4,41,4.67,4.67,0,0,1,482,39.89a1.89,1.89,0,0,1-.57-1.26,8.77,8.77,0,0,1,1.27-4.19,32.21,32.21,0,0,1,3.92-5.31q2.66-3,6.86-6.92a51.06,51.06,0,0,1,5.33-4.27,7.45,7.45,0,0,1,3.47-1.58,5.15,5.15,0,0,1,3.13,1.32l.57.57H506a.37.37,0,0,0,.2-.05,2,2,0,0,0,.19-.29l.83-1.35a1.21,1.21,0,0,0,.19-.43,1.26,1.26,0,0,1,1.27-.69,5.19,5.19,0,0,1,1.82.35,5.25,5.25,0,0,1,1.53.83c.41.32.61.62.61.89a2.81,2.81,0,0,1-.19.86l-6.64,16.07c-.42,1.11-.19,1.67.71,1.67a5.13,5.13,0,0,0,2.45-1,17.17,17.17,0,0,0,3-2.44l.25-.14a.31.31,0,0,1,.13,0,.69.69,0,0,1,.51.2.83.83,0,0,1,.19.6,3.79,3.79,0,0,1-1.12,2A20.43,20.43,0,0,1,505,40.47a9.38,9.38,0,0,1-3.63.92,4,4,0,0,1-1.72-.43,4.48,4.48,0,0,1-1.47-1.09,2,2,0,0,1-.57-1.3,3.2,3.2,0,0,1,.38-1.32,4.65,4.65,0,0,1,.22-.6c.15-.36.35-.82.61-1.38s.53-1.11.83-1.66l.83-1.58q.18-.41,0-.6t-.42,0a69.39,69.39,0,0,1-6.15,5.74,25.63,25.63,0,0,1-4.82,3.18A9.32,9.32,0,0,1,485.08,41.39Zm5.68-5.28c.81,0,2-.64,3.7-1.9a41.51,41.51,0,0,0,5.29-4.94A35.88,35.88,0,0,0,503.2,25a6.09,6.09,0,0,0,1.27-2.76q0-.45-1.14-1.32a4.13,4.13,0,0,0-1.12-.63,3,3,0,0,0-1-.23,6.51,6.51,0,0,0-2.84,1A21.88,21.88,0,0,0,495,23.53,20.87,20.87,0,0,0,492,26.84a22.37,22.37,0,0,0-2.3,3.87,8.46,8.46,0,0,0-.89,3.39,2,2,0,0,0,.51,1.46A1.84,1.84,0,0,0,490.76,36.11Z"/><path class="cls-1" d="M519,41.44a2.57,2.57,0,0,1-1.12-.34,3.32,3.32,0,0,1-1.14-1,2.22,2.22,0,0,1-.48-1.37,3.39,3.39,0,0,1,.22-1c.15-.44.35-1,.61-1.58l6.44-14.29a1.07,1.07,0,0,0,.06-1.06,1,1,0,0,0-.95-.43,7.53,7.53,0,0,0-2,.37,6.87,6.87,0,0,0-2.81,2,.81.81,0,0,1-.7.26c-.3,0-.47-.2-.51-.55a2.46,2.46,0,0,1,.32-1,8,8,0,0,1,.83-1.29,8.36,8.36,0,0,1,.89-1A16.78,16.78,0,0,1,521.79,17a10,10,0,0,1,4.43-.95,4,4,0,0,1,2.2.58,2.51,2.51,0,0,1,1.18,1.6,3.65,3.65,0,0,1-.32,2.36l-3.63,7.86c-.13.27-.09.42.13.46a.47.47,0,0,0,.51-.29c1.65-2.41,3.27-4.56,4.84-6.45a24.81,24.81,0,0,1,4.69-4.48,8.29,8.29,0,0,1,4.82-1.64,4.23,4.23,0,0,1,3.12,1.09A4.21,4.21,0,0,1,544.94,20a7.19,7.19,0,0,1-.92,3.71l-1.34,3.21c-.17.27-.13.42.12.46a.63.63,0,0,0,.64-.29,49.64,49.64,0,0,1,4.44-5.68,21.34,21.34,0,0,1,4.62-3.9,9.09,9.09,0,0,1,4.78-1.44,3.82,3.82,0,0,1,3,1.09,4.09,4.09,0,0,1,.93,2.87,10.38,10.38,0,0,1-1,3.91l-4.79,10.39c-.55,1.26-.47,1.89.26,1.89a3,3,0,0,0,1.34-.46,18.51,18.51,0,0,0,1.72-1.09c.59-.42,1.14-.82,1.63-1.2s.83-.67,1-.87a3.41,3.41,0,0,0,.48-.37.65.65,0,0,1,.41-.2.53.53,0,0,1,.38.2.63.63,0,0,1,.2.43,4,4,0,0,1-.29,1.09,3.32,3.32,0,0,1-.86,1.09,26.39,26.39,0,0,1-5.81,4.62,12.9,12.9,0,0,1-6.69,1.93A3.09,3.09,0,0,1,548,41a3.15,3.15,0,0,1-1.21-1,1.24,1.24,0,0,1-.13-1.32l8.23-17.22a1.45,1.45,0,0,0,.1-1.55,1.23,1.23,0,0,0-1-.58,3.65,3.65,0,0,0-2.24,1,22.38,22.38,0,0,0-3.06,3.13c-.72.95-1.63,2.2-2.74,3.73s-2.25,3.17-3.44,4.91-2.34,3.45-3.45,5.13a12.4,12.4,0,0,1-1.85,2.24A9.27,9.27,0,0,1,535.25,41a3.58,3.58,0,0,1-1.57.48,1.94,1.94,0,0,1-1-.34,3.64,3.64,0,0,1-1-.89,1.69,1.69,0,0,1-.42-1,5.17,5.17,0,0,1,.26-1.15c.17-.58.4-1.25.7-2l6.57-14.75c.34-.73.37-1.26.09-1.58a1.17,1.17,0,0,0-.92-.49,3.93,3.93,0,0,0-2.36,1.09,24.88,24.88,0,0,0-3.45,3.5c-.59.69-1.25,1.55-2,2.58s-1.48,2.16-2.27,3.36-1.57,2.44-2.36,3.71S524,35.91,523.35,37A20.9,20.9,0,0,1,521,40.35,2.81,2.81,0,0,1,519,41.44Z"/><path class="cls-1" d="M567.81,41.39a3.82,3.82,0,0,1-1.69-.43,4.67,4.67,0,0,1-1.44-1.07,1.89,1.89,0,0,1-.57-1.26,8.77,8.77,0,0,1,1.27-4.19,32.21,32.21,0,0,1,3.92-5.31q2.66-3,6.86-6.92a51.06,51.06,0,0,1,5.33-4.27A7.45,7.45,0,0,1,585,16.36a5.15,5.15,0,0,1,3.13,1.32l.57.57h.07a.36.36,0,0,0,.19-.05,2,2,0,0,0,.19-.29l.83-1.35a1,1,0,0,0,.19-.43,1.26,1.26,0,0,1,1.27-.69,5.15,5.15,0,0,1,1.82.35,5.25,5.25,0,0,1,1.53.83c.41.32.61.62.61.89a2.81,2.81,0,0,1-.19.86l-6.64,16.07c-.42,1.11-.19,1.67.71,1.67a5.13,5.13,0,0,0,2.45-1,17.17,17.17,0,0,0,3-2.44l.25-.14a.31.31,0,0,1,.13,0,.69.69,0,0,1,.51.2.83.83,0,0,1,.19.6,3.79,3.79,0,0,1-1.12,2,20.24,20.24,0,0,1-6.91,5.17,9.47,9.47,0,0,1-3.64.92,4,4,0,0,1-1.72-.43,4.48,4.48,0,0,1-1.47-1.09,2,2,0,0,1-.57-1.3,3.2,3.2,0,0,1,.38-1.32,4.65,4.65,0,0,1,.22-.6c.15-.36.35-.82.61-1.38s.53-1.11.83-1.66l.83-1.58q.18-.41,0-.6t-.42,0a69.39,69.39,0,0,1-6.15,5.74,25.63,25.63,0,0,1-4.82,3.18A9.32,9.32,0,0,1,567.81,41.39Zm5.67-5.28c.81,0,2-.64,3.7-1.9a42.21,42.21,0,0,0,5.3-4.94A36.72,36.72,0,0,0,585.92,25a6.14,6.14,0,0,0,1.28-2.76c0-.3-.39-.74-1.15-1.32a4.13,4.13,0,0,0-1.12-.63,3,3,0,0,0-1-.23,6.55,6.55,0,0,0-2.84,1,21.88,21.88,0,0,0-3.41,2.41,20.87,20.87,0,0,0-2.93,3.31,22.37,22.37,0,0,0-2.3,3.87,8.46,8.46,0,0,0-.89,3.39,2,2,0,0,0,.51,1.46A1.84,1.84,0,0,0,573.48,36.11Z"/><path class="cls-1" d="M603.33,41.39a3.16,3.16,0,0,1-1.66-.52,4.68,4.68,0,0,1-1.34-1.23,2.27,2.27,0,0,1-.51-1.24,3.68,3.68,0,0,1,.19-1.17c.13-.37.32-.86.58-1.47l6-14.81c.22-.5.23-.83,0-1a1,1,0,0,0-.67-.26L603,19.57c-.64,0-1-.17-1.18-.4a1.17,1.17,0,0,1-.22-.63c0-.08.13-.26.38-.54a4.33,4.33,0,0,1,1-.81,2.61,2.61,0,0,1,1.34-.37h2.81a1.89,1.89,0,0,0,1.18-.26,4.67,4.67,0,0,0,.73-1.06l1.72-3.1A6.64,6.64,0,0,1,612,10.91a9.23,9.23,0,0,1,1.69-1.27,3.19,3.19,0,0,1,1.53-.51,1,1,0,0,1,1.08.8,2.17,2.17,0,0,1-.06,1.55l-1.53,4.25c-.13.46-.11.75.06.89a1.39,1.39,0,0,0,.83.2c.68,0,1.39,0,2.14.11l2.13.23a3.35,3.35,0,0,1,1.53.43.93.93,0,0,1,.26.66c0,.08-.11.24-.32.49a1.71,1.71,0,0,1-1.21.43q-1,.06-2,.15c-.68.05-1.45.1-2.3.14a4.89,4.89,0,0,0-1.62.29,1.46,1.46,0,0,0-.8.8l-5,12.57a4.92,4.92,0,0,0-.38,1.61.82.82,0,0,0,.32.77,1.33,1.33,0,0,0,.76.2,3.91,3.91,0,0,0,2-.71c.76-.48,1.53-1,2.29-1.61a19.09,19.09,0,0,0,1.85-1.58,1.51,1.51,0,0,1,.64-.32c.17,0,.28,0,.32.15a.68.68,0,0,1,.19.54,1.77,1.77,0,0,1-.25.84,8.39,8.39,0,0,1-1.5,2,25.89,25.89,0,0,1-2.49,2.23,25,25,0,0,1-3,2.07A20.42,20.42,0,0,1,606,40.81,7.74,7.74,0,0,1,603.33,41.39Z"/><path class="cls-1" d="M626.91,41.39a3.06,3.06,0,0,1-2-.84,4.83,4.83,0,0,1-1.4-2,2.57,2.57,0,0,1-.07-2l6.25-13a3.58,3.58,0,0,0,.45-1.43.45.45,0,0,0-.51-.52,3.2,3.2,0,0,0-1.28.49c-.59.32-1.23.72-1.91,1.18a15.08,15.08,0,0,0-1.66,1.26,1.52,1.52,0,0,1-1,.49c-.32,0-.48-.17-.48-.43a2,2,0,0,1,.26-.92,4.51,4.51,0,0,1,.76-1.09A22.58,22.58,0,0,1,628,19.11a18.52,18.52,0,0,1,4-2.29,9.75,9.75,0,0,1,3.61-.8,2.34,2.34,0,0,1,1.43.57A3.76,3.76,0,0,1,638.2,18a1.77,1.77,0,0,1,.06,1.52c-1,1.91-2.13,4.07-3.35,6.48s-2.54,5-4,7.81a3.49,3.49,0,0,0-.48,1.72c0,.5.24.75.67.75A3.51,3.51,0,0,0,633,35.13c.83-.77,1.78-1.74,2.84-2.93s2.15-2.41,3.25-3.67,2.11-2.4,3.13-3.65,1.93-2.41,2.74-3.5,1.42-2,1.85-2.61a14.72,14.72,0,0,1,1.56-1.95,2.18,2.18,0,0,1,1.56-.75,2.88,2.88,0,0,1,1.73.55,3.57,3.57,0,0,1,1.14,1.26,1.51,1.51,0,0,1,.07,1.41l-7,15.5a3.42,3.42,0,0,0-.26,1.14.4.4,0,0,0,.45.46,4.67,4.67,0,0,0,1.94-.74,27.83,27.83,0,0,0,2.71-1.78c.94-.69,1.7-1.28,2.3-1.78a.32.32,0,0,1,.25-.17.71.71,0,0,1,.55.23.74.74,0,0,1,.22.51,2.06,2.06,0,0,1-.61,1.24,12.44,12.44,0,0,1-1.59,1.52,22,22,0,0,1-2.14,1.52,20.94,20.94,0,0,1-2.23,1.23,7.83,7.83,0,0,1-2,.69,7,7,0,0,1-2.13.89,7.92,7.92,0,0,1-2.2.2,6.39,6.39,0,0,1-2-.4,1.24,1.24,0,0,1-.61-.78,1.49,1.49,0,0,1,0-1.17l1.44-2.79c.53-1,1-2,1.53-3s.93-2,1.31-2.9c.17-.34.14-.53-.1-.57a.73.73,0,0,0-.67.34c-1.57,1.73-3.07,3.36-4.49,4.91s-2.78,2.91-4,4.08A22.92,22.92,0,0,1,630,40.38,6.16,6.16,0,0,1,626.91,41.39Z"/><path class="cls-1" d="M660.84,41.44a3.83,3.83,0,0,1-1.24-.25,3.28,3.28,0,0,1-1.25-.78,1.6,1.6,0,0,1-.51-1.15,3.55,3.55,0,0,1,.23-1.15c.14-.42.32-.93.54-1.55l6.25-14.63a1.57,1.57,0,0,0,.19-1.09c-.09-.31-.34-.46-.77-.46a4.78,4.78,0,0,0-2,.37,12.22,12.22,0,0,0-1.56.89,1,1,0,0,1-.76.17.54.54,0,0,1-.51-.51,2.57,2.57,0,0,1,.89-1.93,10.36,10.36,0,0,1,2.36-1.81,15.42,15.42,0,0,1,2.65-1.06,10,10,0,0,1,2.83-.43,3.08,3.08,0,0,1,2.49.86,3,3,0,0,1,.54,2.3,11.29,11.29,0,0,1-1,3.33l-2.61,5.62c-.13.27-.07.43.16.49a.55.55,0,0,0,.61-.31A71.3,71.3,0,0,1,673,21.9a23,23,0,0,1,4.5-4.36A7.39,7.39,0,0,1,681.76,16a3.71,3.71,0,0,1,2.81,1,3.37,3.37,0,0,1,.95,2.38,5.86,5.86,0,0,1-.67,2.7,6.42,6.42,0,0,1-1.66,2.13,3.12,3.12,0,0,1-1.94.8,1.09,1.09,0,0,1-1-.57,5.1,5.1,0,0,1-.54-1.67,5.56,5.56,0,0,0-.45-1.63,1.1,1.1,0,0,0-1.08-.66,3.1,3.1,0,0,0-2.07,1.11,27,27,0,0,0-2.65,3.25L672,27c-.66,1-1.38,2-2.17,3.18s-1.56,2.31-2.33,3.48-1.42,2.19-2,3.07A24.4,24.4,0,0,1,663,40.18,3.15,3.15,0,0,1,660.84,41.44Z"/><path class="cls-1" d="M692,57.23a29.07,29.07,0,0,1-7-.78,14,14,0,0,1-5-2.15,3.92,3.92,0,0,1-1.88-3.16,3.47,3.47,0,0,1,1.78-2.75,20.07,20.07,0,0,1,4.6-2.3c1.87-.69,3.86-1.32,6-1.89.43-.12.47-.29.13-.52a13,13,0,0,1-2.33-1.75,2.8,2.8,0,0,1-1-2,2.64,2.64,0,0,1,1.31-2.09,26,26,0,0,1,3.16-1.92,5.46,5.46,0,0,0,.54-.46.53.53,0,0,0,.16-.29c0-.11-.19-.27-.58-.46a8.41,8.41,0,0,1-2.16-1.29,5.87,5.87,0,0,1-1.6-2,5.77,5.77,0,0,1-.57-2.55,10.39,10.39,0,0,1,.92-4.08,15.41,15.41,0,0,1,2.68-4.16,13.81,13.81,0,0,1,4.31-3.24,12.65,12.65,0,0,1,5.74-1.27,7.53,7.53,0,0,1,2.16.29A10.73,10.73,0,0,1,705,17c.55.19,1.07.38,1.53.57a3.05,3.05,0,0,0,1.15.29,11.14,11.14,0,0,0,2.11-.2c.72-.13,1.43-.28,2.13-.43a9.14,9.14,0,0,1,1.88-.23,2.11,2.11,0,0,1,1,.32,1.22,1.22,0,0,1,.57,1.17,2.82,2.82,0,0,1-.44,1.67,1.31,1.31,0,0,1-1.09.63,9,9,0,0,1-1.4-.14c-.55-.1-1.11-.19-1.66-.26a10.32,10.32,0,0,0-1.46-.12,1.44,1.44,0,0,0-.55.12c-.19.07-.24.27-.16.57a3.39,3.39,0,0,1,.16.83c0,.29,0,.59,0,.89a11.22,11.22,0,0,1-1,4.57,15.15,15.15,0,0,1-2.78,4.13,13.67,13.67,0,0,1-4.08,3,11.2,11.2,0,0,1-4.94,1.12,10.1,10.1,0,0,0-1.12.06,1.91,1.91,0,0,0-.8.23,1.49,1.49,0,0,0-.7,1.21,2,2,0,0,0,.67,1.46,11.26,11.26,0,0,0,1.95,1.46l2.74,1.58c1,.6,2.06,1.19,3.12,1.78s2,1.14,2.87,1.64a8.58,8.58,0,0,1,2.24,1.89,3.29,3.29,0,0,1,.76,2.07,4.65,4.65,0,0,1-1.4,3.13,13.15,13.15,0,0,1-3.7,2.69,23.35,23.35,0,0,1-5,1.87A22.68,22.68,0,0,1,692,57.23Zm2.49-1.95a10.8,10.8,0,0,0,3.51-.52,6.47,6.47,0,0,0,2.45-1.38,2.39,2.39,0,0,0,.39-3.41,4.68,4.68,0,0,0-1.57-1.35c-.68-.46-1.57-1-2.68-1.61a25.44,25.44,0,0,0-2.67-1.32,3,3,0,0,0-1.28-.34,4.6,4.6,0,0,0-.64,0,6,6,0,0,0-.7.18,19.72,19.72,0,0,0-5.13,2.06,3.51,3.51,0,0,0-1.82,3.1A2.91,2.91,0,0,0,685.54,53a9.57,9.57,0,0,0,3.54,1.67A20.38,20.38,0,0,0,694.44,55.28Zm.64-21.76a3.48,3.48,0,0,0,2.29-.89,11.13,11.13,0,0,0,2.3-2.52,26.86,26.86,0,0,0,2-3.42,24.14,24.14,0,0,0,1.4-3.53,10.17,10.17,0,0,0,.51-2.84,3,3,0,0,0-.51-1.72,1.56,1.56,0,0,0-1.34-.75,3.55,3.55,0,0,0-2.23.95,13.47,13.47,0,0,0-2.27,2.47,23.38,23.38,0,0,0-2,3.3A25,25,0,0,0,693.77,28a9.69,9.69,0,0,0-.54,2.93,2.89,2.89,0,0,0,.54,1.87A1.83,1.83,0,0,0,695.08,33.52Z"/><path class="cls-1" d="M711.59,57.17a5.26,5.26,0,0,1-2.77-.8A2.66,2.66,0,0,1,707.51,54a3.55,3.55,0,0,1,.48-1.81,4.42,4.42,0,0,1,1.28-1.41,2.65,2.65,0,0,1,3-.2,10,10,0,0,1,1.25.83c.47.31.93.59,1.4.84a3.33,3.33,0,0,0,1.59.37,5.91,5.91,0,0,0,4.09-2,20.74,20.74,0,0,0,3.7-5.17,19.22,19.22,0,0,0,1.81-5.65,40.63,40.63,0,0,0,.55-6.8,33.35,33.35,0,0,0-.64-7.29,12.22,12.22,0,0,0-1.47-3.9c-.55-.81-1-1.21-1.47-1.21a1.83,1.83,0,0,0-1.24.72,13,13,0,0,0-1.27,1.6,13.66,13.66,0,0,0-.93,1.53c-.09.15-.24.42-.48.8s-.48.57-.73.57-.26-.15-.38-.46a2.88,2.88,0,0,1-.2-1.14,6.16,6.16,0,0,1,.8-3,11.28,11.28,0,0,1,2-2.67,10.35,10.35,0,0,1,2.65-1.92A6,6,0,0,1,726,15.9,3.91,3.91,0,0,1,728.88,17a8.47,8.47,0,0,1,1.85,3.13,39.4,39.4,0,0,1,1.56,6.29,42.81,42.81,0,0,1,.35,9.55c0,.69,0,1,.22,1s.44-.31.74-.8a30.92,30.92,0,0,0,3.28-8.44A44.22,44.22,0,0,0,737.94,17c0-.27.23-.56.7-.89a2.23,2.23,0,0,1,1.15-.49,3.07,3.07,0,0,1,1.27.46,5.91,5.91,0,0,1,1.5,1.21,2.41,2.41,0,0,1,.67,1.66,20.94,20.94,0,0,1-2.14,8.35,56.34,56.34,0,0,1-6,10.14A98.61,98.61,0,0,1,726,48a58.09,58.09,0,0,1-5,4.57,31,31,0,0,1-5,3.33A9.67,9.67,0,0,1,711.59,57.17Z"/><path class="cls-1" d="M753.45,30.48a1.47,1.47,0,0,1-1-.46,4.89,4.89,0,0,1-1-1.26c-.25-.61-.53-1.31-.83-2.1a8.57,8.57,0,0,1-.44-2.95,3.9,3.9,0,0,1,1.81-3.19,27.8,27.8,0,0,1,5.27-2.84,10.34,10.34,0,0,0,2.93-1.78,3.2,3.2,0,0,0,1.15-2.47,4.05,4.05,0,0,0-1.5-3.33,6.26,6.26,0,0,0-3.86-1.26A6.38,6.38,0,0,0,754.4,9l-.95.29c-.26.08-.54.14-.83.2a5.63,5.63,0,0,1-1.09.09,2.42,2.42,0,0,1-1.62-.72,5.34,5.34,0,0,1-1.28-1.72,4.46,4.46,0,0,1-.48-1.93,2.23,2.23,0,0,1,1.15-1.78,4.51,4.51,0,0,1,2.62-.8,10.62,10.62,0,0,1,4.43,1,15.14,15.14,0,0,1,4.11,2.78A17.3,17.3,0,0,1,763.2,9.7,17.55,17.55,0,0,1,765,13.32a10,10,0,0,1,.67,3.44,5.66,5.66,0,0,1-1,3.5,5.58,5.58,0,0,1-2,1.78c-.72.35-1.38.67-2,1s-1.18.61-1.76.92L757,25a3.54,3.54,0,0,0-1.76,1.66,10.12,10.12,0,0,0-.6,2.53,2,2,0,0,1-.35.95A1,1,0,0,1,753.45,30.48Zm.25,10.91a4.52,4.52,0,0,1-3.12-1.15,3.64,3.64,0,0,1,0-5.54,4.54,4.54,0,0,1,3.12-1.12,4.46,4.46,0,0,1,3.06,1.12,3.64,3.64,0,0,1,0,5.54A4.44,4.44,0,0,1,753.7,41.39Z"/></svg>