<svg id="レイヤー_1" data-name="レイヤー 1" xmlns="http://www.w3.org/2000/svg" viewBox="0 0 577.77 54.47"><defs><style>.cls-1{isolation:isolate;}.cls-2{fill:#fff;}</style></defs><g class="cls-1"><path class="cls-2" d="M31.19,26.21c.51-1.14,1.15-2.48,1.66-3.69.57-1.47,1-2.81,1.34-4a5.49,5.49,0,0,0,.12-.83c0-.19-.25-.38-.63-.38-.19,0-1.66.13-2.68.25s-2.55.26-3.25.32c-1.15.13-2.11.19-2.81.26-.38.57-1.21,1.34-2,2.23a62.51,62.51,0,0,1-4.46,4.47,39.84,39.84,0,0,1-7.85,5A27.78,27.78,0,0,1,8,31.06c-.9.32-1.28.45-1.73.58a3,3,0,0,1-.63.12.17.17,0,0,1-.19-.19c0-.13.12-.25.51-.51a33.88,33.88,0,0,0,3.31-2.49,30.72,30.72,0,0,0,3.25-3.31,44.56,44.56,0,0,0,5.11-7A57.58,57.58,0,0,0,20.16,13a19.1,19.1,0,0,0,1.59-5.55,1.38,1.38,0,0,0-.57-1.15A11.75,11.75,0,0,0,20,5.68c-.38-.19-.44-.26-.44-.39s.83-.63,1.72-.89A8.4,8.4,0,0,1,23,4.15a9.53,9.53,0,0,1,4.59,1.72c1.6,1,3,2.29,3,3.19a2.69,2.69,0,0,1-1.08,2.1,4.88,4.88,0,0,0-.51.77c-.32.51-.58,1-.77,1.27-.64,1.09-1,1.72-1.47,2.36,1.15-.06,2-.19,3.26-.32,1.08-.12,2.23-.32,2.48-.38a4,4,0,0,0,2.36-1c2.24-1.78,2.43-2,3.13-2s2.81,1.53,4.53,3.38c1.34,1.46,1.85,2.36,1.85,3.19S43.69,20,42,20.28A87.83,87.83,0,0,1,36,31.7c3.77,2.87,5.17,5,5.17,7.72a3.84,3.84,0,0,1-3.89,3.95c-1.79,0-2.49-.7-4.4-3.51-.45-.63-1.21-1.65-1.6-2.1-.7.7-2.48,2.42-3.44,3.19A44.18,44.18,0,0,1,15.75,48a45.46,45.46,0,0,1-8.86,2.55c-1.47.25-3.64.51-4.91.7-.39.06-1.21.13-1.47.13S0,51.28,0,51s.13-.2.89-.39c1.28-.32,2.36-.64,3.51-1A37.38,37.38,0,0,0,8.55,48a39.71,39.71,0,0,0,7-4.08,48.57,48.57,0,0,0,11-10.65,36.36,36.36,0,0,0-4-3.51,24.44,24.44,0,0,0-4.2-2.61c-.13-.07-.26-.19-.26-.32s.19-.19.7-.19a26.17,26.17,0,0,1,5.49.51,30,30,0,0,1,5.55,1.72C30.1,28.26,30.74,27.11,31.19,26.21ZM48.73,11a2.18,2.18,0,0,1-2.23,2.24,2.39,2.39,0,0,1-1.92-.9,5.61,5.61,0,0,1-.76-1.72,10.12,10.12,0,0,0-3.89-4.78c-.26-.13-.39-.19-.39-.38s.2-.32.58-.32C44.52,5.17,48.73,8,48.73,11Zm1.59-3.76a12.36,12.36,0,0,0-5.55-4.4c-.57-.25-.7-.32-.7-.51s.83-.51,2.3-.51a14.19,14.19,0,0,1,6.7,1.85A3.41,3.41,0,0,1,55,6.76a2.24,2.24,0,0,1-2.17,2.36C51.73,9.12,51.22,8.74,50.32,7.27Z"/><path class="cls-2" d="M69.65,17.92a4.43,4.43,0,0,1-4.53,4.53,6.36,6.36,0,0,1-1.91-.38c-.45-.13-.39-.26-1-1.4-1.41-2.56-5.68-6.32-8.23-7.21-.32-.13-.45-.26-.45-.38s.7-.39,1.66-.58a30,30,0,0,1,5-.45C65.76,12.05,69.65,14.48,69.65,17.92ZM65.18,45.8a4.82,4.82,0,0,1-2.48,1.08,5.21,5.21,0,0,1-3-1.21,22.92,22.92,0,0,1-3.45-3.25c-1.46-1.6-2.16-2.88-2.16-3.9,0-1.72,1.08-3.76,2.23-4.08.57,2,1.91,2.87,4.53,2.87A45.68,45.68,0,0,0,68.69,35,131.8,131.8,0,0,0,90.12,22.83,65,65,0,0,0,95.93,18c1.08-1,1.21-1.09,1.4-1.09a.36.36,0,0,1,.38.32,1.19,1.19,0,0,1-.19.51,57.71,57.71,0,0,1-5.8,7.91,67.28,67.28,0,0,1-10,9.25A122.14,122.14,0,0,1,66,45.22C66,45.29,65.38,45.67,65.18,45.8Z"/><path class="cls-2" d="M125.46,10.14c.76-.76,1.21-1.15,1.85-1.15,1,0,3.06,1.34,5.74,3.51,1.4,1.21,2,2,2,2.87s-.58,1.28-3.07,1.92c-.38.7-.51.89-1.08,2.1a89,89,0,0,1-7.14,12.05c5.86.83,10.46,2.68,13.39,5a9.24,9.24,0,0,1,3.7,7.08c0,3.13-2,5.23-5,5.23-2.36,0-3.63-1-4.08-3.31-.83-4.72-4.65-10.27-8.8-13.08a35.79,35.79,0,0,1-17.35,12.44,62.94,62.94,0,0,1-9.44,2.42,32.2,32.2,0,0,1-3.63.39c-.26,0-.45-.13-.45-.32s.06-.32.51-.45A41.13,41.13,0,0,0,98.22,45,37.89,37.89,0,0,0,104,42.16,41,41,0,0,0,117.8,27.94a76.76,76.76,0,0,0,3.64-7,32.06,32.06,0,0,0,1.59-4,2.88,2.88,0,0,0,.13-.76c0-.26-.25-.39-.64-.39A42.57,42.57,0,0,0,115,17.48,43.14,43.14,0,0,0,110.15,19c-.83.32-1.4.63-2.55,1.15a3,3,0,0,1-1.34.25,6.28,6.28,0,0,1-3.51-1.66c-1.27-1.08-2.23-2.36-2.23-3.31a3,3,0,0,1,2-3.07c1.34,1.66,2.1,2.11,4.08,2.11a85.42,85.42,0,0,0,13.07-1.79c2.94-.57,4.34-1.08,4.85-1.59Z"/><path class="cls-2" d="M156.65,21.5a39.05,39.05,0,0,1,6.69.5c5.3,1,8.61,3.77,8.61,7.21a4.13,4.13,0,0,1-4.08,4.34,4,4,0,0,1-2.49-.77c-.57-.44-.7-.7-2.29-3.38-2.23-3.76-4.27-5.93-7.21-7.33.32,16.07.58,21.94.7,26.66a3.74,3.74,0,0,1-3.44,4c-1,0-1.92-.64-2.94-2.23A10.2,10.2,0,0,1,148.48,46c0-.32,0-.39.39-1.47.76-2.36.95-7.46.95-26.47,0-4.85-.19-7.65-.7-9.44a2.53,2.53,0,0,0-2.17-2c-.32,0-.45-.13-.45-.26a6.19,6.19,0,0,1,1.6-1.85,4,4,0,0,1,2.74-1.21,9.21,9.21,0,0,1,4.47,1.53c1.65,1,2.93,2.43,2.93,3.45,0,.51-.13.64-1.21,1.78-.51.51-.77,1.53-1,4.72-.06,1.66-.13,3.83-.19,6.77Zm17.09-8.42a2.39,2.39,0,0,1-2-1c-.32-.45-.38-.64-.57-2a9.89,9.89,0,0,0-3.06-5.29c-.26-.19-.39-.32-.39-.45a.29.29,0,0,1,.32-.25,12.49,12.49,0,0,1,4.6,1.78c1.91,1.21,3.25,3.13,3.25,4.72A2.19,2.19,0,0,1,173.74,13.08Zm4.15-5.43a13.33,13.33,0,0,0-4.72-5.35c-.51-.26-.64-.39-.64-.64s.25-.26.57-.26a12.21,12.21,0,0,1,3.77.64c3.76,1.15,5.74,2.94,5.74,5.1a2.34,2.34,0,0,1-2.24,2.62C179.16,9.76,178.59,9.25,177.89,7.65Z"/><path class="cls-2" d="M186.24,21.69a129.77,129.77,0,0,0,15.12-2.17c3.25-.64,5-1.21,5.67-1.79,1-.83,1-.89,1.34-.89,1,0,2.62.83,4.28,2,2.8,2,3.95,3.31,3.95,4.4,0,.89-.51,1.27-1.85,1.59-1.34,4.4-3.83,11.29-7.65,16.46s-10.27,9.18-19.78,12.18a25.13,25.13,0,0,1-4.78,1c-.19,0-.32-.06-.32-.19s.07-.13.38-.26a29.1,29.1,0,0,0,8.74-4.84,35,35,0,0,0,10.78-13.46A41.34,41.34,0,0,0,206,23c-.38,0-1.91.07-2.93.13a24,24,0,0,0-3.25.51c-2.49.57-5.3,1.08-7.28,1.72a9.52,9.52,0,0,0-3.57,1.6,2,2,0,0,1-1.21.44,10.5,10.5,0,0,1-5.29-2.23c-1.21-1-1.66-1.59-1.66-2.49a2,2,0,0,1,1.27-2.1C182.92,21.3,184.2,21.69,186.24,21.69ZM184.65,7.27a6.87,6.87,0,0,1,.95.13,8.45,8.45,0,0,0,2,.25,36.9,36.9,0,0,0,8.8-1.27,30.67,30.67,0,0,0,6.12-2.17,4.54,4.54,0,0,1,1.92-.57,19.25,19.25,0,0,1,4.33,1.14c2.24.83,3.45,2.05,3.45,3.51,0,1.28-.7,1.92-2.68,2.55a46,46,0,0,1-10.4,1.47,27.7,27.7,0,0,1-7.39-1.08,24,24,0,0,1-5.94-2.43,9.64,9.64,0,0,1-1.08-.64c-.32-.25-.51-.44-.51-.57S184.39,7.27,184.65,7.27Z"/><path class="cls-2" d="M252.7,40.37a5,5,0,0,1-5,5.23c-1.21,0-2-.57-2.93-2.29a38.72,38.72,0,0,0-5-6.83,23.81,23.81,0,0,0-4-3.5c-.83-.58-1.66-1-2.55-1.6-.2-.13-.26-.19-.26-.32s.19-.32.64-.32a40.36,40.36,0,0,1,14,2.94c3.82-5.93,7-12,7-13.52,0-.32-.32-.45-1-.45A80.3,80.3,0,0,0,245,20.86c-7.27,1.27-10.84,2-14.92,3.63a6.93,6.93,0,0,0-1.28.77c-.57.44-.76.51-1.15.51a7.63,7.63,0,0,1-4.52-2c-1.28-1.15-2.3-2.49-2.3-3.7a4.6,4.6,0,0,1,1-2.3c.25-.38.51-.57.7-.57s.19.06.38.32a4.4,4.4,0,0,0,1.22.95,3.85,3.85,0,0,0,1.78.58c1.09,0,2.87-.26,5-.39,5-.31,10-1.08,15.3-1.59,6.32-.64,7.15-.77,8.3-1.28,2.55-2.23,2.93-2.61,3.82-2.61,1.28,0,2.81.83,5.93,3.44,2.62,2.17,3.51,3.38,3.51,4.85,0,1.72-.7,2.23-4.53,3A146.78,146.78,0,0,1,249.7,35,6.8,6.8,0,0,1,252.7,40.37Z"/><path class="cls-2" d="M281.66,21.37a40.43,40.43,0,0,1,6.69.44c5.3,1,8.61,3.77,8.61,7.27a4.13,4.13,0,0,1-4.14,4.28,4.46,4.46,0,0,1-2.36-.64c-.58-.38-.7-.51-2.36-3.44-2.17-3.83-4.34-6-7.21-7.34.06,3.89.13,7.27.19,10.27.19,7.65.38,12.12.51,16.39a3.82,3.82,0,0,1-3.44,4c-1,0-1.85-.7-2.94-2.23a10.74,10.74,0,0,1-1.72-4.53,3.63,3.63,0,0,1,.32-1.47c.57-1.78.83-5.16,1-14.8,0-3.18.06-7,.06-11.73,0-4.53-.19-7.4-.7-9.12-.45-1.53-1.09-2.17-2.17-2.3-.32-.06-.45-.13-.45-.25a5.42,5.42,0,0,1,1.6-1.92,4.07,4.07,0,0,1,2.74-1.14,9.41,9.41,0,0,1,4.59,1.65c1.6,1,2.75,2.36,2.75,3.26,0,.51-.07.7-1.15,1.85-.7.83-1,2.74-1.15,11.48Z"/><path class="cls-2" d="M327.26,22.58c1.34-1.08,2-1.79,2.81-1.79s2.87,1.66,4.65,3.7a3.65,3.65,0,0,1,1.09,2.43c0,.89-.45,1.34-2.05,1.78a8.17,8.17,0,0,0-.76,1.72c-3.38,8.93-9.25,15.82-16.33,19.46-3.44,1.72-8.55,3.19-11.35,3.19-.26,0-.45-.13-.45-.32s.13-.32.7-.45a31.81,31.81,0,0,0,10.27-5.87,35.16,35.16,0,0,0,10-15,20.77,20.77,0,0,0,1.34-5.16c0-.51-.57-.7-2.1-.7a93.2,93.2,0,0,0-12.95,1.14c-.83.13-1.15.26-1.47.26a1.69,1.69,0,0,1-.95-.32,38.33,38.33,0,0,1,.57,6.12c0,2.55-1.28,4.34-2.94,4.34a3.28,3.28,0,0,1-2.61-2.1c-.32-.9-.38-1.41-.51-4.4a17,17,0,0,0-1.08-6.32,3.43,3.43,0,0,0-1.41-1.78c-.44-.32-.44-.45-.44-.64a.5.5,0,0,1,.51-.51c1.34,0,5.54,1.59,7.14,2.74A63.9,63.9,0,0,0,316,23.6a37.4,37.4,0,0,0-.7-7.08c-.19-.7-.7-1.08-1.66-1.4-.51-.2-.76-.32-.76-.45,0-.64,2.55-1.66,3.95-1.66,2.87,0,6.32,2,6.32,3.64,0,.64-.13,1-1,1.59-.32,1.34-1,4.08-1.34,5C323.43,23,326.24,22.71,327.26,22.58Z"/><path class="cls-2" d="M351.62,29.79c-1.66,5.67-4.08,9.69-8,12.75A30,30,0,0,1,333.25,48a11.14,11.14,0,0,1-2.17.45c-.12,0-.31,0-.31-.13s.12-.25.51-.38A14.65,14.65,0,0,0,334,46.37a26.77,26.77,0,0,0,3.82-3.25,30.31,30.31,0,0,0,5.49-8.61,28.9,28.9,0,0,0,2.55-11.68,6,6,0,0,0-.32-2.23,6.64,6.64,0,0,0-1.28-.89,5.54,5.54,0,0,0-1.72-.45c-.19,0-.32-.06-.32-.19s.77-.89,1.73-1.59A8.87,8.87,0,0,1,346.78,16a6.47,6.47,0,0,1,2.48.76,19.44,19.44,0,0,1,3.7,2.42c1.28,1,1.79,1.54,1.79,2.17,0,.39-.38.83-1.09,1.28C353.34,23.85,352.77,25.7,351.62,29.79Zm13.08-2.24c0,.64-.07,1.28-.07,1.92,0,.89.07,1.85.13,2.68a1.56,1.56,0,0,0,.9.25c2.55,0,8.16-2.81,12.37-6.25A47.62,47.62,0,0,0,386.89,17c.71-1,.9-1.15,1.09-1.15s.13.06.13.19a9.78,9.78,0,0,1-.77,2.17,54.46,54.46,0,0,1-3.63,6.89A49.56,49.56,0,0,1,378,31.89a58.32,58.32,0,0,1-11.23,8.68c-1.53,1.14-1.91,1.59-2.61,1.59-.9,0-1.92-.57-3.19-1.79a26,26,0,0,1-2.36-2.67,4.28,4.28,0,0,1-1.15-2.37,1.23,1.23,0,0,1,1-1.27c.32-2.55.58-7,.58-9.12,0-2.68-.07-4.85-.2-6.38a6.9,6.9,0,0,0-.38-2.49,3.57,3.57,0,0,0-2.36-1.46c-.57-.13-.64-.19-.64-.32,0-.39.58-.9,1.28-1.53a5.75,5.75,0,0,1,2.74-1.47c1,0,2.81.76,5,2.23,1.79,1.15,2.36,1.92,2.36,2.94,0,.83-.45,1.4-1.66,2C365,21.11,364.76,25.32,364.7,27.55Z"/><path class="cls-2" d="M430.14,30.55l-2.24-.06c-.76,0-1.33-.07-1.72-.07-.7,0-2.1.13-3.06.13h-1.59c-.39,0-2,.13-3.19.26-1.85.19-3.64.38-4.47.51l.19,1.4c.19,1.34.51,2.93,1.09,5.93a76.64,76.64,0,0,1,1.53,9.51A10.93,10.93,0,0,1,415,53.51a2.21,2.21,0,0,1-2.1.9c-1.47,0-2.49-1-3.19-3.26-.32-1.08-1.22-8.48-2.36-18.75-1.6.32-4.53,1-8.74,2A17.42,17.42,0,0,0,394.74,36c-1.09.64-1.21.77-1.79.77-2.93,0-6.31-3.38-6.31-6.19,0-.19.06-.38.19-.38s1,.32,1.34.38a19.64,19.64,0,0,0,3.32.38,105.64,105.64,0,0,0,12.56-1.59c1.47-.26,1.91-.32,2.87-.45-.64-4.52-1-7.71-1.15-9.25-.44.07-1,.2-1.53.26-2.17.38-2.8.51-3.95.77a11.92,11.92,0,0,1-2.75.44c-2.61,0-4.46-.89-6.57-3.19-.57-.63-.89-1.08-.89-1.4a.17.17,0,0,1,.19-.19,3.12,3.12,0,0,1,.64.13,11.59,11.59,0,0,0,1.28.19c.76.06,1.59.06,2.93.06a36.27,36.27,0,0,0,7.78-1c1-.19,1.47-.31,2-.44-1.21-6.89-1.46-7.85-2.61-9.06a4.09,4.09,0,0,0-2-1c-.32-.06-.39-.12-.39-.25a5.22,5.22,0,0,1,1.15-1.47c1.34-1.34,2.43-2,3.32-2,1.21,0,4.4,1.34,6.12,2.43.89.57,1.28,1.08,1.28,1.72A1.36,1.36,0,0,1,411.19,7c-.38.32-.44.58-.44,1.21,0,1.47.06,3.13.32,6.13,2.48-.7,5.8-2.43,6.88-3.64l.83.13c3.64.57,7.08,2.17,7.08,3.64,0,1.78-.89,2.42-3.31,2.55-1,.06-9.32,1.34-10.85,1.65.07,1,1.09,7.66,1.41,9.19.89-.13,3.38-.89,6.25-1.72a9.26,9.26,0,0,0,3.89-1.85c.83-.7,1.27-1,1.91-1,1.21,0,1.41.19,5.36,2.3,1.85,1,2.49,1.59,2.49,2.87S431.67,30.62,430.14,30.55ZM429.37,11a2.75,2.75,0,0,1-1.85-.76c-.32-.51-.32-.51-.7-2.05A10.53,10.53,0,0,0,423.31,3c-.25-.19-.32-.26-.32-.38s.13-.26.45-.26c3.7,0,8,3.44,8,6.31A2.14,2.14,0,0,1,429.37,11Zm6.32-3.12c-1.15,0-1.66-.45-2.43-2a11.33,11.33,0,0,0-5.1-5c-.57-.25-.7-.38-.7-.51s.32-.38,1.21-.38a14.75,14.75,0,0,1,7,2c1.53,1,2.23,2.11,2.23,3.38A2.27,2.27,0,0,1,435.69,7.85Z"/><path class="cls-2" d="M481.05,24.75c1.78.76,2.58,1.78,2.58,3.25,0,1.85-2.35,3.19-5.86,3.19-.8,0-2.41-.06-4.53-.13-1.44-.06-3.5-.13-7.23-.13-12.63,0-14.64.13-20,1a18.66,18.66,0,0,0-2.24.83,4.2,4.2,0,0,1-1.6.45c-.92,0-3.05-1.15-4.83-2.75A4.12,4.12,0,0,1,435.64,27c0-1.34.46-3.19.86-3.19.12,0,.17.06.69.58A6.5,6.5,0,0,0,442,26.21c7.87,0,9.42,0,22.33-1,7-.51,9-.89,10.16-1.65A23,23,0,0,1,481.05,24.75Z"/><path class="cls-2" d="M495.94,17.67a57.69,57.69,0,0,0-.77-9.7c-.44-2.23-.63-2.68-2-3.95C492,3,491.6,2.3,491.6,1.79a.5.5,0,0,1,.51-.45,3.44,3.44,0,0,1,1.28.32c.51.19,1.15.45,2.29.83.39.13,1.21.38,2.68.76,2.94.83,4.59,2.62,4.59,5.11,0,.63,0,.76-1.08,7.33a60.42,60.42,0,0,0-.57,7c0,1.14.51,1.85,1.46,1.85,1.79,0,3.26-.51,6.83-2.43a2.72,2.72,0,0,1,1.15-.25c.12,0,2.42.44,4,.7a2.3,2.3,0,0,1,2,2.42c0,1.72-1.34,2.62-5.23,3.57-.57.13-1.21.2-3.51.64a48,48,0,0,0-6,1.28c-4.66,1.53-6.76,2.61-9.06,4.4s-3.57,3.7-3.57,5.8c0,4,3.63,5.93,10.78,5.93a29.21,29.21,0,0,0,8.29-1,11.92,11.92,0,0,1,2.74-.57c4,0,7.53,2.1,7.53,4.34s-3.51,3.44-10.91,3.44c-12.76,0-20.73-4.4-20.73-11.42,0-4.14,2.68-7.84,8.36-11.35a13.87,13.87,0,0,0,3.31-2.29C496.26,25.32,496.07,24.68,495.94,17.67Z"/><path class="cls-2" d="M532.42,43.56c.45-1,1.15-2.87,2.55-6.44.13-.38,1.6-3.89,2.43-6.06.7-1.78.89-2.23,1-2.36s.13-.19.26-.19.25.06.25.19-.38,1.66-.57,2.43-.38,1.4-.83,3.12A68.45,68.45,0,0,0,535.35,49a3.9,3.9,0,0,0,.45,2,3,3,0,0,1,.19,1c0,1.34-1.4,2.36-2.93,2.36-2.17,0-4-1.4-5.23-4.08s-1.6-4.66-1.6-9.83c0-2.93.83-10.58,2.3-20.92a25.63,25.63,0,0,0,.32-4.33c0-3.58-.51-5.94-1.4-7.08a1.25,1.25,0,0,1-.32-.58c0-.19.19-.25.38-.25.57,0,1.4.44,2.74,1.46,3.25,2.56,4.85,4.41,4.85,6.19,0,1.21-.26,2-1.21,4.85-2.3,6.57-3.45,12.25-3.45,16.77a26.16,26.16,0,0,0,.51,5.43c.32,1.33.77,2.16,1.09,2.16C532.17,44.07,532.23,44,532.42,43.56Zm10.91-18.24c-.9-.25-1.09-.38-1.09-.64s.13-.19,1-.44A35.48,35.48,0,0,0,551,20.86c.77-.45,2.17-1.15,3.9-2,2.67-1.34,3.76-1.91,5.74-2.87-.07-1.79-.13-3.32-.2-4.66-.12-2.1-.31-4.65-.51-5.74-.38-2-1.21-2.42-2.42-2.42a6.93,6.93,0,0,0-1.53.19,3.89,3.89,0,0,1-.77.06c-.19,0-.31-.06-.31-.25s.19-.38.57-.7A5.08,5.08,0,0,1,559.34.77a10.17,10.17,0,0,1,4.59,1.08,3.37,3.37,0,0,1,2,3.57c0,.77-.06,1.47-.06,2.17v5.49a3.15,3.15,0,0,1,1.65-.58c1,0,3.83.45,5.74.64s2.81.7,2.81,1.85a2.79,2.79,0,0,1-3.06,2.61c-.7,0-1.34-.06-2-.06a10.17,10.17,0,0,0-4.47,1.28l.19,7.39c.13,4.34.2,7.21.2,9.19a29.86,29.86,0,0,1-.32,5.1,33.26,33.26,0,0,1,7.59,4.08c2.36,1.73,3.57,3.45,3.57,5.23a2.94,2.94,0,0,1-3.13,2.68c-1.72,0-2.61-.51-4.33-2.42a36.87,36.87,0,0,0-5.3-4.72c-3.06,4.4-5.48,5.87-9.82,5.87-2.74,0-5.23-.77-6.63-2.17a7.11,7.11,0,0,1-2.3-4.4c0-1.79,2.11-3.64,4.91-4.53a24.53,24.53,0,0,1,7-.89,22.69,22.69,0,0,1,3.31.25c.13-1.59.2-2.42.2-3.7,0-1-.07-3.19-.2-5.87-.12-2.87-.31-6.31-.51-9.5-1.27.57-2.36,1-4.72,2.17a27.2,27.2,0,0,0-4.65,2.55,5.46,5.46,0,0,1-3.32,1.28,18.49,18.49,0,0,1-3.95-.77Zm11.61,16.39c-4.21,0-7.21,1.34-7.21,3.13,0,1.34,2,2.49,4.4,2.49a10.12,10.12,0,0,0,4.66-1.22,9.29,9.29,0,0,0,3.57-3.38A13.33,13.33,0,0,0,554.94,41.71Z"/></g></svg>