<svg id="レイヤー_1" data-name="レイヤー 1" xmlns="http://www.w3.org/2000/svg" viewBox="0 0 539 128"><defs><style>.cls-1{fill:#fff;}</style></defs><path class="cls-1" d="M15,41.5a1.57,1.57,0,0,1-1.5-1A6.61,6.61,0,0,1,13,37.91a13.21,13.21,0,0,1,.25-3.18q.58-3.27,1.18-6.55t1.15-6.54q.54-3.27,1-6.31c.32-2,.59-3.95.8-5.74a7.3,7.3,0,0,0,.06-2.53,1.9,1.9,0,0,0-1-1.29,7.6,7.6,0,0,0-2.17-.72,11,11,0,0,1-1.63-.46.78.78,0,0,1-.6-.74q0-.47.63-.66A5.46,5.46,0,0,1,14.36,3c1.11,0,2.35,0,3.73.15s2.78.14,4.18.14c.81,0,1.75,0,2.84-.06l3.16-.08,2.61,0A3.23,3.23,0,0,1,32,3.3c.34.14.49.32.44.55a1.25,1.25,0,0,1-.89.8,7.85,7.85,0,0,1-1.53.4,9.52,9.52,0,0,0-2.39.63,2.68,2.68,0,0,0-1.28,1.18,8,8,0,0,0-.67,2.27q-.88,5.1-2,10.3t-2,10.36c-.13.77-.06,1.17.19,1.21s.72-.31,1.4-1L39.17,13a24.9,24.9,0,0,0,2.14-2.67A4.06,4.06,0,0,0,42.11,8a2.59,2.59,0,0,0-.71-2,5.17,5.17,0,0,0-2.55-1,7.78,7.78,0,0,1-1.59-.49.82.82,0,0,1-.58-.77c0-.27.23-.47.67-.6A5.28,5.28,0,0,1,38.92,3q1.14,0,2.67.09c1,.06,2,.11,3.07.14s1.93.06,2.74.06,1.81,0,2.87-.08L53.43,3c1,0,2-.06,2.77-.06q1.53,0,1.53.81c0,.31-.22.55-.67.75A7.6,7.6,0,0,1,55.5,5a8.76,8.76,0,0,0-3.64,1.15,4.24,4.24,0,0,0-1.4,2.7l-3.83,21c-.17.77-.11,1.14.16,1.12s.76-.39,1.44-1.12L62.77,13.2a17.54,17.54,0,0,0,3.16-4.48,2.82,2.82,0,0,0,.12-2.52,2.69,2.69,0,0,0-1.81-1.15A3.89,3.89,0,0,1,63,4.62a.64.64,0,0,1-.28-.77c0-.27.27-.46.7-.58a5.29,5.29,0,0,1,1.34-.17l2.26,0,2.55.06c.87,0,1.71,0,2.52,0A26.72,26.72,0,0,0,75.4,3a26.67,26.67,0,0,1,3.12-.17,3.19,3.19,0,0,1,1.28.23q.51.23.51.63c0,.35-.27.62-.8.83A6.69,6.69,0,0,1,77.89,5,13.12,13.12,0,0,0,74,6.52a16.44,16.44,0,0,0-3.73,3L47.4,33.7l-3.29,3.61c-1.08,1.19-2,2.16-2.83,2.93a3.4,3.4,0,0,1-2,1.15,1.75,1.75,0,0,1-1.44-.58,2.91,2.91,0,0,1-.6-1.55,8.63,8.63,0,0,1,0-2.26c.11-.87.26-1.79.48-2.79q.57-3.21,1.31-6.86t1.46-7.23c.49-2.39.9-4.62,1.25-6.69L23.1,33.7c-.68.72-1.38,1.53-2.11,2.41l-2.13,2.58a14,14,0,0,1-2,2A3.09,3.09,0,0,1,15,41.5Z"/><path class="cls-1" d="M77.76,41.5a2.44,2.44,0,0,1-1.12-.31,3.87,3.87,0,0,1-1.08-.87,1.73,1.73,0,0,1-.48-1.17,7.71,7.71,0,0,1,.22-1.84c.15-.61.35-1.34.61-2.18L84.65,9.3a18.23,18.23,0,0,0,.54-1.9,7.34,7.34,0,0,0,.22-1.6,1.16,1.16,0,0,0-.8-1.06A16.17,16.17,0,0,0,83,4.08a5.75,5.75,0,0,1-.83-.29c-.26-.12-.38-.27-.38-.46A.72.72,0,0,1,82,2.76a3.55,3.55,0,0,1,1.28-.52c.42-.15,1.07-.36,1.94-.6s1.8-.5,2.78-.75S89.9.43,90.7.26A10,10,0,0,1,92.36,0a5.78,5.78,0,0,1,.93.09.55.55,0,0,1,.54.6,3.25,3.25,0,0,1-.16,1.09c-.11.31-.22.63-.35,1L84.52,28c-.09.27-.06.4.09.4a.68.68,0,0,0,.48-.28,49.15,49.15,0,0,1,5.26-6.2,29.39,29.39,0,0,1,5.49-4.39,9.84,9.84,0,0,1,5-1.64,4.72,4.72,0,0,1,3.73,1.41,4.91,4.91,0,0,1,1.24,3.35,19.23,19.23,0,0,1-1,5.95,25.54,25.54,0,0,1-2.58,5.59,26.33,26.33,0,0,1-3.6,4.65,8,8,0,0,1-1.47,1.21c-.72.49-1.55,1-2.49,1.52A23.12,23.12,0,0,1,92,40.87a6,6,0,0,1-2.1.52A3.16,3.16,0,0,1,88.5,41a6.23,6.23,0,0,1-1.37-1,1.59,1.59,0,0,1-.57-1,2,2,0,0,1,.32-.86A5,5,0,0,1,87.67,37a1.34,1.34,0,0,1,.93-.49,1.69,1.69,0,0,1,1,.28l.83.64c.3.23.59.45.89.66a1.73,1.73,0,0,0,1,.31,2.36,2.36,0,0,0,1.72-1.18,15.21,15.21,0,0,0,1.73-3,31.17,31.17,0,0,0,1.46-4.07c.43-1.48.78-2.93,1.06-4.37a20.85,20.85,0,0,0,.41-3.81,2.69,2.69,0,0,0-.48-1.7,1.73,1.73,0,0,0-1.43-.6,4.16,4.16,0,0,0-2.46,1.21,22.85,22.85,0,0,0-3.06,3.21c-1.08,1.34-2.19,2.8-3.32,4.36s-2.22,3.15-3.28,4.74-2,3-2.93,4.33a18.4,18.4,0,0,1-2.24,3.05A2.64,2.64,0,0,1,77.76,41.5Z"/><path class="cls-1" d="M109.68,41.39A3.82,3.82,0,0,1,108,41a4.79,4.79,0,0,1-1.44-1.07,1.89,1.89,0,0,1-.57-1.26,8.77,8.77,0,0,1,1.27-4.19,31.77,31.77,0,0,1,3.93-5.31q2.64-3,6.85-6.92a52.13,52.13,0,0,1,5.33-4.27,7.45,7.45,0,0,1,3.47-1.58A5.15,5.15,0,0,1,130,17.68l.57.57h.07a.33.33,0,0,0,.19-.05,2,2,0,0,0,.19-.29l.83-1.35a1,1,0,0,0,.19-.43,1.27,1.27,0,0,1,1.28-.69,5.14,5.14,0,0,1,1.81.35,5.25,5.25,0,0,1,1.53.83c.41.32.61.62.61.89a2.54,2.54,0,0,1-.19.86l-6.63,16.07c-.43,1.11-.2,1.67.7,1.67a5.13,5.13,0,0,0,2.45-1,17.17,17.17,0,0,0,3-2.44l.25-.14.13,0a.69.69,0,0,1,.51.2.83.83,0,0,1,.19.6,3.82,3.82,0,0,1-1.11,2,19.24,19.24,0,0,1-2.71,2.58,19,19,0,0,1-4.21,2.59,9.47,9.47,0,0,1-3.64.92,4,4,0,0,1-1.72-.43,4.59,4.59,0,0,1-1.47-1.09,2,2,0,0,1-.57-1.3,3.37,3.37,0,0,1,.38-1.32s.08-.23.22-.6.36-.82.61-1.38.53-1.11.83-1.66.57-1.08.83-1.58q.2-.41,0-.6c-.11-.14-.24-.13-.41,0a70.76,70.76,0,0,1-6.16,5.74,25.92,25.92,0,0,1-4.81,3.18A9.39,9.39,0,0,1,109.68,41.39Zm5.67-5.28c.81,0,2.05-.64,3.7-1.9a42.12,42.12,0,0,0,5.3-4.93A37.59,37.59,0,0,0,127.79,25a6.14,6.14,0,0,0,1.28-2.76c0-.3-.39-.74-1.15-1.32a4,4,0,0,0-1.12-.63,3,3,0,0,0-1-.23,6.48,6.48,0,0,0-2.83,1,21.37,21.37,0,0,0-3.42,2.42,20.34,20.34,0,0,0-2.93,3.3,22.37,22.37,0,0,0-2.3,3.87,8.46,8.46,0,0,0-.89,3.39,2,2,0,0,0,.51,1.46A1.84,1.84,0,0,0,115.35,36.11Z"/><path class="cls-1" d="M145.2,41.39a3.19,3.19,0,0,1-1.66-.52,4.54,4.54,0,0,1-1.34-1.23,2.27,2.27,0,0,1-.51-1.24,3.52,3.52,0,0,1,.2-1.18c.12-.36.31-.85.57-1.46l6-14.81c.21-.49.22-.83,0-1a1,1,0,0,0-.67-.26l-2.94-.12c-.63,0-1-.17-1.18-.4a1.17,1.17,0,0,1-.22-.63c0-.08.13-.26.38-.54a4.33,4.33,0,0,1,1-.81,2.61,2.61,0,0,1,1.34-.37H149a1.89,1.89,0,0,0,1.18-.26,4.16,4.16,0,0,0,.73-1.06l1.72-3.1a6.92,6.92,0,0,1,1.25-1.49,9.23,9.23,0,0,1,1.69-1.27,3.19,3.19,0,0,1,1.53-.51,1,1,0,0,1,1.08.8,2.17,2.17,0,0,1-.06,1.55l-1.53,4.25c-.13.46-.11.75.06.89a1.39,1.39,0,0,0,.83.2c.68,0,1.39,0,2.14.11l2.14.23a3.35,3.35,0,0,1,1.53.43.92.92,0,0,1,.25.66c0,.08-.11.24-.32.49a1.69,1.69,0,0,1-1.21.43l-2,.15c-.68.05-1.45.1-2.3.14a4.89,4.89,0,0,0-1.62.29,1.49,1.49,0,0,0-.8.8l-5,12.57a5.19,5.19,0,0,0-.38,1.61.82.82,0,0,0,.32.77,1.35,1.35,0,0,0,.76.2,4,4,0,0,0,2-.71c.77-.48,1.53-1,2.3-1.61a21.87,21.87,0,0,0,1.85-1.58,1.43,1.43,0,0,1,.63-.32c.17,0,.28,0,.32.15a.68.68,0,0,1,.19.54A1.77,1.77,0,0,1,158,33a8.39,8.39,0,0,1-1.5,2A25.89,25.89,0,0,1,154,37.25a24.15,24.15,0,0,1-3,2.07,21,21,0,0,1-3.07,1.49A7.52,7.52,0,0,1,145.2,41.39Z"/><path class="cls-1" d="M186,41.39a3.5,3.5,0,0,1-2.36-.89,2.49,2.49,0,0,1-1-1.81,4.93,4.93,0,0,1,0-.55,1.69,1.69,0,0,1,.23-.6q2.1-4,3.76-7.81c1.1-2.52,2.15-4.87,3.12-7.06.13-.3.05-.46-.25-.46a3.74,3.74,0,0,0-1.21.29,13.72,13.72,0,0,0-1.6.72c-.55.29-1.08.58-1.59.89s-.76.28-1,.14a.63.63,0,0,1-.35-.6c0-.23.24-.59.73-1.09a17.78,17.78,0,0,1,1.92-1.64q1.17-.89,2.64-1.8c1-.62,2-1.18,2.94-1.7a22.32,22.32,0,0,1,2.67-1.23,2.14,2.14,0,0,1,1.66.11,3.74,3.74,0,0,1,1.34,1.06,1.1,1.1,0,0,1,.26,1.18l-7.34,16.13a1.74,1.74,0,0,0-.25.6,3.17,3.17,0,0,0-.07.55.42.42,0,0,0,.23.4.86.86,0,0,0,.41.12,4,4,0,0,0,1.88-.72,29.23,29.23,0,0,0,2.49-1.7c.87-.65,1.65-1.28,2.33-1.89a.34.34,0,0,1,.25-.17.62.62,0,0,1,.45.2.6.6,0,0,1,.19.43,4.17,4.17,0,0,1-1.31,2.5,21.47,21.47,0,0,1-3.28,2.92,24.22,24.22,0,0,1-4.11,2.47A9.15,9.15,0,0,1,186,41.39Zm12.12-29.91a2.78,2.78,0,0,1-2.07-.89,2.76,2.76,0,0,1-.87-2,4.25,4.25,0,0,1,1.38-3.13A4.66,4.66,0,0,1,200,4.13a2.5,2.5,0,0,1,2.1,1,3.5,3.5,0,0,1,.77,2.15,3.92,3.92,0,0,1-1.37,2.9A4.72,4.72,0,0,1,198.14,11.48Z"/><path class="cls-1" d="M206,41.39a6.55,6.55,0,0,1-3.74-1,3,3,0,0,1-1.43-2.53,3.62,3.62,0,0,1,.7-2.32,2.13,2.13,0,0,1,1.72-.89,1.64,1.64,0,0,1,1,.49l1.34,1.12c.56.46,1.18.94,1.89,1.43a3.89,3.89,0,0,0,2.32.75,2.39,2.39,0,0,0,1.92-.75,2.94,2.94,0,0,0,.7-1.78,4.57,4.57,0,0,0-.74-2.41c-.53-1-1.11-1.89-1.75-2.81a17.74,17.74,0,0,1-1.82-3,6.64,6.64,0,0,1-.73-2.89,5.37,5.37,0,0,1,1.08-3.1,13.11,13.11,0,0,1,2.78-2.85,18.38,18.38,0,0,1,3.31-2.06,6.63,6.63,0,0,1,2.72-.78,6.19,6.19,0,0,1,2.61.58A8.1,8.1,0,0,1,222,18a2,2,0,0,1,.82,1.32,2.4,2.4,0,0,1-.57,1.29,7,7,0,0,1-1.31,1.35,2.28,2.28,0,0,1-1.37.57,1.73,1.73,0,0,1-1.12-.46,8.17,8.17,0,0,1-1-1A4.88,4.88,0,0,0,216.21,20a3,3,0,0,0-1.62-.46,2,2,0,0,0-1.53.63,2.12,2.12,0,0,0-.58,1.49,2.87,2.87,0,0,0,.48,1.29,21,21,0,0,0,1.15,1.78c.44.63.88,1.24,1.31,1.81a17.82,17.82,0,0,1,2.2,3.39,7,7,0,0,1,.73,2.92,4.92,4.92,0,0,1-1.08,2.87,12.56,12.56,0,0,1-2.91,2.79,17,17,0,0,1-4,2.09A12.54,12.54,0,0,1,206,41.39Z"/><path class="cls-1" d="M22,111.14c-1.11,0-2.44,0-4-.14s-3.11-.18-4.62-.26-2.78-.12-3.8-.12c-.8,0-1.67,0-2.58.06s-1.86.1-2.84.18-1.95.11-2.93.11a1.7,1.7,0,0,1-.89-.2.5.5,0,0,1-.26-.55c.13-.65.77-1,1.91-1.14a12.52,12.52,0,0,0,2.91-.66,3.8,3.8,0,0,0,1.65-1.24,7.47,7.47,0,0,0,1.06-2.06l9.24-26.24a2.27,2.27,0,0,0,0-2,3.18,3.18,0,0,0-1.53-1,17.11,17.11,0,0,0-2.58-.66,1.49,1.49,0,0,1-1-.43.82.82,0,0,1-.13-.77c0-.23.25-.41.61-.55a3.09,3.09,0,0,1,1.05-.2c1.53,0,3.12,0,4.75.11s3.1.12,4.37.12q1.28,0,2.43-.06l2.52-.11c.91,0,2-.06,3.28-.06a24.07,24.07,0,0,1,10.24,2,15.32,15.32,0,0,1,6.53,5.51,14.59,14.59,0,0,1,2.3,8.18,18.18,18.18,0,0,1-2.07,8.44,22.65,22.65,0,0,1-5.84,7.12,29.23,29.23,0,0,1-8.8,4.9A32.17,32.17,0,0,1,22,111.14Zm.13-2a15.28,15.28,0,0,0,7.33-1.84,20.64,20.64,0,0,0,6.06-4.9,24.52,24.52,0,0,0,4.12-6.86,21.09,21.09,0,0,0,1.49-7.75,16.56,16.56,0,0,0-1.34-7.24,8.67,8.67,0,0,0-3.79-4,12.25,12.25,0,0,0-5.77-1.29,12.42,12.42,0,0,0-2.9.25,2.68,2.68,0,0,0-1.47.87,4.94,4.94,0,0,0-.8,1.52l-8.67,25.42a4.69,4.69,0,0,0-.07,3.48,3.71,3.71,0,0,0,2.24,1.84A11.06,11.06,0,0,0,22.08,109.19Z"/><path class="cls-1" d="M52,111.54a3.72,3.72,0,0,1-1.69-.43,4.89,4.89,0,0,1-1.44-1.06,1.89,1.89,0,0,1-.57-1.26,8.79,8.79,0,0,1,1.28-4.19,31.64,31.64,0,0,1,3.92-5.31,95.11,95.11,0,0,1,6.86-6.92,49.78,49.78,0,0,1,5.32-4.27,7.32,7.32,0,0,1,3.48-1.58,5.13,5.13,0,0,1,3.12,1.32l.58.57h.06a.27.27,0,0,0,.19-.06,1,1,0,0,0,.19-.28l.83-1.35a1.1,1.1,0,0,0,.19-.43,1.27,1.27,0,0,1,1.28-.69,5.22,5.22,0,0,1,1.82.34,5.54,5.54,0,0,1,1.53.84c.4.32.6.62.6.89a2.59,2.59,0,0,1-.19.86L72.72,104.6c-.43,1.11-.19,1.66.7,1.66a5.11,5.11,0,0,0,2.46-1,16.75,16.75,0,0,0,3-2.44,1.83,1.83,0,0,1,.26-.14.27.27,0,0,1,.12,0,.63.63,0,0,1,.51.2.82.82,0,0,1,.2.6,3.86,3.86,0,0,1-1.12,2A18.71,18.71,0,0,1,76.1,108a19.11,19.11,0,0,1-4.21,2.58,9.25,9.25,0,0,1-3.64.92,3.93,3.93,0,0,1-1.72-.43A4.4,4.4,0,0,1,65.07,110a2,2,0,0,1-.58-1.29,3.37,3.37,0,0,1,.38-1.32,4.49,4.49,0,0,1,.23-.6q.23-.54.6-1.38c.26-.55.53-1.11.83-1.66s.58-1.08.83-1.58c.13-.27.14-.47,0-.61s-.24-.12-.41,0a67.76,67.76,0,0,1-6.16,5.74A25.22,25.22,0,0,1,56,110.54,9.3,9.3,0,0,1,52,111.54Zm5.68-5.28c.8,0,2-.63,3.7-1.89a42.19,42.19,0,0,0,5.29-4.94,36.73,36.73,0,0,0,3.44-4.25,6.12,6.12,0,0,0,1.28-2.75c0-.31-.38-.75-1.15-1.32a4,4,0,0,0-1.12-.63,3,3,0,0,0-1-.23,6.38,6.38,0,0,0-2.84,1,21.23,21.23,0,0,0-3.41,2.41A21.79,21.79,0,0,0,58.94,97a22.75,22.75,0,0,0-2.29,3.88,8.33,8.33,0,0,0-.9,3.38,2.07,2.07,0,0,0,.51,1.47A1.85,1.85,0,0,0,57.67,106.26Z"/><path class="cls-1" d="M86.75,111.6a2.47,2.47,0,0,1-1.15-.34,5.88,5.88,0,0,1-1.21-.89,3.29,3.29,0,0,1-.83-1.29,1.84,1.84,0,0,1,.13-1.5l6.76-15c.51-1.22.38-1.83-.38-1.83-.34,0-.78,0-1.31.08a5.17,5.17,0,0,0-1.76.58A6.63,6.63,0,0,0,85.09,93a.81.81,0,0,1-.7.25c-.3,0-.47-.2-.51-.54a2.31,2.31,0,0,1,.35-1,10,10,0,0,1,.86-1.3c.34-.44.62-.77.83-1a10.62,10.62,0,0,1,3.35-2.18A12.59,12.59,0,0,1,94,86.23a3.22,3.22,0,0,1,2,.6,2.72,2.72,0,0,1,1,1.55,3.15,3.15,0,0,1-.22,2l-3.64,8.27c-.13.27,0,.42.29.46a.61.61,0,0,0,.67-.29,57.18,57.18,0,0,1,4.75-6.54,22.74,22.74,0,0,1,4.85-4.42,8.77,8.77,0,0,1,4.81-1.61,4.2,4.2,0,0,1,3.22,1.12A4.58,4.58,0,0,1,113,90.16a6,6,0,0,1-.73,3.42l-5.16,10.9c-.56,1.27-.45,1.9.31,1.9a3.41,3.41,0,0,0,1.34-.4c.56-.27,1.14-.6,1.76-1s1.16-.75,1.62-1.09a12.82,12.82,0,0,0,1-.8,2.2,2.2,0,0,1,.45-.41.87.87,0,0,1,.45-.17.61.61,0,0,1,.38.17.59.59,0,0,1,.19.46,2.27,2.27,0,0,1-.64,1.61,23.54,23.54,0,0,1-4,3.47,21.11,21.11,0,0,1-4.53,2.41,12.41,12.41,0,0,1-4.5.89,2.92,2.92,0,0,1-1.53-.46A2.84,2.84,0,0,1,98.33,110a1.47,1.47,0,0,1,0-1.37q2-4.08,4.09-8.1t3.89-8.15a4.1,4.1,0,0,0,.41-2.15.83.83,0,0,0-.92-.66,2.6,2.6,0,0,0-1.79.72,16.85,16.85,0,0,0-2.07,2c-.75.85-1.54,1.77-2.39,2.76-.43.5-1,1.26-1.73,2.3s-1.54,2.19-2.45,3.47-1.82,2.59-2.71,3.93-1.7,2.58-2.43,3.73a14.59,14.59,0,0,1-1.72,2.24A2.42,2.42,0,0,1,86.75,111.6Z"/><path class="cls-1" d="M125.27,111.54a7.57,7.57,0,0,1-3.7-.94A7.74,7.74,0,0,1,118.8,108a6.59,6.59,0,0,1-1-3.64,18.34,18.34,0,0,1,.89-5.17A20.63,20.63,0,0,1,121,94.29a19.83,19.83,0,0,1,3.57-4.13,16.61,16.61,0,0,1,4.69-2.87,14.7,14.7,0,0,1,5.61-1.06,6.58,6.58,0,0,1,3.54.83,2.46,2.46,0,0,1,1.31,2.1,3.43,3.43,0,0,1-.77,2.06,2.09,2.09,0,0,1-1.59,1,1.27,1.27,0,0,1-.9-.38,8,8,0,0,1-1-1.23,6.1,6.1,0,0,0-1.25-1.58,2.37,2.37,0,0,0-1.62-.66,4.23,4.23,0,0,0-2.87,1.29A14,14,0,0,0,127.15,93a21.28,21.28,0,0,0-1.91,4.48,16.24,16.24,0,0,0-.73,4.68,3.77,3.77,0,0,0,1,3.07,4.23,4.23,0,0,0,3,1,6.83,6.83,0,0,0,3.18-.72,9.8,9.8,0,0,0,2.56-1.86,3,3,0,0,1,.6-.52,1.19,1.19,0,0,1,.61-.17q.57,0,.57.63a4.62,4.62,0,0,1-.92,2.47,11.93,11.93,0,0,1-2.52,2.64,14.64,14.64,0,0,1-3.51,2A10.07,10.07,0,0,1,125.27,111.54Z"/><path class="cls-1" d="M147.68,111.6a6.92,6.92,0,0,1-3.34-.95,9.25,9.25,0,0,1-2.94-2.46,5.21,5.21,0,0,1-1.18-3.25,17,17,0,0,1,1.41-6.66,21.49,21.49,0,0,1,3.82-6,20.63,20.63,0,0,1,5.49-4.37,13.14,13.14,0,0,1,6.31-1.66A8,8,0,0,1,162,87.35a3.34,3.34,0,0,1,1.53,2.78,4.5,4.5,0,0,1-1.37,3.28,11.66,11.66,0,0,1-3.57,2.35,27.86,27.86,0,0,1-4.85,1.61q-2.64.63-5.07,1.09a1.74,1.74,0,0,0-.48.14.76.76,0,0,0-.28.37c-.17.5-.32,1-.45,1.55a11.66,11.66,0,0,0-.26,1.55,4.83,4.83,0,0,0,1.06,3.36,4,4,0,0,0,3.28,1.35,6.88,6.88,0,0,0,3.51-.89,13.82,13.82,0,0,0,2.8-2.15,2,2,0,0,1,1.15-.63.51.51,0,0,1,.58.57,2.51,2.51,0,0,1,0,.37.61.61,0,0,1-.16.32,18.09,18.09,0,0,1-2.94,3.67,13,13,0,0,1-3.89,2.61A11.83,11.83,0,0,1,147.68,111.6Zm1.41-14.92q1.08-.24,2.61-.66a13.65,13.65,0,0,0,3-1.24,8.14,8.14,0,0,0,2.39-2,4.61,4.61,0,0,0,1-2.84,1.77,1.77,0,0,0-.38-1.26,1.61,1.61,0,0,0-1.34-.58,4.64,4.64,0,0,0-2.49.81,11,11,0,0,0-2.39,2,13.5,13.5,0,0,0-1.88,2.66,8.64,8.64,0,0,0-1,2.7C148.6,96.6,148.75,96.72,149.09,96.68Z"/><path class="cls-1" d="M202.21,111.14c-1.1,0-2.44,0-4-.14s-3.11-.18-4.62-.26-2.77-.12-3.79-.12c-.81,0-1.67,0-2.59.06s-1.86.1-2.83.18-2,.11-2.94.11a1.7,1.7,0,0,1-.89-.2.51.51,0,0,1-.26-.55q.19-1,1.92-1.14a12.42,12.42,0,0,0,2.9-.66,3.89,3.89,0,0,0,1.66-1.24,7.75,7.75,0,0,0,1.05-2.06l9.25-26.24a2.34,2.34,0,0,0,0-2,3.18,3.18,0,0,0-1.53-1,17.59,17.59,0,0,0-2.59-.66,1.49,1.49,0,0,1-1-.43.8.8,0,0,1-.12-.77c0-.23.24-.41.6-.55a3.1,3.1,0,0,1,1.06-.2c1.53,0,3.11,0,4.75.11s3.09.12,4.37.12c.85,0,1.65,0,2.42-.06l2.52-.11c.91,0,2-.06,3.28-.06a24.07,24.07,0,0,1,10.24,2,15.29,15.29,0,0,1,6.54,5.51,14.66,14.66,0,0,1,2.29,8.18,18.18,18.18,0,0,1-2.07,8.44,22.75,22.75,0,0,1-5.83,7.12,29.29,29.29,0,0,1-8.81,4.9A32.12,32.12,0,0,1,202.21,111.14Zm.13-2a15.34,15.34,0,0,0,7.34-1.84,20.9,20.9,0,0,0,6.06-4.9,24.49,24.49,0,0,0,4.11-6.86,20.9,20.9,0,0,0,1.5-7.75A16.71,16.71,0,0,0,220,80.6a8.74,8.74,0,0,0-3.8-4,12.22,12.22,0,0,0-5.77-1.29,12.48,12.48,0,0,0-2.9.25,2.68,2.68,0,0,0-1.47.87,4.93,4.93,0,0,0-.79,1.52l-8.68,25.42a4.63,4.63,0,0,0-.06,3.48,3.69,3.69,0,0,0,2.23,1.84A11.06,11.06,0,0,0,202.34,109.19Z"/><path class="cls-1" d="M235.06,111.6a3.62,3.62,0,0,1-1.24-.26,3.26,3.26,0,0,1-1.25-.77,1.62,1.62,0,0,1-.51-1.15,3.5,3.5,0,0,1,.23-1.15c.14-.42.32-.94.54-1.55l6.25-14.64a1.56,1.56,0,0,0,.19-1.09c-.09-.3-.34-.45-.77-.45a4.78,4.78,0,0,0-2,.37,11.13,11.13,0,0,0-1.56.89,1,1,0,0,1-.76.17.54.54,0,0,1-.51-.52,2.56,2.56,0,0,1,.89-1.92,10.36,10.36,0,0,1,2.36-1.81,15.42,15.42,0,0,1,2.65-1.06,9.68,9.68,0,0,1,2.83-.43,3.08,3.08,0,0,1,2.49.86,3,3,0,0,1,.54,2.3,11.73,11.73,0,0,1-1,3.33l-2.62,5.62c-.13.27-.07.43.16.49a.55.55,0,0,0,.61-.32,71.07,71.07,0,0,1,4.62-6.45,23.42,23.42,0,0,1,4.5-4.37A7.44,7.44,0,0,1,256,86.12a3.71,3.71,0,0,1,2.81,1,3.36,3.36,0,0,1,.95,2.38,5.86,5.86,0,0,1-.67,2.7,6.28,6.28,0,0,1-1.66,2.12,3.08,3.08,0,0,1-1.94.81,1.08,1.08,0,0,1-1-.58,5,5,0,0,1-.54-1.66,5.63,5.63,0,0,0-.45-1.64,1.1,1.1,0,0,0-1.08-.66,3.12,3.12,0,0,0-2.07,1.12A27,27,0,0,0,247.69,95c-.34.49-.84,1.23-1.5,2.21L244,100.35c-.79,1.15-1.56,2.31-2.33,3.47s-1.42,2.19-2,3.07a24,24,0,0,1-2.49,3.45A3.15,3.15,0,0,1,235.06,111.6Z"/><path class="cls-1" d="M258.15,111.54a3.72,3.72,0,0,1-1.69-.43,4.77,4.77,0,0,1-1.44-1.06,1.89,1.89,0,0,1-.57-1.26,8.68,8.68,0,0,1,1.28-4.19,31.09,31.09,0,0,1,3.92-5.31,96.82,96.82,0,0,1,6.85-6.92,50.79,50.79,0,0,1,5.33-4.27,7.32,7.32,0,0,1,3.48-1.58,5.15,5.15,0,0,1,3.12,1.32l.57.57h.07a.27.27,0,0,0,.19-.06,1.36,1.36,0,0,0,.19-.28l.83-1.35a1.1,1.1,0,0,0,.19-.43,1.27,1.27,0,0,1,1.28-.69,5.22,5.22,0,0,1,1.82.34,5.54,5.54,0,0,1,1.53.84c.4.32.6.62.6.89a2.59,2.59,0,0,1-.19.86l-6.63,16.07c-.43,1.11-.19,1.66.7,1.66a5.09,5.09,0,0,0,2.45-1,17.17,17.17,0,0,0,3-2.44l.25-.14.13,0a.64.64,0,0,1,.51.2.82.82,0,0,1,.19.6,3.82,3.82,0,0,1-1.11,2,20.6,20.6,0,0,1-6.92,5.16,9.29,9.29,0,0,1-3.64.92,3.9,3.9,0,0,1-1.72-.43,4.45,4.45,0,0,1-1.47-1.09,2,2,0,0,1-.57-1.29,3.37,3.37,0,0,1,.38-1.32,4.49,4.49,0,0,1,.23-.6c.14-.36.35-.82.6-1.38s.53-1.11.83-1.66.57-1.08.83-1.58c.13-.27.14-.47,0-.61s-.24-.12-.41,0a67.76,67.76,0,0,1-6.16,5.74,25.54,25.54,0,0,1-4.81,3.19A9.37,9.37,0,0,1,258.15,111.54Zm5.67-5.28c.81,0,2.05-.63,3.7-1.89a41.53,41.53,0,0,0,5.3-4.94,36.73,36.73,0,0,0,3.44-4.25,6.12,6.12,0,0,0,1.28-2.75c0-.31-.39-.75-1.15-1.32a4,4,0,0,0-1.12-.63,3,3,0,0,0-1-.23,6.35,6.35,0,0,0-2.83,1A21.77,21.77,0,0,0,268,93.69,21.22,21.22,0,0,0,265.1,97a22.83,22.83,0,0,0-2.3,3.88,8.46,8.46,0,0,0-.89,3.38,2.07,2.07,0,0,0,.51,1.47A1.84,1.84,0,0,0,263.82,106.26Z"/><path class="cls-1" d="M292,111.6a2.54,2.54,0,0,1-1.11-.34,3.37,3.37,0,0,1-1.15-1,2.23,2.23,0,0,1-.48-1.38,3.75,3.75,0,0,1,.22-.94c.15-.44.36-1,.61-1.58l6.44-14.3a1,1,0,0,0,.07-1.06,1,1,0,0,0-1-.43,7.64,7.64,0,0,0-2,.38,6.75,6.75,0,0,0-2.8,2,.83.83,0,0,1-.71.25c-.29,0-.46-.2-.51-.54a2.46,2.46,0,0,1,.32-1,8.78,8.78,0,0,1,.83-1.3,7.36,7.36,0,0,1,.9-1,16.71,16.71,0,0,1,3.15-2.15,10,10,0,0,1,4.44-1,4.12,4.12,0,0,1,2.2.57,2.6,2.6,0,0,1,1.18,1.61,3.68,3.68,0,0,1-.32,2.35l-3.64,7.87c-.13.27-.08.42.13.46a.47.47,0,0,0,.51-.29c1.66-2.41,3.27-4.56,4.85-6.46a24.72,24.72,0,0,1,4.68-4.47,8.31,8.31,0,0,1,4.82-1.64,3.91,3.91,0,0,1,4.3,3.93,7.06,7.06,0,0,1-.92,3.7l-1.34,3.22c-.17.27-.13.42.13.46a.64.64,0,0,0,.64-.29,47.69,47.69,0,0,1,4.43-5.68,21.3,21.3,0,0,1,4.62-3.9,9.12,9.12,0,0,1,4.79-1.44,3.75,3.75,0,0,1,3,1.09,4.07,4.07,0,0,1,.93,2.87,9.93,9.93,0,0,1-1,3.9l-4.78,10.39c-.56,1.27-.47,1.9.25,1.9a2.94,2.94,0,0,0,1.34-.46,19.32,19.32,0,0,0,1.72-1.09c.6-.42,1.14-.82,1.63-1.21s.84-.67,1.05-.86a4.37,4.37,0,0,0,.48-.37.62.62,0,0,1,.41-.2.53.53,0,0,1,.39.2.6.6,0,0,1,.19.43,3.66,3.66,0,0,1-.29,1.09,3.29,3.29,0,0,1-.86,1.09,26.33,26.33,0,0,1-5.8,4.62,13,13,0,0,1-6.7,1.92,3.05,3.05,0,0,1-1.28-.37,3.15,3.15,0,0,1-1.21-1,1.24,1.24,0,0,1-.13-1.32l8.23-17.22a1.45,1.45,0,0,0,.1-1.55,1.2,1.2,0,0,0-1-.58,3.55,3.55,0,0,0-2.23,1,21.17,21.17,0,0,0-3.06,3.12c-.73,1-1.64,2.21-2.75,3.74s-2.25,3.16-3.44,4.9-2.34,3.46-3.44,5.14a13.21,13.21,0,0,1-1.85,2.24,8.89,8.89,0,0,1-1.95,1.46,3.48,3.48,0,0,1-1.56.49,2,2,0,0,1-1.06-.34,3.64,3.64,0,0,1-.95-.89,1.72,1.72,0,0,1-.42-1,5.41,5.41,0,0,1,.26-1.15c.17-.57.4-1.24.7-2l6.57-14.76c.34-.72.37-1.25.1-1.57a1.21,1.21,0,0,0-.93-.49,3.87,3.87,0,0,0-2.36,1.09,23.84,23.84,0,0,0-3.44,3.5,31.36,31.36,0,0,0-2,2.58c-.72,1-1.48,2.15-2.26,3.36s-1.58,2.44-2.36,3.7l-2.2,3.56a22.62,22.62,0,0,1-2.33,3.33A2.81,2.81,0,0,1,292,111.6Z"/><path class="cls-1" d="M340.87,111.54a3.72,3.72,0,0,1-1.69-.43,4.89,4.89,0,0,1-1.44-1.06,1.89,1.89,0,0,1-.57-1.26,8.79,8.79,0,0,1,1.28-4.19,31.64,31.64,0,0,1,3.92-5.31,96.82,96.82,0,0,1,6.85-6.92,50.79,50.79,0,0,1,5.33-4.27A7.32,7.32,0,0,1,358,86.52a5.15,5.15,0,0,1,3.12,1.32l.58.57h.06a.27.27,0,0,0,.19-.06,1,1,0,0,0,.19-.28l.83-1.35a1.1,1.1,0,0,0,.19-.43,1.27,1.27,0,0,1,1.28-.69,5.22,5.22,0,0,1,1.82.34,5.54,5.54,0,0,1,1.53.84c.4.32.6.62.6.89a2.59,2.59,0,0,1-.19.86L361.6,104.6c-.43,1.11-.19,1.66.7,1.66a5.09,5.09,0,0,0,2.45-1,16.81,16.81,0,0,0,3-2.44,1.83,1.83,0,0,1,.26-.14.27.27,0,0,1,.12,0,.63.63,0,0,1,.51.2.82.82,0,0,1,.19.6,3.82,3.82,0,0,1-1.11,2,20.6,20.6,0,0,1-6.92,5.16,9.29,9.29,0,0,1-3.64.92,3.93,3.93,0,0,1-1.72-.43,4.55,4.55,0,0,1-1.47-1.09,2,2,0,0,1-.57-1.29,3.37,3.37,0,0,1,.38-1.32,4.49,4.49,0,0,1,.23-.6c.14-.36.35-.82.6-1.38s.53-1.11.83-1.66.58-1.08.83-1.58c.13-.27.14-.47,0-.61s-.24-.12-.41,0a67.76,67.76,0,0,1-6.16,5.74,25.22,25.22,0,0,1-4.81,3.19A9.34,9.34,0,0,1,340.87,111.54Zm5.68-5.28c.8,0,2-.63,3.69-1.89a41.53,41.53,0,0,0,5.3-4.94A36.73,36.73,0,0,0,359,95.18a6.12,6.12,0,0,0,1.28-2.75c0-.31-.38-.75-1.15-1.32a4,4,0,0,0-1.12-.63,3,3,0,0,0-1-.23,6.34,6.34,0,0,0-2.84,1,21.77,21.77,0,0,0-3.42,2.41,22.3,22.3,0,0,0-2.93,3.3,22.75,22.75,0,0,0-2.29,3.88,8.33,8.33,0,0,0-.9,3.38,2.07,2.07,0,0,0,.51,1.47A1.85,1.85,0,0,0,346.55,106.26Z"/><path class="cls-1" d="M376.39,111.54a3.12,3.12,0,0,1-1.65-.51,4.58,4.58,0,0,1-1.34-1.24,2.17,2.17,0,0,1-.51-1.23,3.52,3.52,0,0,1,.19-1.18c.12-.36.32-.85.57-1.46l6-14.81c.21-.5.22-.83,0-1a1,1,0,0,0-.67-.25l-2.94-.12c-.63,0-1-.17-1.18-.4a1.17,1.17,0,0,1-.22-.63c0-.08.13-.26.38-.55a4.58,4.58,0,0,1,1-.8,2.61,2.61,0,0,1,1.34-.37h2.81a1.87,1.87,0,0,0,1.18-.26,4.37,4.37,0,0,0,.73-1.06l1.73-3.1a6.84,6.84,0,0,1,1.24-1.5,9.64,9.64,0,0,1,1.69-1.26,3.22,3.22,0,0,1,1.53-.52,1,1,0,0,1,1.08.81,2.18,2.18,0,0,1-.06,1.55l-1.53,4.25c-.13.45-.11.75.06.89a1.39,1.39,0,0,0,.83.2,19.93,19.93,0,0,1,2.14.11l2.14.23a3.35,3.35,0,0,1,1.53.43.89.89,0,0,1,.25.66c0,.08-.11.24-.32.49a1.69,1.69,0,0,1-1.21.43l-2,.14c-.68.06-1.45.11-2.3.15a5.22,5.22,0,0,0-1.62.28,1.54,1.54,0,0,0-.8.81l-5,12.57a5.13,5.13,0,0,0-.38,1.61.82.82,0,0,0,.32.77,1.43,1.43,0,0,0,.76.2,3.88,3.88,0,0,0,2-.72,26.57,26.57,0,0,0,2.3-1.6,23.89,23.89,0,0,0,1.85-1.58,1.43,1.43,0,0,1,.63-.32c.17,0,.28,0,.32.15a.67.67,0,0,1,.19.54,1.7,1.7,0,0,1-.25.83,8,8,0,0,1-1.5,2,24.64,24.64,0,0,1-2.49,2.24,24.15,24.15,0,0,1-3,2.07A21,21,0,0,1,379.1,111,7.71,7.71,0,0,1,376.39,111.54Z"/><path class="cls-1" d="M400,111.54a3,3,0,0,1-2-.83,4.92,4.92,0,0,1-1.4-2,2.57,2.57,0,0,1-.07-2l6.26-13a3.69,3.69,0,0,0,.44-1.44.45.45,0,0,0-.51-.51,3.18,3.18,0,0,0-1.27.49,21.59,21.59,0,0,0-1.92,1.17,15,15,0,0,0-1.66,1.27,1.5,1.5,0,0,1-1.05.48c-.32,0-.48-.16-.48-.43a2.19,2.19,0,0,1,.26-.92,5.3,5.3,0,0,1,.76-1.09,22.57,22.57,0,0,1,3.77-3.5A18.52,18.52,0,0,1,405.11,87a9.78,9.78,0,0,1,3.6-.81,2.32,2.32,0,0,1,1.44.58,3.78,3.78,0,0,1,1.11,1.4,1.74,1.74,0,0,1,.07,1.52q-1.53,2.88-3.35,6.49T404,104a3.49,3.49,0,0,0-.48,1.72c0,.5.25.75.67.75s1.05-.39,1.88-1.15,1.78-1.74,2.84-2.93,2.15-2.41,3.25-3.67,2.11-2.4,3.13-3.65,1.93-2.41,2.74-3.5,1.43-2,1.85-2.61a13.51,13.51,0,0,1,1.56-2,2.18,2.18,0,0,1,1.57-.75,2.87,2.87,0,0,1,1.72.55A3.7,3.7,0,0,1,425.87,88a1.51,1.51,0,0,1,.06,1.4L419,104.94a3.52,3.52,0,0,0-.26,1.15.4.4,0,0,0,.45.46,4.61,4.61,0,0,0,1.95-.75,27.2,27.2,0,0,0,2.71-1.78c.93-.69,1.7-1.28,2.29-1.77.09-.12.17-.18.26-.18a.77.77,0,0,1,.76.75,2.07,2.07,0,0,1-.6,1.23,11.9,11.9,0,0,1-1.6,1.52,21.43,21.43,0,0,1-2.13,1.53,23,23,0,0,1-2.24,1.23,8.81,8.81,0,0,1-2,.69,7.1,7.1,0,0,1-2.14.89,7.88,7.88,0,0,1-2.2.2,6.51,6.51,0,0,1-2-.4,1.28,1.28,0,0,1-.6-.78,1.51,1.51,0,0,1,0-1.18c.42-.84.9-1.76,1.43-2.78s1-2,1.53-3,.93-2,1.31-2.9q.25-.51-.09-.57a.7.7,0,0,0-.67.34l-4.5,4.91q-2.14,2.33-4.05,4.07a22.85,22.85,0,0,1-3.6,2.76A6.17,6.17,0,0,1,400,111.54Z"/><path class="cls-1" d="M433.9,111.6a3.66,3.66,0,0,1-1.24-.26,3.26,3.26,0,0,1-1.25-.77,1.62,1.62,0,0,1-.51-1.15,3.5,3.5,0,0,1,.23-1.15c.15-.42.33-.94.54-1.55l6.25-14.64a1.51,1.51,0,0,0,.19-1.09c-.08-.3-.34-.45-.76-.45a4.72,4.72,0,0,0-2,.37,10.68,10.68,0,0,0-1.57.89A1,1,0,0,1,433,92a.54.54,0,0,1-.51-.52,2.6,2.6,0,0,1,.89-1.92,10.58,10.58,0,0,1,2.36-1.81,15.42,15.42,0,0,1,2.65-1.06,9.74,9.74,0,0,1,2.84-.43,3,3,0,0,1,2.48.86,3,3,0,0,1,.55,2.3,12.13,12.13,0,0,1-1,3.33l-2.62,5.62c-.13.27-.07.43.16.49s.44,0,.61-.32a71.07,71.07,0,0,1,4.62-6.45,23.42,23.42,0,0,1,4.5-4.37,7.47,7.47,0,0,1,4.27-1.57,3.71,3.71,0,0,1,2.81,1,3.31,3.31,0,0,1,.95,2.38,5.86,5.86,0,0,1-.67,2.7,6.25,6.25,0,0,1-1.65,2.12,3.1,3.1,0,0,1-1.95.81,1.11,1.11,0,0,1-1-.58,5,5,0,0,1-.54-1.66,5.33,5.33,0,0,0-.45-1.64,1.1,1.1,0,0,0-1.08-.66,3.12,3.12,0,0,0-2.07,1.12A27,27,0,0,0,446.53,95c-.34.49-.84,1.23-1.5,2.21l-2.17,3.18c-.78,1.15-1.56,2.31-2.33,3.47s-1.42,2.19-2,3.07a23.25,23.25,0,0,1-2.49,3.45A3.13,3.13,0,0,1,433.9,111.6Z"/><path class="cls-1" d="M465,127.39a29.07,29.07,0,0,1-7-.78,14.38,14.38,0,0,1-5-2.15,3.92,3.92,0,0,1-1.88-3.16,3.49,3.49,0,0,1,1.79-2.75,20,20,0,0,1,4.59-2.3q2.81-1,6-1.89c.43-.12.47-.29.13-.52a13.5,13.5,0,0,1-2.33-1.75,2.8,2.8,0,0,1-1-2A2.64,2.64,0,0,1,461.6,108a26.71,26.71,0,0,1,3.16-1.93,4.37,4.37,0,0,0,.54-.46.45.45,0,0,0,.16-.28c0-.12-.19-.27-.57-.46a8.47,8.47,0,0,1-2.17-1.29,6.11,6.11,0,0,1-1.6-2,5.82,5.82,0,0,1-.57-2.56,10.56,10.56,0,0,1,.92-4.07,15.26,15.26,0,0,1,2.68-4.16,14,14,0,0,1,4.31-3.25,12.77,12.77,0,0,1,5.74-1.26,7.6,7.6,0,0,1,2.17.29,11.14,11.14,0,0,1,1.66.63q.83.28,1.53.57a3.21,3.21,0,0,0,1.14.29,12,12,0,0,0,2.11-.2l2.13-.43a9.22,9.22,0,0,1,1.89-.23,2.08,2.08,0,0,1,.95.31,1.22,1.22,0,0,1,.58,1.18,2.84,2.84,0,0,1-.45,1.67,1.31,1.31,0,0,1-1.08.63,8.17,8.17,0,0,1-1.41-.15c-.55-.09-1.1-.18-1.65-.25a10.56,10.56,0,0,0-1.47-.12,1.39,1.39,0,0,0-.54.12c-.19.07-.25.26-.16.57a4.51,4.51,0,0,1,.16.83c0,.29,0,.59,0,.89a11,11,0,0,1-1,4.56,15,15,0,0,1-2.78,4.14,13.67,13.67,0,0,1-4.08,3,11.2,11.2,0,0,1-4.94,1.12,10.23,10.23,0,0,0-1.12.06,1.69,1.69,0,0,0-.79.23,1.49,1.49,0,0,0-.71,1.2,2,2,0,0,0,.67,1.47,11.67,11.67,0,0,0,2,1.46l2.74,1.58c1,.59,2.06,1.19,3.13,1.78s2,1.14,2.87,1.63a8.91,8.91,0,0,1,2.23,1.9,3.29,3.29,0,0,1,.76,2.07,4.56,4.56,0,0,1-1.4,3.12,13,13,0,0,1-3.7,2.7,23.35,23.35,0,0,1-5,1.87A22.68,22.68,0,0,1,465,127.39Zm2.49-2a11.09,11.09,0,0,0,3.51-.51,6.61,6.61,0,0,0,2.45-1.38,2.59,2.59,0,0,0,.93-2,2.62,2.62,0,0,0-.54-1.47,4.67,4.67,0,0,0-1.57-1.34c-.68-.46-1.57-1-2.67-1.61a25.42,25.42,0,0,0-2.68-1.32,3,3,0,0,0-1.28-.35,3.55,3.55,0,0,0-.64.06c-.21,0-.44.1-.7.17a20.05,20.05,0,0,0-5.13,2.07,3.53,3.53,0,0,0-1.82,3.1,3,3,0,0,0,1.24,2.24,9.42,9.42,0,0,0,3.54,1.66A20.38,20.38,0,0,0,467.5,125.43Zm.64-21.75a3.5,3.5,0,0,0,2.3-.89,11.19,11.19,0,0,0,2.29-2.53,27.43,27.43,0,0,0,2-3.41,24.59,24.59,0,0,0,1.4-3.53,10.23,10.23,0,0,0,.51-2.84,3,3,0,0,0-.51-1.72,1.56,1.56,0,0,0-1.34-.75,3.58,3.58,0,0,0-2.23.95,13.33,13.33,0,0,0-2.26,2.46,22.26,22.26,0,0,0-2,3.31,23.86,23.86,0,0,0-1.44,3.44,9.69,9.69,0,0,0-.54,2.93,2.86,2.86,0,0,0,.54,1.86A1.84,1.84,0,0,0,468.14,103.68Z"/><path class="cls-1" d="M484.66,127.33a5.27,5.27,0,0,1-2.78-.8,2.65,2.65,0,0,1-1.3-2.41,3.62,3.62,0,0,1,.47-1.81,4.42,4.42,0,0,1,1.28-1.41,2.76,2.76,0,0,1,1.63-.57,2.79,2.79,0,0,1,1.37.37,8.93,8.93,0,0,1,1.24.83c.47.31.94.58,1.4.83a3.35,3.35,0,0,0,1.6.38,5.91,5.91,0,0,0,4.08-2,20.74,20.74,0,0,0,3.7-5.17,19.23,19.23,0,0,0,1.82-5.65,40.75,40.75,0,0,0,.54-6.8,32.67,32.67,0,0,0-.64-7.29,11.92,11.92,0,0,0-1.47-3.91c-.55-.8-1-1.2-1.46-1.2a1.85,1.85,0,0,0-1.25.71A14.09,14.09,0,0,0,493.62,93a15.37,15.37,0,0,0-.93,1.52c-.08.16-.24.42-.47.81s-.48.57-.74.57-.25-.15-.38-.46a2.94,2.94,0,0,1-.19-1.15,6.1,6.1,0,0,1,.79-2.95,11.84,11.84,0,0,1,2-2.67,9.89,9.89,0,0,1,2.65-1.92,6.08,6.08,0,0,1,2.71-.72,3.91,3.91,0,0,1,2.87,1.06,8.47,8.47,0,0,1,1.85,3.13,37.21,37.21,0,0,1,1.56,6.28,42.31,42.31,0,0,1,.35,9.56c0,.69,0,1,.23,1s.43-.31.73-.81A30.87,30.87,0,0,0,510,97.83,44.75,44.75,0,0,0,511,87.15c0-.27.23-.57.7-.89a2.18,2.18,0,0,1,1.15-.49,2.88,2.88,0,0,1,1.27.46,5.59,5.59,0,0,1,1.5,1.21,2.4,2.4,0,0,1,.67,1.66,21,21,0,0,1-2.14,8.35,56.28,56.28,0,0,1-6,10.13,96.62,96.62,0,0,1-9.06,10.62,56.66,56.66,0,0,1-5,4.57,30.62,30.62,0,0,1-5,3.32A9.6,9.6,0,0,1,484.66,127.33Z"/><path class="cls-1" d="M526.51,100.64a1.47,1.47,0,0,1-1-.46,4.83,4.83,0,0,1-.95-1.26c-.26-.62-.54-1.31-.83-2.1a8.34,8.34,0,0,1-.45-3,3.91,3.91,0,0,1,1.82-3.18,26.81,26.81,0,0,1,5.26-2.84,10.2,10.2,0,0,0,2.93-1.78,3.2,3.2,0,0,0,1.15-2.47,4,4,0,0,0-1.5-3.33A6.24,6.24,0,0,0,529.12,79a5.85,5.85,0,0,0-1.65.17l-1,.29c-.26.07-.53.14-.83.2a6.62,6.62,0,0,1-1.08.08A2.45,2.45,0,0,1,523,79a5.53,5.53,0,0,1-1.28-1.73,4.44,4.44,0,0,1-.47-1.92,2.24,2.24,0,0,1,1.14-1.78,4.51,4.51,0,0,1,2.62-.8,10.57,10.57,0,0,1,4.43,1,15.26,15.26,0,0,1,4.11,2.79,17,17,0,0,1,2.75,3.27,17.93,17.93,0,0,1,1.81,3.61,10.06,10.06,0,0,1,.67,3.45,5.66,5.66,0,0,1-1,3.5,5.74,5.74,0,0,1-2,1.78c-.73.34-1.39.67-2,1s-1.18.61-1.75.91l-1.95,1a3.51,3.51,0,0,0-1.75,1.66,9.47,9.47,0,0,0-.61,2.53,1.8,1.8,0,0,1-.35.94A1,1,0,0,1,526.51,100.64Zm.25,10.9a4.51,4.51,0,0,1-3.12-1.14,3.61,3.61,0,0,1-1.28-2.76,3.54,3.54,0,0,1,1.28-2.78,4.54,4.54,0,0,1,3.12-1.12,4.46,4.46,0,0,1,3.06,1.12,3.51,3.51,0,0,1,1.28,2.78,3.57,3.57,0,0,1-1.28,2.76A4.43,4.43,0,0,1,526.76,111.54Z"/></svg>