<svg id="レイヤー_1" data-name="レイヤー 1" xmlns="http://www.w3.org/2000/svg" viewBox="0 0 480.59 124.91"><defs><style>.cls-1{isolation:isolate;}.cls-2{fill:#fff;}</style></defs><g class="cls-1"><path class="cls-2" d="M31.19,24.81c.51-1.15,1.15-2.49,1.66-3.7.57-1.47,1-2.8,1.34-3.95a5.67,5.67,0,0,0,.12-.83c0-.19-.25-.38-.63-.38-.19,0-1.66.12-2.68.25s-2.55.26-3.25.32c-1.15.13-2.11.19-2.81.25-.38.58-1.21,1.34-2,2.24a62.15,62.15,0,0,1-4.46,4.46,39.44,39.44,0,0,1-7.85,5A27.78,27.78,0,0,1,8,29.66c-.9.32-1.28.45-1.73.57a2.52,2.52,0,0,1-.63.13.17.17,0,0,1-.19-.19c0-.13.12-.26.51-.51a33.88,33.88,0,0,0,3.31-2.49,30.81,30.81,0,0,0,3.25-3.32,44.48,44.48,0,0,0,5.11-7c.89-1.6,1.72-3.45,2.49-5.23a19.18,19.18,0,0,0,1.59-5.55,1.38,1.38,0,0,0-.57-1.15A9.87,9.87,0,0,0,20,4.27c-.38-.19-.44-.25-.44-.38s.83-.64,1.72-.89A8.45,8.45,0,0,1,23,2.74a9.53,9.53,0,0,1,4.59,1.72c1.6,1,3,2.3,3,3.19a2.71,2.71,0,0,1-1.08,2.11,4.81,4.81,0,0,0-.51.76c-.32.51-.58,1-.77,1.28-.64,1.08-1,1.72-1.47,2.36,1.15-.06,2-.19,3.26-.32,1.08-.13,2.23-.32,2.48-.38a4,4,0,0,0,2.36-1c2.24-1.78,2.43-2,3.13-2s2.81,1.53,4.53,3.38c1.34,1.47,1.85,2.36,1.85,3.19s-.64,1.47-2.3,1.79A88.48,88.48,0,0,1,36,30.3c3.77,2.87,5.17,5,5.17,7.71a3.84,3.84,0,0,1-3.89,4c-1.79,0-2.49-.7-4.4-3.51-.45-.64-1.21-1.66-1.6-2.1-.7.7-2.48,2.42-3.44,3.18a43.93,43.93,0,0,1-12.06,7.08,44.81,44.81,0,0,1-8.86,2.56c-1.47.25-3.64.51-4.91.7A14.67,14.67,0,0,1,.51,50C.19,50,0,49.88,0,49.62s.13-.19.89-.38c1.28-.32,2.36-.64,3.51-1a41.72,41.72,0,0,0,4.15-1.66,39.71,39.71,0,0,0,7-4.08,48.78,48.78,0,0,0,11-10.65,35.34,35.34,0,0,0-4-3.51,25.19,25.19,0,0,0-4.2-2.62c-.13-.06-.26-.19-.26-.31s.19-.2.7-.2a26.85,26.85,0,0,1,5.49.51,29.37,29.37,0,0,1,5.55,1.73C30.1,26.85,30.74,25.7,31.19,24.81ZM48.73,9.63a2.18,2.18,0,0,1-2.23,2.23A2.41,2.41,0,0,1,44.58,11a5.61,5.61,0,0,1-.76-1.72,10.15,10.15,0,0,0-3.89-4.79c-.26-.12-.39-.19-.39-.38s.2-.32.58-.32C44.52,3.76,48.73,6.63,48.73,9.63Zm1.59-3.76a12.29,12.29,0,0,0-5.55-4.4c-.57-.26-.7-.32-.7-.51s.83-.51,2.3-.51a14.19,14.19,0,0,1,6.7,1.85A3.39,3.39,0,0,1,55,5.36a2.24,2.24,0,0,1-2.17,2.36C51.73,7.72,51.22,7.33,50.32,5.87Z"/><path class="cls-2" d="M69.65,16.52a4.43,4.43,0,0,1-4.53,4.53,6.36,6.36,0,0,1-1.91-.38c-.45-.13-.39-.26-1-1.41C60.78,16.71,56.51,13,54,12.05c-.32-.12-.45-.25-.45-.38s.7-.38,1.66-.57a29,29,0,0,1,5-.45C65.76,10.65,69.65,13.08,69.65,16.52ZM65.18,44.39a4.77,4.77,0,0,1-2.48,1.09,5.23,5.23,0,0,1-3-1.22A21.93,21.93,0,0,1,56.25,41c-1.46-1.59-2.16-2.87-2.16-3.89,0-1.72,1.08-3.76,2.23-4.08.57,2,1.91,2.87,4.53,2.87a45.68,45.68,0,0,0,7.84-2.36A131.8,131.8,0,0,0,90.12,21.43a65.4,65.4,0,0,0,5.81-4.85c1.08-.95,1.21-1.08,1.4-1.08a.36.36,0,0,1,.38.32,1.24,1.24,0,0,1-.19.51,58.33,58.33,0,0,1-5.8,7.91,67.28,67.28,0,0,1-10,9.25A123.19,123.19,0,0,1,66,43.82C66,43.88,65.38,44.26,65.18,44.39Z"/><path class="cls-2" d="M125.46,8.74c.76-.77,1.21-1.15,1.85-1.15,1,0,3.06,1.34,5.74,3.51,1.4,1.21,2,2,2,2.87s-.58,1.27-3.07,1.91c-.38.7-.51.89-1.08,2.11A89,89,0,0,1,123.74,30c5.86.83,10.46,2.68,13.39,5a9.24,9.24,0,0,1,3.7,7.08c0,3.13-2,5.23-5,5.23-2.36,0-3.63-1-4.08-3.32-.83-4.72-4.65-10.27-8.8-13.07a35.85,35.85,0,0,1-17.35,12.44,65.45,65.45,0,0,1-9.44,2.42,33.92,33.92,0,0,1-3.63.38c-.26,0-.45-.13-.45-.32s.06-.32.51-.44a41.13,41.13,0,0,0,5.61-1.85A37.89,37.89,0,0,0,104,40.76,41,41,0,0,0,117.8,26.53a76.56,76.56,0,0,0,3.64-7,33.32,33.32,0,0,0,1.59-4,3,3,0,0,0,.13-.77c0-.25-.25-.38-.64-.38A42.13,42.13,0,0,0,115,16.07a48,48,0,0,0-4.85,1.53c-.83.32-1.4.64-2.55,1.15a3,3,0,0,1-1.34.26,6.28,6.28,0,0,1-3.51-1.66c-1.27-1.09-2.23-2.36-2.23-3.32a3,3,0,0,1,2-3.06c1.34,1.66,2.1,2.11,4.08,2.11a85.42,85.42,0,0,0,13.07-1.79c2.94-.57,4.34-1.08,4.85-1.59Z"/><path class="cls-2" d="M156.65,20.09a37.93,37.93,0,0,1,6.69.51c5.3,1,8.61,3.76,8.61,7.21a4.13,4.13,0,0,1-4.08,4.34,4,4,0,0,1-2.49-.77c-.57-.45-.7-.7-2.29-3.38-2.23-3.76-4.27-5.93-7.21-7.33.32,16.07.58,21.94.7,26.66a3.73,3.73,0,0,1-3.44,4c-1,0-1.92-.63-2.94-2.23a10.11,10.11,0,0,1-1.72-4.53c0-.32,0-.38.39-1.46.76-2.36.95-7.47.95-26.47,0-4.85-.19-7.66-.7-9.44a2.53,2.53,0,0,0-2.17-2c-.32,0-.45-.13-.45-.26a6.19,6.19,0,0,1,1.6-1.85,4,4,0,0,1,2.74-1.21,9.21,9.21,0,0,1,4.47,1.53c1.65,1,2.93,2.42,2.93,3.45,0,.5-.13.63-1.21,1.78-.51.51-.77,1.53-1,4.72-.06,1.66-.13,3.83-.19,6.76Zm17.09-8.42a2.41,2.41,0,0,1-2-.95c-.32-.45-.38-.64-.57-2a10,10,0,0,0-3.06-5.3c-.26-.19-.39-.32-.39-.44a.3.3,0,0,1,.32-.26,12.54,12.54,0,0,1,4.6,1.79c1.91,1.21,3.25,3.12,3.25,4.72A2.18,2.18,0,0,1,173.74,11.67Zm4.15-5.42A13.3,13.3,0,0,0,173.17.89c-.51-.25-.64-.38-.64-.64s.25-.25.57-.25a12.21,12.21,0,0,1,3.77.64c3.76,1.15,5.74,2.93,5.74,5.1a2.34,2.34,0,0,1-2.24,2.62C179.16,8.36,178.59,7.85,177.89,6.25Z"/><path class="cls-2" d="M186.24,20.28a129.77,129.77,0,0,0,15.12-2.17c3.25-.63,5-1.21,5.67-1.78,1-.83,1-.89,1.34-.89,1,0,2.62.82,4.28,2,2.8,2,3.95,3.32,3.95,4.4,0,.9-.51,1.28-1.85,1.6-1.34,4.4-3.83,11.29-7.65,16.45s-10.27,9.19-19.78,12.19a25.13,25.13,0,0,1-4.78,1c-.19,0-.32-.07-.32-.19s.07-.13.38-.26a29.12,29.12,0,0,0,8.74-4.85,34.83,34.83,0,0,0,10.78-13.46A41.2,41.2,0,0,0,206,21.56c-.38,0-1.91.06-2.93.13a24,24,0,0,0-3.25.51c-2.49.57-5.3,1.08-7.28,1.72A9.37,9.37,0,0,0,189,25.51a2,2,0,0,1-1.21.45,10.59,10.59,0,0,1-5.29-2.23c-1.21-1-1.66-1.6-1.66-2.49a2,2,0,0,1,1.27-2.11C182.92,19.9,184.2,20.28,186.24,20.28ZM184.65,5.87a6.87,6.87,0,0,1,.95.13,8.45,8.45,0,0,0,2,.25A37.41,37.41,0,0,0,196.38,5a31.31,31.31,0,0,0,6.12-2.17,4.44,4.44,0,0,1,1.92-.58,18.87,18.87,0,0,1,4.33,1.15c2.24.83,3.45,2,3.45,3.51,0,1.27-.7,1.91-2.68,2.55a46,46,0,0,1-10.4,1.47,27.73,27.73,0,0,1-7.39-1.09,23.62,23.62,0,0,1-5.94-2.42c-.44-.26-.83-.45-1.08-.64s-.51-.45-.51-.57S184.39,5.87,184.65,5.87Z"/><path class="cls-2" d="M252.7,39a5,5,0,0,1-5,5.23c-1.21,0-2-.57-2.93-2.3a39,39,0,0,0-5-6.82,23.87,23.87,0,0,0-4-3.51c-.83-.57-1.66-1-2.55-1.59-.2-.13-.26-.19-.26-.32s.19-.32.64-.32a40.36,40.36,0,0,1,14,2.93c3.82-5.93,7-12,7-13.52,0-.32-.32-.44-1-.44A81.93,81.93,0,0,0,245,19.45c-7.27,1.28-10.84,2-14.92,3.64a6.47,6.47,0,0,0-1.28.76c-.57.45-.76.51-1.15.51a7.63,7.63,0,0,1-4.52-2c-1.28-1.14-2.3-2.48-2.3-3.7a4.6,4.6,0,0,1,1-2.29c.25-.38.51-.58.7-.58s.19.07.38.32a4.43,4.43,0,0,0,1.22,1,3.84,3.84,0,0,0,1.78.57c1.09,0,2.87-.25,5-.38,5-.32,10-1.08,15.3-1.59,6.32-.64,7.15-.77,8.3-1.28,2.55-2.23,2.93-2.61,3.82-2.61,1.28,0,2.81.83,5.93,3.44,2.62,2.17,3.51,3.38,3.51,4.85,0,1.72-.7,2.23-4.53,3A144.61,144.61,0,0,1,249.7,33.61,6.83,6.83,0,0,1,252.7,39Z"/><path class="cls-2" d="M281.66,20a39.24,39.24,0,0,1,6.69.45c5.3,1,8.61,3.76,8.61,7.27A4.13,4.13,0,0,1,292.82,32a4.46,4.46,0,0,1-2.36-.64c-.58-.39-.7-.51-2.36-3.45-2.17-3.82-4.34-6-7.21-7.33.06,3.89.13,7.27.19,10.27.19,7.65.38,12.11.51,16.39a3.83,3.83,0,0,1-3.44,4c-1,0-1.85-.7-2.94-2.24a10.66,10.66,0,0,1-1.72-4.52,3.6,3.6,0,0,1,.32-1.47c.57-1.79.83-5.17,1-14.8,0-3.19.06-7,.06-11.73,0-4.53-.19-7.4-.7-9.13C273.68,5.8,273,5.17,272,5c-.32-.06-.45-.13-.45-.26a5.51,5.51,0,0,1,1.6-1.91,4.09,4.09,0,0,1,2.74-1.15,9.33,9.33,0,0,1,4.59,1.66c1.6,1,2.75,2.36,2.75,3.25,0,.51-.07.7-1.15,1.85-.7.83-1,2.75-1.15,11.48Z"/><path class="cls-2" d="M327.26,21.18c1.34-1.09,2-1.79,2.81-1.79s2.87,1.66,4.65,3.7a3.64,3.64,0,0,1,1.09,2.42c0,.9-.45,1.34-2.05,1.79A8.17,8.17,0,0,0,333,29c-3.38,8.93-9.25,15.82-16.33,19.45-3.44,1.73-8.55,3.19-11.35,3.19-.26,0-.45-.12-.45-.32s.13-.31.7-.44A31.81,31.81,0,0,0,315.84,45a35.22,35.22,0,0,0,10-15,20.88,20.88,0,0,0,1.34-5.16c0-.52-.57-.71-2.1-.71a93.34,93.34,0,0,0-12.95,1.15c-.83.13-1.15.26-1.47.26a1.69,1.69,0,0,1-.95-.32,38.33,38.33,0,0,1,.57,6.12c0,2.55-1.28,4.34-2.94,4.34a3.27,3.27,0,0,1-2.61-2.11c-.32-.89-.38-1.4-.51-4.4a17,17,0,0,0-1.08-6.31,3.46,3.46,0,0,0-1.41-1.79c-.44-.32-.44-.44-.44-.64a.5.5,0,0,1,.51-.51c1.34,0,5.54,1.6,7.14,2.75A63.9,63.9,0,0,0,316,22.2a37.4,37.4,0,0,0-.7-7.08c-.19-.7-.7-1.09-1.66-1.41-.51-.19-.76-.32-.76-.44,0-.64,2.55-1.66,3.95-1.66,2.87,0,6.32,2,6.32,3.63,0,.64-.13,1-1,1.6-.32,1.34-1,4.08-1.34,5C323.43,21.56,326.24,21.3,327.26,21.18Z"/><path class="cls-2" d="M351.62,28.38c-1.66,5.68-4.08,9.7-8,12.76a30,30,0,0,1-10.4,5.42,11.14,11.14,0,0,1-2.17.45c-.12,0-.31,0-.31-.13s.12-.26.51-.38A14.65,14.65,0,0,0,334,45a26.22,26.22,0,0,0,3.82-3.26,30,30,0,0,0,5.49-8.61,28.82,28.82,0,0,0,2.55-11.67,6,6,0,0,0-.32-2.23,6.64,6.64,0,0,0-1.28-.89,5.54,5.54,0,0,0-1.72-.45c-.19,0-.32-.07-.32-.19s.77-.9,1.73-1.6a9.08,9.08,0,0,1,2.87-1.53,6.53,6.53,0,0,1,2.48.77,19,19,0,0,1,3.7,2.42c1.28,1,1.79,1.53,1.79,2.17,0,.38-.38.83-1.09,1.28C353.34,22.45,352.77,24.3,351.62,28.38Zm13.08-2.23c0,.64-.07,1.28-.07,1.91,0,.9.07,1.85.13,2.68a1.48,1.48,0,0,0,.9.26c2.55,0,8.16-2.81,12.37-6.25a47.37,47.37,0,0,0,8.86-9.19c.71-1,.9-1.14,1.09-1.14s.13.06.13.19a9.77,9.77,0,0,1-.77,2.16,53.79,53.79,0,0,1-3.63,6.89A49,49,0,0,1,378,30.49a58.27,58.27,0,0,1-11.23,8.67c-1.53,1.15-1.91,1.6-2.61,1.6-.9,0-1.92-.58-3.19-1.79a25.23,25.23,0,0,1-2.36-2.68,4.23,4.23,0,0,1-1.15-2.36,1.22,1.22,0,0,1,1-1.27c.32-2.55.58-7,.58-9.12,0-2.68-.07-4.85-.2-6.38a6.9,6.9,0,0,0-.38-2.49,3.54,3.54,0,0,0-2.36-1.47c-.57-.12-.64-.19-.64-.32,0-.38.58-.89,1.28-1.53a5.8,5.8,0,0,1,2.74-1.46c1,0,2.81.76,5,2.23,1.79,1.15,2.36,1.91,2.36,2.93,0,.83-.45,1.41-1.66,2C365,19.71,364.76,23.92,364.7,26.15Z"/><path class="cls-2" d="M417.06,12.76c1.28-1.09,2-1.41,2.94-1.41s2.42.77,4.21,2.3,2.74,3,2.74,4.14c0,1-.7,1.54-2.62,1.92a4.31,4.31,0,0,0-.76.19,120.52,120.52,0,0,1-11.48,15.69,45.19,45.19,0,0,1-21.5,13.91c-1.47.44-3.51.82-5.23,1.14a22.41,22.41,0,0,1-3.63.51c-.26,0-.45-.12-.45-.32s.13-.25,1.79-.76a35.43,35.43,0,0,0,9.56-4.66,56.06,56.06,0,0,0,12.25-11.16c5.17-6.31,10.14-14.67,10.14-17,0-.2-.25-.32-.64-.32-.89,0-2.87.12-4.08.19l-2,.06c-.44,0-.7-.06-1.21-.76C402,23,397.48,26.79,391.68,29.08a30.75,30.75,0,0,1-4.47,1.54,6.39,6.39,0,0,1-1.4.25.28.28,0,0,1-.26-.25c0-.2.13-.32.83-.77a32.69,32.69,0,0,0,5.42-4.46,68.17,68.17,0,0,0,6.32-7.6c3-4.2,5.93-9.82,5.93-11.41,0-.51-.45-.83-1.34-1.34a6.11,6.11,0,0,0-1.4-.51c-.26-.07-.32-.13-.32-.26,0-.32.89-.83,1.91-1.21a9.82,9.82,0,0,1,3-.64c1.28,0,3.32,1,5,2.17,1.53,1.15,2.87,2.36,2.87,3.13s-.26,1-1.91,1.59c-2.24,3.45-2.36,3.64-3.32,5h.89a29.52,29.52,0,0,0,6.64-.7Z"/><path class="cls-2" d="M476.83,36.8a29.56,29.56,0,0,1-5.94,5,41.56,41.56,0,0,1-9.18,4.53,92.82,92.82,0,0,1-9.12,2.61,30.51,30.51,0,0,1-5.42.89c-.26,0-.51-.12-.51-.31s.31-.32.63-.39a16.83,16.83,0,0,0,1.66-.64c1.66-.7,3.7-1.59,5.62-2.61a59.16,59.16,0,0,0,9.75-6.57c5.81-5,8.55-9.7,8.55-14.73,0-8.42-7.72-14.42-18.69-14.42A24.61,24.61,0,0,0,440.53,14c-4.33,2.81-6.12,5.61-6.12,9.63,0,4.47,2.23,9.63,4.21,9.63.51,0,1.08-.25,2.1-1.14a84.27,84.27,0,0,0,5.94-6.06c5-5.68,7.59-9.89,7.59-12.44a2.82,2.82,0,0,0-.83-2.23c-.13-.13-.19-.13-.19-.26a.28.28,0,0,1,.31-.25,8.75,8.75,0,0,1,2.56.95c2.16,1.22,3.69,3.26,3.69,5.23,0,1.79-2.42,5-3.44,6.32-1.47,1.85-3.06,3.76-5.36,6.18-1.53,1.66-4.65,4.79-6.44,6.32-1.59,1.4-2.42,2.1-3.19,2.74-1.91,1.92-3,2.23-4.08,2.23a4.53,4.53,0,0,1-2.55-.89c-2.49-2-4.15-6.82-4.15-12.63a17.9,17.9,0,0,1,4.15-11.73c4.34-5,12.95-8.42,21.56-8.42a26.88,26.88,0,0,1,16.9,5.55c5,4,7.4,8.48,7.4,13.71A15.23,15.23,0,0,1,476.83,36.8Z"/><path class="cls-2" d="M235.42,76.63c1.84-2.35,2.35-2.87,3.16-2.87s1.61.35,4.19,2.35c1.78,1.38,2.47,2.13,2.47,2.93,0,.63-.58.86-1.55,1.49.06.64.06,1.44.06,2.24,0,1.27-.06,2.76-.12,4.25-.23,4-1.09,6.66-2.58,8.55a8.42,8.42,0,0,1-6.66,3.16c-1.09,0-1.55-.17-1.9-.8-.11-.23-.4-.81-.63-1.38a8.51,8.51,0,0,0-3.61-3.67c-.58-.35-.69-.46-.69-.63s.11-.23.34-.23a6.14,6.14,0,0,1,.81.11,22,22,0,0,0,3.09.23c2.47,0,3.51-1.49,4.14-3.62a23.79,23.79,0,0,0,.63-4.19c.06-.63.06-1.26.06-2a27.42,27.42,0,0,0-.17-3.21c-.12-1-.24-1.32-1.1-1.32H230c.57.34.74.51.74.8s-.11.46-.57.75l-.52.34c-.4,6-2.35,10.22-5.85,13.83a28.86,28.86,0,0,1-6.09,4.6,5.37,5.37,0,0,1,.18,1.37,3.41,3.41,0,0,1-3.51,3.74,2.44,2.44,0,0,1-2.29-1.21c-.17-.29-.29-.57-.35-2.41-.05-.75-.11-1.26-.17-1.61-1.38.35-2.24.58-2.7.75.06,1.49.06,2.7.06,3.61,0,3.05,0,6.15.06,9.19l.17,10.1c0,1.09-.17,1.61-.69,2a7.93,7.93,0,0,1-3.79,1c-1.72,0-2.29-.35-2.29-1.44,0-1.83.23-6.43.34-9.64.12-2,.17-3.91.23-5.86.06-2.12.06-4.59.12-7.8-.92.17-4.6,1-5.86,1.37a5.88,5.88,0,0,1-2.18.64.81.81,0,0,1-.86-.69,56.85,56.85,0,0,1-.86-6c3.67.34,3.84.34,9.07.63a101.51,101.51,0,0,0,7.8-15c4.77,2.41,6.49,3.44,6.49,4.59,0,.69-.63,1.32-2.24,1.67a107.08,107.08,0,0,1-9.07,8.89l5.68.23a7.36,7.36,0,0,0-1.32-2.41c-.23-.29-.28-.4-.28-.51s.11-.18.34-.18a11.61,11.61,0,0,1,7.35,3.79c3.44-3.61,5-8.32,5-15.44,0-.75,0-1.49,0-2.3a12.84,12.84,0,0,0-.06-1.37h-2.58c-1.38,0-2.76.05-4.14.17-1.09-1.15-1.15-1.26-1.15-1.38a.41.41,0,0,1,.46-.4c1.32.11,3,.17,3.79.17ZM201.32,107c-.11,1.6-.28,2.81-.46,3.9a18.85,18.85,0,0,1-1.49,5,21.52,21.52,0,0,1-4.65,6.09,2.58,2.58,0,0,1-1.15.69c-.11,0-.17-.06-.17-.18a.8.8,0,0,1,.17-.4c1.5-2.18,1.9-6.94,2.07-13.43v-1.15c0-1-.06-1.95-.11-3.56l1.14.17c4.54.87,5.51,1.15,5.51,1.84C202.18,106.37,202,106.6,201.32,107Zm7.18-28.82c-1.9,2.41-3.79,4.71-6.26,7.35,1.49,1.38,2.07,2.52,2.07,3.85a3.68,3.68,0,0,1-3.73,3.67,3,3,0,0,1-2.3-.92,6.17,6.17,0,0,1-.8-2.47,11.43,11.43,0,0,0-2.76-5.8c-.28-.28-.46-.51-.46-.63a.27.27,0,0,1,.29-.23,17.42,17.42,0,0,1,4.71,1,100.94,100.94,0,0,0,2.47-11.6,56,56,0,0,1,7.4,2.13c1.38.51,1.61,1.2,1.61,1.83C210.74,77.15,210.22,77.61,208.5,78.18Zm6,38.23a3.15,3.15,0,0,1-2.87-1.49,3.74,3.74,0,0,1-.29-1.44c0-.34.12-2,.12-2.87a10.68,10.68,0,0,0-.69-3.61,5.45,5.45,0,0,0-.75-1.32c-.29-.35-.29-.4-.29-.52s.12-.17.23-.17a8.36,8.36,0,0,1,3.62,1.38c2.47,1.49,4,3.84,4,6.08S216,116.41,214.47,116.41Zm20.55-14c.57-.69,1-1.15,1.26-1.5.75-.86,1.26-1.26,1.84-1.26.75,0,1.89.63,4.08,2.18,1.66,1.15,2.23,1.72,2.23,2.41a1.21,1.21,0,0,1-.4.81c-.11.11-.34.28-.69.57l-.4.34c.12,3.85.29,9,.58,13.38,0,.46,0,1,0,1.55,0,1.43-.17,2-.8,2.53a7.08,7.08,0,0,1-4.36,1.37h-.29c-2.07-.05-2.58-.51-2.58-3.9H225.38v.69c0,1.15-.12,1.61-.75,2.06a6.64,6.64,0,0,1-3.79.92c-1.66,0-2.18-.46-2.18-1.89,0-.8.06-2.35.23-7,.06-.87.06-2.76.11-5.51l.06-3.74c0-1.6.06-3.33.06-5,0-1,.06-1.15.52-1.15a37.9,37.9,0,0,1,3.9.92,6.86,6.86,0,0,1,2.81,1.27Zm.52,2.52c0-1-.29-1.26-.87-1.26h-8.26c-.58,0-.92.69-.92,2-.06,4.76-.11,6.31-.11,8.21v5.74h10.16Z"/><path class="cls-2" d="M299.88,94.66a16.07,16.07,0,0,0-5.1,5.74c-.46,1-.69,1.14-1.56,1.14-2,0-4.76-1.49-7.86-4.24.23,9.18.52,18.6.52,23.88,0,1.66-.46,2.29-2.07,2.92a10.78,10.78,0,0,1-3.67.69c-2.07,0-2.47-.46-2.47-2.81,0-.4,0-1.09.11-6.89.06-2.52.12-8.84.12-11.13,0-4.48,0-8.84-.12-10.74,0-.52.12-.63.46-.63a17.23,17.23,0,0,1,3.45.63,23.31,23.31,0,0,1-4.19-7.4,59.11,59.11,0,0,1-2.13-8.44,6.06,6.06,0,0,0-.74,1.26,54,54,0,0,1-10.85,13.55c6,.86,8,1.6,8,2.93,0,.51-.12.91-1.61,1.77-.06,1.1-.06,1.32-.06,2.24-.06,10.57-.86,13.9-4,17.4-2.92,3.21-7.52,5.62-13.37,7a31.71,31.71,0,0,1-4.65.8c-.35,0-.58-.11-.58-.34,0-.4.06-.46,2.07-1a23.8,23.8,0,0,0,6.66-3.38c3.67-2.87,5.68-6.72,6.08-12.06.18-2,.23-4.65.23-7.69,0-2.58-.05-4.59-.11-6.49a46.49,46.49,0,0,1-14,7.69l-1.09.35a4.55,4.55,0,0,1-1.09.23.27.27,0,0,1-.29-.23c0-.17.12-.29.52-.52,2.87-1.37,7.06-4.93,10-8.44a66.1,66.1,0,0,0,8.44-14.12c.8-1.83,1.43-3.5,2.64-6.89a45.45,45.45,0,0,1,9.3,2.47,1.89,1.89,0,0,1,1.09,1.55c0,.69-.4,1.09-1.9,1.61,3.45,7.06,12.69,13.43,23.77,16.48.52.17.75.28.75.45S300.29,94.43,299.88,94.66Z"/></g></svg>