<svg id="レイヤー_1" data-name="レイヤー 1" xmlns="http://www.w3.org/2000/svg" viewBox="0 0 555.71 100.65"><defs><style>.cls-1{fill:#fff;}</style></defs><path class="cls-1" d="M196.38,36c0-4.24-4.08-7.7-10.6-8.87a46.24,46.24,0,0,0-8.24-.63h-.95c.08-3.62.16-6.29.24-8.33.23-3.93.55-5.18,1.18-5.81,1.33-1.41,1.49-1.57,1.49-2.2,0-1.26-1.57-3-3.61-4.24A11.25,11.25,0,0,0,170.39,4,4.94,4.94,0,0,0,167,5.5a7.29,7.29,0,0,0-2,2.28c0,.15.16.31.55.31a3.12,3.12,0,0,1,2.67,2.51c.63,2.2.86,5.66.86,11.63,0,23.4-.23,29.68-1.18,32.59-.47,1.33-.47,1.41-.47,1.8a12.5,12.5,0,0,0,2.12,5.58c1.26,2,2.44,2.75,3.62,2.75,2.35,0,4.32-2.28,4.24-5-.16-5.81-.47-13-.87-32.83,3.62,1.73,6.13,4.4,8.88,9,2,3.3,2.12,3.62,2.83,4.17a4.87,4.87,0,0,0,3.06.94A5.08,5.08,0,0,0,196.38,36ZM55.1,3.53A15.26,15.26,0,0,1,61.93,9c1.1,1.81,1.73,2.28,3.06,2.28a2.76,2.76,0,0,0,2.67-2.91,4.2,4.2,0,0,0-2.35-3.77,17.49,17.49,0,0,0-8.25-2.27c-1.8,0-2.82.23-2.82.63C54.24,3.14,54.39,3.22,55.1,3.53ZM233.63,50.81c4.71-6.36,7.77-14.84,9.42-20.26,1.65-.39,2.28-.86,2.28-2,0-1.34-1.41-3-4.87-5.42-2-1.41-4.08-2.44-5.26-2.44-.39,0-.47.08-1.65,1.1-.79.71-3,1.42-7,2.2C219,25.45,210.62,26.7,208,26.7c-2.52,0-4.09-.47-5.11-1.41a2.46,2.46,0,0,0-1.57,2.59c0,1.1.55,1.81,2,3.06,2,1.57,4.87,2.75,6.52,2.75a2.53,2.53,0,0,0,1.49-.55c1.34-1,2.12-1.25,4.4-2,2.44-.79,5.89-1.41,8.95-2.12a31.22,31.22,0,0,1,4-.63c1.26-.08,3.14-.16,3.61-.16A50.87,50.87,0,0,1,227.5,44a42.92,42.92,0,0,1-13.27,16.57,35.85,35.85,0,0,1-10.76,6c-.39.16-.47.16-.47.31s.15.24.39.24a30.42,30.42,0,0,0,5.89-1.26C221,62.12,228.84,57.25,233.63,50.81ZM60,13.59c0-3.69-5.19-7.23-10.6-7.23-.48,0-.71.16-.71.39s.16.32.47.47a12.41,12.41,0,0,1,4.79,5.9,7,7,0,0,0,.94,2.12,3,3,0,0,0,2.36,1.1A2.69,2.69,0,0,0,60,13.59Zm146.09-3.54a15,15,0,0,0,1.34.79,29,29,0,0,0,7.3,3,33.83,33.83,0,0,0,9.11,1.34,56.64,56.64,0,0,0,12.8-1.81c2.44-.78,3.3-1.57,3.3-3.14,0-1.81-1.49-3.3-4.24-4.32a23.2,23.2,0,0,0-5.34-1.41,5.55,5.55,0,0,0-2.36.7,36.66,36.66,0,0,1-7.54,2.67,45.63,45.63,0,0,1-10.84,1.57,10,10,0,0,1-2.43-.31A9.56,9.56,0,0,0,206,9c-.31,0-.55.16-.55.4S205.67,9.74,206.06,10.05ZM400.28,75.7a4.1,4.1,0,0,1,.29,1.15,3.65,3.65,0,0,0,.34,1.17.68.68,0,0,0,.62.4,1.85,1.85,0,0,0,1.23-.57,4.32,4.32,0,0,0,1.05-1.49,4.48,4.48,0,0,0,.42-1.89,2.48,2.48,0,0,0-.6-1.67,2.23,2.23,0,0,0-1.77-.71,4.46,4.46,0,0,0-2.71,1.11,15.84,15.84,0,0,0-2.84,3.06,51.52,51.52,0,0,0-2.92,4.54c-.11.19-.23.26-.38.22s-.18-.16-.1-.34l1.65-4a8.69,8.69,0,0,0,.62-2.34,2.22,2.22,0,0,0-.34-1.61,1.8,1.8,0,0,0-1.57-.61,5.65,5.65,0,0,0-1.79.3,9.93,9.93,0,0,0-1.68.75,6.93,6.93,0,0,0-1.49,1.27,1.92,1.92,0,0,0-.56,1.35c0,.22.13.34.32.36a.57.57,0,0,0,.48-.12,7.67,7.67,0,0,1,1-.62,2.69,2.69,0,0,1,1.27-.26.44.44,0,0,1,.49.32,1.21,1.21,0,0,1-.12.76l-3.95,10.28c-.14.43-.25.79-.35,1.09a2.75,2.75,0,0,0-.14.8,1.2,1.2,0,0,0,.32.81,2.45,2.45,0,0,0,1.58.73A2,2,0,0,0,390,89.1a17.33,17.33,0,0,0,1.57-2.42c.35-.62.76-1.33,1.25-2.15s1-1.64,1.47-2.44l1.37-2.24.95-1.55A18.66,18.66,0,0,1,398.29,76a1.9,1.9,0,0,1,1.31-.78A.69.69,0,0,1,400.28,75.7Zm-11.14-52a6.89,6.89,0,0,1,2.12.55,8.11,8.11,0,0,1,1.57,1.1,7.34,7.34,0,0,1,.39,2.75,35.47,35.47,0,0,1-3.14,14.37,37.17,37.17,0,0,1-6.75,10.6,32,32,0,0,1-4.72,4A17.82,17.82,0,0,1,375.32,59c-.47.16-.63.32-.63.47s.23.16.39.16a14,14,0,0,0,2.67-.55,37,37,0,0,0,12.8-6.68c4.79-3.77,7.78-8.71,9.82-15.7,1.41-5,2.12-7.31,2.51-8.88.87-.55,1.34-1.1,1.34-1.57,0-.78-.63-1.49-2.2-2.67a23,23,0,0,0-4.56-3,8,8,0,0,0-3.06-.95,11.18,11.18,0,0,0-3.53,1.89c-1.18.86-2.12,1.65-2.12,2S388.9,23.72,389.14,23.72Zm-47.4,4a4.23,4.23,0,0,1,1.73,2.2c.79,1.89,1.18,3.77,1.34,7.78.15,3.69.23,4.32.62,5.42a4.06,4.06,0,0,0,3.23,2.59c2,0,3.61-2.2,3.61-5.34a46.92,46.92,0,0,0-.71-7.54,2.16,2.16,0,0,0,1.18.39c.39,0,.78-.16,1.81-.31a113.69,113.69,0,0,1,15.94-1.42c1.88,0,2.59.24,2.59.87a26.1,26.1,0,0,1-1.65,6.36c-2.91,7.85-6.83,13.74-12.25,18.45a39,39,0,0,1-12.65,7.23c-.7.16-.86.24-.86.55s.24.39.55.39c3.46,0,9.74-1.8,14-3.92,8.72-4.48,15.94-13,20.11-24a9.42,9.42,0,0,1,.94-2.12c2-.55,2.51-1.1,2.51-2.2a4.45,4.45,0,0,0-1.33-3c-2.2-2.52-4.64-4.56-5.74-4.56s-1.8.87-3.45,2.2c-1.26.16-4.72.47-7.86.79.4-1.1,1.26-4.48,1.65-6.13,1-.78,1.18-1.18,1.18-2,0-2-4.24-4.48-7.77-4.48-1.73,0-4.87,1.26-4.87,2,0,.16.31.32.94.55,1.18.4,1.81.87,2,1.73a46.5,46.5,0,0,1,.86,8.72,78.37,78.37,0,0,1-8.79.63c-2-1.42-7.15-3.38-8.8-3.38a.62.62,0,0,0-.63.63C341.19,27.17,341.19,27.33,341.74,27.72ZM309.51,7.93c1.34.16,2.12.94,2.67,2.83.63,2.12.87,5.65.87,11.23,0,5.81-.08,10.52-.08,14.45-.16,11.86-.47,16-1.18,18.22a4.5,4.5,0,0,0-.39,1.81A13,13,0,0,0,313.52,62c1.33,1.89,2.36,2.75,3.61,2.75,2.28,0,4.32-2.35,4.24-5-.15-5.26-.39-10.75-.63-20.18-.07-3.69-.15-7.85-.23-12.64,3.53,1.65,6.2,4.32,8.87,9,2.05,3.61,2.2,3.77,2.91,4.24a5.53,5.53,0,0,0,2.91.78,5.08,5.08,0,0,0,5.1-5.26c0-4.32-4.08-7.69-10.6-9a48.92,48.92,0,0,0-8.25-.55h-.94c.23-10.76.55-13.12,1.41-14.14,1.34-1.41,1.42-1.65,1.42-2.27,0-1.1-1.42-2.75-3.38-4a11.57,11.57,0,0,0-5.66-2,5,5,0,0,0-3.37,1.41,6.56,6.56,0,0,0-2,2.36C309,7.78,309.12,7.85,309.51,7.93Zm242.66,35.4a34.55,34.55,0,0,0-9-1.49c-1.57.94-4.4,1.41-13.9,2-17.67,1.26-19.79,1.26-30.55,1.26a9.46,9.46,0,0,1-6.52-2.28c-.71-.63-.78-.71-.94-.71-.55,0-1.18,2.28-1.18,3.93,0,1.81.63,2.91,2.28,4.24,2.43,2,5.34,3.38,6.6,3.38a6.28,6.28,0,0,0,2.19-.55,25.87,25.87,0,0,1,3.07-1c7.38-1,10.13-1.18,27.41-1.18,5.1,0,7.93.08,9.89.16,2.91.07,5.11.15,6.21.15,4.79,0,8-1.65,8-3.92C555.71,45.53,554.61,44.27,552.17,43.33ZM137,39.9c5.1,3.45,9.81,10.28,10.83,16.1.55,2.82,2.12,4.08,5,4.08,3.61,0,6.13-2.59,6.13-6.44,0-3.3-1.65-6.28-4.56-8.72-3.61-2.9-9.27-5.18-16.49-6.2a109.24,109.24,0,0,0,8.79-14.85c.71-1.49.87-1.72,1.34-2.59,3.06-.78,3.77-1.17,3.77-2.35s-.71-2-2.44-3.54c-3.29-2.67-5.81-4.32-7.06-4.32-.79,0-1.34.47-2.28,1.42l-1.18,1.18c-.63.62-2.36,1.25-6,2a104.46,104.46,0,0,1-16.1,2.2c-2.43,0-3.38-.55-5-2.59-1.41.31-2.43,1.88-2.43,3.77,0,1.17,1.18,2.75,2.75,4.08a7.7,7.7,0,0,0,4.32,2,3.71,3.71,0,0,0,1.65-.31c1.41-.63,2.12-1,3.14-1.42a57.07,57.07,0,0,1,6-1.88c4.95-1.41,8.17-2.12,9.27-2.12.47,0,.78.16.78.47a3.78,3.78,0,0,1-.16.94,39.87,39.87,0,0,1-2,5,95.57,95.57,0,0,1-4.48,8.64,50.37,50.37,0,0,1-17,17.51,46.24,46.24,0,0,1-7.15,3.54,50.38,50.38,0,0,1-6.91,2.27c-.55.16-.63.32-.63.55s.24.4.55.4A41.47,41.47,0,0,0,104,58.2a78.76,78.76,0,0,0,11.62-3A44.14,44.14,0,0,0,137,39.9Zm26.74,43.8-.08,0-.16.1a11.07,11.07,0,0,1-1.88,1.71,3,3,0,0,1-1.55.71c-.56,0-.71-.39-.44-1.17l4.19-11.29a2,2,0,0,0,.12-.6.91.91,0,0,0-.38-.62,3.39,3.39,0,0,0-1-.59,3,3,0,0,0-1.15-.24.78.78,0,0,0-.8.48.83.83,0,0,1-.12.31c-.09.14-.26.46-.53.94a.58.58,0,0,1-.12.2.16.16,0,0,1-.12,0h0l-.36-.4a3.09,3.09,0,0,0-2-.93,4.46,4.46,0,0,0-2.19,1.11,31.37,31.37,0,0,0-3.37,3,63.82,63.82,0,0,0-4.33,4.85A22.51,22.51,0,0,0,145,85.07a6.61,6.61,0,0,0-.81,2.94,1.43,1.43,0,0,0,.37.89,3.13,3.13,0,0,0,.9.74,2.25,2.25,0,0,0,1.07.31,5.44,5.44,0,0,0,2.54-.71,15.59,15.59,0,0,0,3-2.24A44.07,44.07,0,0,0,156,83c.11-.1.2-.11.26,0s.06.24,0,.43c-.16.35-.33.72-.52,1.1s-.36.78-.52,1.17-.29.72-.39,1-.14.4-.14.42a2.54,2.54,0,0,0-.24.93,1.49,1.49,0,0,0,.36.91,2.8,2.8,0,0,0,.93.76,2.35,2.35,0,0,0,1.09.31,5.5,5.5,0,0,0,2.3-.65,12.19,12.19,0,0,0,2.66-1.81,12.52,12.52,0,0,0,1.71-1.82,2.71,2.71,0,0,0,.7-1.41.64.64,0,0,0-.12-.42A.42.42,0,0,0,163.71,83.7ZM158,78.46a25.89,25.89,0,0,1-2.18,3,28.15,28.15,0,0,1-3.34,3.47,4.57,4.57,0,0,1-2.34,1.33,1.1,1.1,0,0,1-.89-.39,1.54,1.54,0,0,1-.32-1,6.53,6.53,0,0,1,.56-2.38,16.69,16.69,0,0,1,1.45-2.72,14.52,14.52,0,0,1,1.86-2.32,13.77,13.77,0,0,1,2.15-1.69,3.89,3.89,0,0,1,1.8-.73,1.66,1.66,0,0,1,.62.17,2.4,2.4,0,0,1,.71.44q.72.6.72.93A4.61,4.61,0,0,1,158,78.46ZM60.36,16.1c0,.16.15.31.54.47,3.15,1.1,8.41,5.73,10.14,8.88.78,1.41.7,1.57,1.25,1.72a7.74,7.74,0,0,0,2.36.47,5.44,5.44,0,0,0,5.57-5.57c0-4.24-4.79-7.23-11.7-7.23a36.62,36.62,0,0,0-6.12.55C61.22,15.63,60.36,15.86,60.36,16.1ZM46.7,14.69c-.87,0-1.1.23-3.85,2.43a5,5,0,0,1-2.91,1.18c-.31.08-1.73.31-3.06.47-1.57.16-2.59.31-4,.39.55-.78,1-1.57,1.81-2.9.24-.4.55-1,.94-1.57a6.5,6.5,0,0,1,.63-.95,3.32,3.32,0,0,0,1.34-2.59c0-1.1-1.73-2.67-3.7-3.93A11.83,11.83,0,0,0,28.24,5.1a10.49,10.49,0,0,0-2.12.32C25,5.73,24,6.2,24,6.52c0,.16.08.23.55.47A11.18,11.18,0,0,1,26,7.78a1.66,1.66,0,0,1,.71,1.41,23.34,23.34,0,0,1-2,6.83,68.49,68.49,0,0,1-3.06,6.44,55.27,55.27,0,0,1-6.28,8.64,37.63,37.63,0,0,1-4,4.08,42.22,42.22,0,0,1-4.08,3.07c-.47.31-.63.47-.63.63a.21.21,0,0,0,.24.23A3.38,3.38,0,0,0,7.74,39c.55-.15,1-.31,2.12-.7a35,35,0,0,0,3.22-1.42,49.14,49.14,0,0,0,9.66-6.2,70.89,70.89,0,0,0,5.5-5.5c.94-1.1,2-2,2.43-2.75.87-.08,2-.15,3.46-.31.86-.08,2.67-.24,4-.39s3.07-.32,3.3-.32c.47,0,.79.24.79.47a6.29,6.29,0,0,1-.16,1,48.47,48.47,0,0,1-1.65,4.87c-.63,1.5-1.41,3.14-2,4.56-.55,1.1-1.33,2.51-1.73,3.22a36.23,36.23,0,0,0-6.83-2.12,32.89,32.89,0,0,0-6.75-.63c-.63,0-.87.08-.87.24s.16.31.32.39a30.31,30.31,0,0,1,5.18,3.22,43.53,43.53,0,0,1,4.95,4.32A60.07,60.07,0,0,1,19.13,54a49.88,49.88,0,0,1-8.64,5,48.57,48.57,0,0,1-5.11,2C4,61.57,2.64,62,1.07,62.36c-.73.18-1,.27-1.07.37V63c.07.2.28.31.59.31a16.5,16.5,0,0,0,1.81-.16c1.57-.23,4.24-.55,6-.86a55.81,55.81,0,0,0,10.91-3.14,54.6,54.6,0,0,0,14.85-8.72c1.18-.94,3.38-3.06,4.24-3.93.47.55,1.41,1.81,2,2.6,2.36,3.45,3.22,4.32,5.42,4.32a4.73,4.73,0,0,0,4.79-4.87c0-3.38-1.73-6-6.36-9.51,3-4.4,5.26-9.5,7.46-14.06,2-.39,2.83-1,2.83-2.19s-.63-2.12-2.28-3.93C50.15,16.57,47.72,14.69,46.7,14.69Zm58.39,1.43a1.5,1.5,0,0,0,.08-.67.45.45,0,0,0-.55-.27c-.23.06-.35.25-1.37,1.7a81.85,81.85,0,0,1-5.56,7.47A163.08,163.08,0,0,1,75.49,45a56.71,56.71,0,0,1-8.72,5.07c-3.13.75-5,.14-6.24-2.14-1.29.71-2,3.46-1.51,5.53.29,1.22,1.5,2.55,3.71,4a27.84,27.84,0,0,0,5.06,2.91,6.51,6.51,0,0,0,3.94.59c.84-.2,1.43-.75,2.66-2,.2-.21.77-.83.83-.93A149.51,149.51,0,0,0,91.13,41.18a82.31,82.31,0,0,0,9.27-13.93C102.27,23.58,104.67,18.08,105.09,16.12ZM438.65,72.17a1.81,1.81,0,0,0-.81-.32,1.37,1.37,0,0,0-.72.34q-.45.34-.45.63a34.28,34.28,0,0,1-.66,7.49,23.27,23.27,0,0,1-2.07,5.93c-.19.35-.35.54-.47.56s-.17-.2-.14-.68a33.92,33.92,0,0,0-.22-6.71,28.83,28.83,0,0,0-1-4.42A6,6,0,0,0,431,72.8a2.32,2.32,0,0,0-1.81-.75,3.48,3.48,0,0,0-1.71.51,6.24,6.24,0,0,0-1.68,1.35,8,8,0,0,0-1.27,1.87,4.74,4.74,0,0,0-.5,2.07,2.31,2.31,0,0,0,.12.81c.08.22.16.32.24.32s.32-.13.47-.4.24-.46.3-.56a10.13,10.13,0,0,1,.58-1.07,10.25,10.25,0,0,1,.81-1.13,1.13,1.13,0,0,1,.78-.5q.41,0,.93.84a9.19,9.19,0,0,1,.93,2.74,25.69,25.69,0,0,1,.4,5.12,31.44,31.44,0,0,1-.34,4.78,14.52,14.52,0,0,1-3.49,7.59,3.61,3.61,0,0,1-2.58,1.41,1.87,1.87,0,0,1-1-.26c-.3-.17-.59-.37-.89-.58a5.24,5.24,0,0,0-.79-.59,1.52,1.52,0,0,0-1.89.15,2.86,2.86,0,0,0-.81,1,2.73,2.73,0,0,0-.3,1.27,1.94,1.94,0,0,0,.83,1.7,3.14,3.14,0,0,0,.31.18h3.18a7.84,7.84,0,0,0,1-.49A19.12,19.12,0,0,0,426,97.83a37.2,37.2,0,0,0,3.19-3.21,67.17,67.17,0,0,0,5.72-7.46,40.59,40.59,0,0,0,3.81-7.11A16.14,16.14,0,0,0,440,74.19,1.83,1.83,0,0,0,439.6,73,4,4,0,0,0,438.65,72.17ZM143.4,68.28a10.09,10.09,0,0,0-4.13-3.87A14,14,0,0,0,132.8,63c-.81,0-1.5,0-2.08,0l-1.59.08c-.48,0-1,0-1.53,0-.81,0-1.73,0-2.76-.08s-2-.08-3-.08a1.66,1.66,0,0,0-.67.15c-.23.09-.36.22-.38.38a.59.59,0,0,0,.08.54.9.9,0,0,0,.6.3,10.32,10.32,0,0,1,1.64.47,1.91,1.91,0,0,1,1,.72,1.76,1.76,0,0,1,0,1.43l-5.84,18.42a5.45,5.45,0,0,1-.67,1.45,2.41,2.41,0,0,1-1,.87,6.71,6.71,0,0,1-1.84.46c-.72.08-1.13.35-1.21.81a.37.37,0,0,0,.16.38,1,1,0,0,0,.57.14c.62,0,1.23,0,1.85-.08l1.8-.12c.57,0,1.12,0,1.63,0s1.44,0,2.4.08l2.92.18c1,.07,1.84.1,2.54.1a18.45,18.45,0,0,0,6.93-1.27A17.89,17.89,0,0,0,139.85,85a15.58,15.58,0,0,0,3.69-5A13.93,13.93,0,0,0,144.85,74,11.17,11.17,0,0,0,143.4,68.28Zm-4.9,10.46a17.49,17.49,0,0,1-2.6,4.82A13.4,13.4,0,0,1,132.07,87a8.92,8.92,0,0,1-4.63,1.29,6.23,6.23,0,0,1-2.26-.38,2.4,2.4,0,0,1-1.41-1.29,3.57,3.57,0,0,1,0-2.44l5.48-17.85a3.44,3.44,0,0,1,.51-1.07,1.62,1.62,0,0,1,.92-.6,7,7,0,0,1,1.84-.19,7.12,7.12,0,0,1,3.64.91,5.86,5.86,0,0,1,2.4,2.84,12.74,12.74,0,0,1,.85,5.08A16.1,16.1,0,0,1,138.5,78.74ZM279,25.68a100,100,0,0,1,10.6-1.41c.79,0,1.18.16,1.18.55,0,1.88-3.85,9.34-8.56,16.65-3.93-1.89-12.09-3.62-17.2-3.62-.55,0-.78.08-.78.4,0,.15.07.23.31.39,1.1.71,2.12,1.26,3.14,2a28.63,28.63,0,0,1,4.95,4.32,47.45,47.45,0,0,1,6.12,8.41c1.18,2.12,2.12,2.82,3.62,2.82a6.2,6.2,0,0,0,6.12-6.44c0-2.35-1.17-4.63-3.69-6.59a180.18,180.18,0,0,0,16.65-13c4.71-.94,5.58-1.57,5.58-3.69,0-1.81-1.1-3.3-4.32-6-3.85-3.22-5.73-4.24-7.31-4.24-1.1,0-1.57.47-4.71,3.22-1.41.63-2.43.78-10.21,1.57-6.52.63-12.64,1.57-18.85,2-2.59.16-4.79.47-6.12.47a4.81,4.81,0,0,1-2.2-.7,5.59,5.59,0,0,1-1.49-1.18c-.24-.32-.32-.39-.47-.39s-.55.23-.87.7a5.62,5.62,0,0,0-1.25,2.83c0,1.49,1.25,3.14,2.82,4.56a9.46,9.46,0,0,0,5.58,2.51c.47,0,.71-.08,1.41-.63a8.1,8.1,0,0,1,1.57-.94C265.68,28.19,270.08,27.25,279,25.68ZM494.27,37.54l2.75.08c1.88.08,3.53-1.18,3.53-2.59,0-1.57-.78-2.36-3.06-3.54-4.87-2.59-5.1-2.82-6.6-2.82-.78,0-1.33.31-2.35,1.17-1.26,1.1-2.28,1.5-4.79,2.28-3.54,1-6.6,2-7.7,2.12-.39-1.88-1.65-10-1.73-11.31,1.89-.39,12.1-2,13.35-2,3-.16,4.09-.94,4.09-3.14,0-1.81-4.24-3.77-8.72-4.48l-1-.15c-1.34,1.49-5.42,3.61-8.48,4.47-.32-3.69-.4-5.73-.4-7.54,0-.78.08-1.1.55-1.49a1.68,1.68,0,0,0,.71-1.49c0-.79-.47-1.42-1.57-2.12-2.12-1.34-6.05-3-7.54-3-1.1,0-2.43.79-4.08,2.44a6.18,6.18,0,0,0-1.42,1.8c0,.16.08.24.47.32a5,5,0,0,1,2.52,1.18c1.41,1.49,1.73,2.67,3.22,11.15-.71.16-1.26.31-2.52.55a45.06,45.06,0,0,1-9.58,1.18c-1.65,0-2.67,0-3.61-.08a11.28,11.28,0,0,1-1.57-.24,4.32,4.32,0,0,0-.79-.15.2.2,0,0,0-.23.23c0,.39.39.94,1.1,1.73,2.59,2.83,4.87,3.93,8.09,3.93a14.45,14.45,0,0,0,3.37-.55c1.42-.32,2.2-.48,4.87-.95.63-.07,1.34-.23,1.89-.31.16,1.88.63,5.81,1.41,11.39-1.18.15-1.73.23-3.53.55a130.45,130.45,0,0,1-15.47,2,24.77,24.77,0,0,1-4.09-.47c-.47-.08-1.41-.47-1.65-.47s-.23.23-.23.47c0,3.45,4.16,7.62,7.77,7.62.71,0,.87-.16,2.2-1a22.66,22.66,0,0,1,4.79-2c5.19-1.26,8.8-2,10.76-2.43,1.42,12.64,2.52,21.75,2.91,23.09.86,2.75,2.12,4,3.93,4a2.72,2.72,0,0,0,2.59-1.1,13.57,13.57,0,0,0,2-6.59,92.63,92.63,0,0,0-1.89-11.71c-.7-3.69-1.1-5.65-1.33-7.3L477,38.56c1-.16,3.22-.39,5.5-.63,1.41-.15,3.46-.31,3.93-.31h2c1.18,0,2.91-.16,3.77-.16C492.62,37.46,493.33,37.54,494.27,37.54ZM217.19,73a4.64,4.64,0,0,0-3-.79,7.61,7.61,0,0,0-4,1.17,13.34,13.34,0,0,0-3.47,3.06,15.46,15.46,0,0,0-2.42,4.24,13.09,13.09,0,0,0-.88,4.67,4,4,0,0,0,.74,2.28,6,6,0,0,0,1.86,1.73,4.16,4.16,0,0,0,2.11.67,7,7,0,0,0,3.07-.67,8.14,8.14,0,0,0,2.45-1.83,12.45,12.45,0,0,0,1.86-2.58.5.5,0,0,0,.1-.22,2.65,2.65,0,0,0,0-.27c0-.26-.12-.4-.36-.4a1.25,1.25,0,0,0-.73.44A9,9,0,0,1,212.8,86a4.08,4.08,0,0,1-2.22.62,2.4,2.4,0,0,1-2.07-.95,3.56,3.56,0,0,1-.67-2.35,8.69,8.69,0,0,1,.16-1.09c.08-.38.18-.74.28-1.09a.56.56,0,0,1,.19-.26.74.74,0,0,1,.3-.1c1-.22,2.09-.47,3.2-.77A15.53,15.53,0,0,0,215,78.86a7.31,7.31,0,0,0,2.26-1.65,3.31,3.31,0,0,0,.87-2.3A2.4,2.4,0,0,0,217.19,73Zm-3.1,3.83a5.58,5.58,0,0,1-1.51,1.39,8.35,8.35,0,0,1-1.88.86c-.64.21-1.19.36-1.65.47-.22,0-.31-.06-.28-.24a6.48,6.48,0,0,1,.6-1.9,9.87,9.87,0,0,1,1.19-1.87,7.47,7.47,0,0,1,1.51-1.43,2.73,2.73,0,0,1,1.57-.57,1,1,0,0,1,.85.41,1.26,1.26,0,0,1,.24.88A3.48,3.48,0,0,1,214.09,76.79Zm-12.56-4a3.78,3.78,0,0,0-2.23-.59,8.47,8.47,0,0,0-3.55.75,10.47,10.47,0,0,0-3,2,13.5,13.5,0,0,0-2.26,2.91,15.18,15.18,0,0,0-1.47,3.44,13.85,13.85,0,0,0-.56,3.63,5.06,5.06,0,0,0,.66,2.56,5.15,5.15,0,0,0,1.75,1.81,4.47,4.47,0,0,0,2.34.67,5.91,5.91,0,0,0,2.42-.55A8.86,8.86,0,0,0,197.89,88a8.13,8.13,0,0,0,1.59-1.85,3.47,3.47,0,0,0,.58-1.74c0-.29-.12-.44-.36-.44a.66.66,0,0,0-.38.12,2.07,2.07,0,0,0-.39.36,6.22,6.22,0,0,1-1.61,1.31,4,4,0,0,1-2,.51,2.53,2.53,0,0,1-1.9-.71,2.88,2.88,0,0,1-.64-2.15,12.53,12.53,0,0,1,.46-3.29A15.41,15.41,0,0,1,194.44,77a9.91,9.91,0,0,1,1.63-2.34,2.59,2.59,0,0,1,1.82-.91,1.46,1.46,0,0,1,1,.47,4.58,4.58,0,0,1,.78,1.11,5.41,5.41,0,0,0,.6.86.74.74,0,0,0,.57.26c.35,0,.68-.24,1-.72a2.61,2.61,0,0,0,.48-1.45A1.75,1.75,0,0,0,201.53,72.76Zm51.79-8.35A14,14,0,0,0,246.85,63c-.8,0-1.5,0-2.07,0l-1.59.08c-.49,0-1,0-1.54,0-.8,0-1.72,0-2.76-.08s-2-.08-3-.08a1.62,1.62,0,0,0-.66.15.55.55,0,0,0-.39.38.66.66,0,0,0,.08.54.9.9,0,0,0,.61.3,10.17,10.17,0,0,1,1.63.47,1.94,1.94,0,0,1,1,.72,1.76,1.76,0,0,1,0,1.43L232.3,85.43a5.46,5.46,0,0,1-.66,1.45,2.49,2.49,0,0,1-1,.87,6.54,6.54,0,0,1-1.83.46c-.73.08-1.13.35-1.21.81a.34.34,0,0,0,.16.38.91.91,0,0,0,.56.14c.62,0,1.24,0,1.86-.08l1.79-.12c.58,0,1.12,0,1.63,0s1.45,0,2.4.08l2.92.18c1,.07,1.84.1,2.54.1a18.45,18.45,0,0,0,6.93-1.27A17.94,17.94,0,0,0,253.91,85a15.69,15.69,0,0,0,3.68-5A13.78,13.78,0,0,0,258.9,74a11.17,11.17,0,0,0-1.45-5.75A10,10,0,0,0,253.32,64.41Zm-.76,14.33a17.76,17.76,0,0,1-2.6,4.82A13.53,13.53,0,0,1,246.13,87a9,9,0,0,1-4.64,1.29,6.18,6.18,0,0,1-2.25-.38,2.35,2.35,0,0,1-1.41-1.29,3.57,3.57,0,0,1,0-2.44l5.48-17.85a3.67,3.67,0,0,1,.5-1.07,1.65,1.65,0,0,1,.93-.6,6.88,6.88,0,0,1,1.83-.19,7.16,7.16,0,0,1,3.65.91,6,6,0,0,1,2.4,2.84,12.94,12.94,0,0,1,.84,5.08A16.09,16.09,0,0,1,252.56,78.74ZM406,18a4.4,4.4,0,0,1,2.9,1.81,8.42,8.42,0,0,1,.47,3.06c.16,1.89.24,4.56.24,7.86,0,2.59-.32,8.09-.71,11.23a1.51,1.51,0,0,0-1.26,1.57A5.29,5.29,0,0,0,409,46.42a33.44,33.44,0,0,0,2.9,3.29c1.58,1.5,2.83,2.2,3.93,2.2.86,0,1.34-.55,3.22-2a71.71,71.71,0,0,0,13.82-10.68,59.62,59.62,0,0,0,7-8.41,65.26,65.26,0,0,0,4.48-8.48,11.76,11.76,0,0,0,.94-2.67c0-.15,0-.23-.15-.23s-.48.23-1.34,1.41A58.39,58.39,0,0,1,432.88,32.2c-5.18,4.24-12.09,7.7-15.23,7.7a1.8,1.8,0,0,1-1.1-.32c-.08-1-.16-2.2-.16-3.3,0-.78.08-1.57.08-2.35.08-2.75.39-7.93.71-11.15,1.49-.79,2-1.5,2-2.52,0-1.25-.71-2.2-2.91-3.61-2.75-1.81-4.95-2.75-6.2-2.75a7.17,7.17,0,0,0-3.38,1.81c-.86.78-1.57,1.41-1.57,1.88C405.16,17.75,405.24,17.83,406,18ZM383.68,83.3c-.06,0-.11,0-.16.12-.38.35-.86.76-1.45,1.25a19.87,19.87,0,0,1-1.72,1.25,2.69,2.69,0,0,1-1.23.52c-.18,0-.28-.11-.28-.32a2.87,2.87,0,0,1,.16-.81l4.4-10.88a1.19,1.19,0,0,0,0-1,2.65,2.65,0,0,0-.73-.88,1.68,1.68,0,0,0-1.09-.39,1.3,1.3,0,0,0-1,.53,9.81,9.81,0,0,0-1,1.37q-.4.68-1.17,1.83c-.51.77-1.09,1.59-1.73,2.46s-1.31,1.73-2,2.56l-2.05,2.58c-.68.83-1.27,1.52-1.8,2s-.92.81-1.19.81-.41-.18-.42-.52a2.75,2.75,0,0,1,.3-1.21c.91-2,1.76-3.79,2.52-5.49s1.47-3.21,2.12-4.55a1.38,1.38,0,0,0,0-1.07,2.58,2.58,0,0,0-.71-1,1.41,1.41,0,0,0-.9-.41,5.61,5.61,0,0,0-2.28.57,11.15,11.15,0,0,0-2.56,1.61,15,15,0,0,0-2.38,2.46,3.5,3.5,0,0,0-.48.76,1.58,1.58,0,0,0-.16.65.27.27,0,0,0,.3.3.92.92,0,0,0,.66-.34,9.61,9.61,0,0,1,1.05-.89c.43-.32.83-.6,1.21-.83a2,2,0,0,1,.81-.34c.21,0,.32.12.32.37a2.89,2.89,0,0,1-.28,1l-4,9.11a1.92,1.92,0,0,0,0,1.41,3.44,3.44,0,0,0,.88,1.39A1.87,1.87,0,0,0,367,90a3.65,3.65,0,0,0,2-.71,14.64,14.64,0,0,0,2.28-1.93c.8-.82,1.65-1.78,2.55-2.87L376.63,81q.19-.28.42-.24c.15,0,.17.16.06.4-.24.65-.52,1.32-.83,2s-.63,1.42-1,2.13-.64,1.36-.91,2a1.11,1.11,0,0,0,0,.82.89.89,0,0,0,.38.55,3.81,3.81,0,0,0,1.25.28,4.42,4.42,0,0,0,1.39-.14,4.14,4.14,0,0,0,1.35-.63,5,5,0,0,0,1.25-.48,12.27,12.27,0,0,0,1.41-.87,13.16,13.16,0,0,0,1.35-1.06,8.76,8.76,0,0,0,1-1.07,1.59,1.59,0,0,0,.38-.87.56.56,0,0,0-.14-.36A.43.43,0,0,0,383.68,83.3ZM182.32,6a12.06,12.06,0,0,1,3.77,6.52c.24,1.65.31,1.88.71,2.43a2.93,2.93,0,0,0,2.43,1.18,2.69,2.69,0,0,0,2.67-3c0-2-1.65-4.32-4-5.82a15.35,15.35,0,0,0-5.66-2.2.36.36,0,0,0-.39.32C181.85,5.58,182,5.73,182.32,6Zm6.21-3.14a16.32,16.32,0,0,1,5.81,6.59c.86,2,1.57,2.6,3.06,2.6,1.65,0,2.75-1.34,2.75-3.22,0-2.67-2.44-4.87-7.07-6.29a15.05,15.05,0,0,0-4.63-.78c-.4,0-.71.15-.71.31C187.74,2.36,187.9,2.51,188.53,2.83Zm-2.65,80.79a.53.53,0,0,0-.29.12,1.48,1.48,0,0,0-.28.28c-.13.14-.35.32-.64.57s-.64.49-1,.76a12.15,12.15,0,0,1-1.11.69,2,2,0,0,1-.84.28c-.49,0-.56-.44-.21-1.33l3.27-7.66a4.68,4.68,0,0,0,.46-2.4,3.44,3.44,0,0,0-.76-2,2.53,2.53,0,0,0-2-.79,5.19,5.19,0,0,0-3,1.13,15.29,15.29,0,0,0-3.07,3.1,42.74,42.74,0,0,0-3,4.6.36.36,0,0,1-.42.2c-.2,0-.26-.13-.18-.32L175,75.07a2.42,2.42,0,0,0,.15-1.39,2,2,0,0,0-.63-1.08,1.85,1.85,0,0,0-1.29-.43,7.21,7.21,0,0,0-3,.65,6.72,6.72,0,0,0-2.12,1.53c-.13.16-.31.39-.52.7A7.6,7.6,0,0,0,167,76a1.88,1.88,0,0,0-.22.73c0,.24.14.37.33.38a.51.51,0,0,0,.44-.18,4.23,4.23,0,0,1,1.21-1.11,2.94,2.94,0,0,1,1.11-.4,7.15,7.15,0,0,1,.82-.06q.74,0,.24,1.29l-4.27,10.55a1.43,1.43,0,0,0-.08,1,2.25,2.25,0,0,0,.53.91,3.63,3.63,0,0,0,.76.62,1.39,1.39,0,0,0,.73.25,1.44,1.44,0,0,0,1.08-.61,10.07,10.07,0,0,0,1.09-1.57c.46-.81,1-1.68,1.53-2.62s1.14-1.86,1.72-2.76L175.6,80c.46-.72.82-1.26,1.09-1.61.53-.7,1-1.34,1.51-1.93A11.39,11.39,0,0,1,179.51,75a1.55,1.55,0,0,1,1.13-.5.53.53,0,0,1,.58.46,3.21,3.21,0,0,1-.26,1.52q-1.12,2.9-2.46,5.72t-2.58,5.68a1.17,1.17,0,0,0,0,1,2,2,0,0,0,.71.76,1.69,1.69,0,0,0,1,.33,7.25,7.25,0,0,0,2.85-.63,13,13,0,0,0,2.86-1.69,16.13,16.13,0,0,0,2.52-2.44,1.75,1.75,0,0,0,.4-1.13.44.44,0,0,0-.12-.32A.35.35,0,0,0,185.88,83.62Zm162.33.08-.08,0-.16.1a11.41,11.41,0,0,1-1.87,1.71,3.09,3.09,0,0,1-1.55.71q-.85,0-.45-1.17l4.19-11.29a2,2,0,0,0,.13-.6.89.89,0,0,0-.39-.62,3.26,3.26,0,0,0-1-.59,3,3,0,0,0-1.14-.24.78.78,0,0,0-.81.48.83.83,0,0,1-.12.31l-.52.94a.73.73,0,0,1-.13.2s-.06,0-.12,0h0l-.36-.4a3.09,3.09,0,0,0-2-.93,4.46,4.46,0,0,0-2.19,1.11,33.41,33.41,0,0,0-3.37,3q-2.65,2.73-4.33,4.85a23.17,23.17,0,0,0-2.48,3.73,6.58,6.58,0,0,0-.8,2.94,1.42,1.42,0,0,0,.36.89,3,3,0,0,0,.91.74A2.18,2.18,0,0,0,331,90a5.41,5.41,0,0,0,2.54-.71,15.92,15.92,0,0,0,3-2.24,45.51,45.51,0,0,0,3.88-4c.11-.1.2-.11.27,0a.47.47,0,0,1,0,.43c-.16.35-.34.72-.53,1.1s-.36.78-.52,1.17-.29.72-.38,1a2.78,2.78,0,0,0-.14.42,2.4,2.4,0,0,0-.25.93,1.45,1.45,0,0,0,.37.91,2.86,2.86,0,0,0,.92.76,2.35,2.35,0,0,0,1.09.31,5.47,5.47,0,0,0,2.3-.65,12,12,0,0,0,2.66-1.81A12.52,12.52,0,0,0,348,85.67a2.75,2.75,0,0,0,.71-1.41.64.64,0,0,0-.12-.42A.42.42,0,0,0,348.21,83.7Zm-5.76-5.24a24.75,24.75,0,0,1-2.18,3,27.43,27.43,0,0,1-3.34,3.47,4.57,4.57,0,0,1-2.34,1.33,1.1,1.1,0,0,1-.89-.39,1.54,1.54,0,0,1-.32-1,6.36,6.36,0,0,1,.57-2.38,15.28,15.28,0,0,1,1.45-2.72,15.07,15.07,0,0,1,1.85-2.32,13.4,13.4,0,0,1,2.16-1.69A3.82,3.82,0,0,1,341.2,75a1.75,1.75,0,0,1,.63.17,2.49,2.49,0,0,1,.7.44c.48.4.73.71.73.93A4.54,4.54,0,0,1,342.45,78.46Zm-15.11,4.92a.36.36,0,0,0-.26.14,3.88,3.88,0,0,1-.31.26c-.13.13-.35.34-.66.6s-.65.55-1,.85A12.35,12.35,0,0,1,324,86a1.81,1.81,0,0,1-.85.32c-.45,0-.51-.44-.16-1.33l3-7.3a7.61,7.61,0,0,0,.62-2.74,3.1,3.1,0,0,0-.58-2,2.29,2.29,0,0,0-1.9-.77,5.35,5.35,0,0,0-3,1,14.19,14.19,0,0,0-2.92,2.74,33.52,33.52,0,0,0-2.8,4,.39.39,0,0,1-.41.2c-.16,0-.18-.13-.08-.32l.85-2.26a5.45,5.45,0,0,0,.58-2.6,3.14,3.14,0,0,0-.74-2,2.53,2.53,0,0,0-2-.77,4.94,4.94,0,0,0-3,1.15,16.46,16.46,0,0,0-3,3.14q-1.5,2-3.06,4.54c-.09.16-.19.23-.33.2s-.16-.13-.08-.32l2.3-5.52a2.85,2.85,0,0,0,.2-1.66,1.8,1.8,0,0,0-.75-1.12,2.34,2.34,0,0,0-1.38-.41,5.83,5.83,0,0,0-2.81.67,10.55,10.55,0,0,0-2,1.51,5.55,5.55,0,0,0-.57.7,7.2,7.2,0,0,0-.52.91,2,2,0,0,0-.2.73c0,.24.13.37.32.38a.52.52,0,0,0,.45-.18A4.27,4.27,0,0,1,301,75.5a4.18,4.18,0,0,1,1.25-.26.61.61,0,0,1,.6.3.79.79,0,0,1,0,.74l-4.07,10c-.16.43-.29.8-.38,1.11a2.4,2.4,0,0,0-.14.66,1.71,1.71,0,0,0,.3,1,2.06,2.06,0,0,0,.73.68,1.41,1.41,0,0,0,.7.25,1.74,1.74,0,0,0,1.31-.77,14.81,14.81,0,0,0,1.47-2.34l1.39-2.5,1.49-2.6c.5-.84,1-1.63,1.43-2.35s.88-1.33,1.25-1.82a16.47,16.47,0,0,1,2.18-2.45,2.36,2.36,0,0,1,1.49-.77.74.74,0,0,1,.59.34c.17.23.15.6-.07,1.11L308.31,86.2c-.18.53-.33,1-.44,1.41a3.77,3.77,0,0,0-.16.8,1.32,1.32,0,0,0,.26.71,2.57,2.57,0,0,0,.61.62,1.07,1.07,0,0,0,.66.25,2.07,2.07,0,0,0,1-.35,5.91,5.91,0,0,0,1.23-1A8.75,8.75,0,0,0,312.63,87c.7-1.18,1.42-2.38,2.17-3.6S316.28,81.07,317,80s1.27-1.95,1.73-2.62a14.86,14.86,0,0,1,1.94-2.2,2.14,2.14,0,0,1,1.41-.7.75.75,0,0,1,.62.4,1.08,1.08,0,0,1-.06,1.09l-5.2,12.09a1,1,0,0,0,.08.93,2,2,0,0,0,.77.7,1.75,1.75,0,0,0,.8.27,7.62,7.62,0,0,0,4.24-1.35A17.14,17.14,0,0,0,327,85.35a2.44,2.44,0,0,0,.55-.76,3.32,3.32,0,0,0,.18-.77.44.44,0,0,0-.12-.3A.31.31,0,0,0,327.34,83.38ZM494.58,1.1a14,14,0,0,1,6.29,6.12c.94,1.89,1.57,2.44,3,2.44a2.8,2.8,0,0,0,2.75-3c0-1.58-.86-2.91-2.75-4.17A18.18,18.18,0,0,0,495.21,0c-1.1,0-1.49.16-1.49.47S493.88.79,494.58,1.1ZM364.94,73.7a.71.71,0,0,0-.16-.46,1.94,1.94,0,0,0-1-.3l-1.35-.16a10.6,10.6,0,0,0-1.35-.08.84.84,0,0,1-.53-.14c-.1-.1-.12-.31,0-.63l1-3a1.63,1.63,0,0,0,0-1.09.66.66,0,0,0-.68-.56,1.91,1.91,0,0,0-1,.36,6.25,6.25,0,0,0-1.07.88,4.66,4.66,0,0,0-.78,1L357,71.77a3.41,3.41,0,0,1-.47.75,1.09,1.09,0,0,1-.74.18H354a1.48,1.48,0,0,0-.84.26,2.8,2.8,0,0,0-.65.56,1,1,0,0,0-.24.39.93.93,0,0,0,.14.44c.1.16.35.26.75.28l1.85.08a.6.6,0,0,1,.43.18c.12.12.11.36,0,.71L351.6,86c-.16.43-.28.77-.37,1a2.82,2.82,0,0,0-.12.83,1.7,1.7,0,0,0,.33.87,3,3,0,0,0,.84.86,1.79,1.79,0,0,0,1.05.37,4.41,4.41,0,0,0,1.71-.41A11.27,11.27,0,0,0,357,88.49,14.38,14.38,0,0,0,358.87,87a15.48,15.48,0,0,0,1.57-1.57,5.62,5.62,0,0,0,.95-1.41,1.27,1.27,0,0,0,.16-.58.54.54,0,0,0-.12-.39c0-.08-.09-.11-.2-.1a1,1,0,0,0-.4.22,13.08,13.08,0,0,1-1.17,1.11,17.37,17.37,0,0,1-1.45,1.13A2.32,2.32,0,0,1,357,86a.81.81,0,0,1-.49-.15.62.62,0,0,1-.2-.54,3.93,3.93,0,0,1,.24-1.13l3.19-8.82a1,1,0,0,1,.5-.57,3.21,3.21,0,0,1,1-.2c.54,0,1-.06,1.45-.1l1.29-.1a1.06,1.06,0,0,0,.77-.3A.93.93,0,0,0,364.94,73.7Zm-88.53,4.15a4.32,4.32,0,0,0,1-1.49,4.5,4.5,0,0,0,.43-1.89,2.44,2.44,0,0,0-.61-1.67,2.2,2.2,0,0,0-1.77-.71,4.43,4.43,0,0,0-2.7,1.11A15.53,15.53,0,0,0,270,76.26,51.47,51.47,0,0,0,267,80.8c-.1.19-.23.26-.38.22s-.18-.16-.1-.34l1.65-4a9.15,9.15,0,0,0,.63-2.34,2.32,2.32,0,0,0-.34-1.61,1.82,1.82,0,0,0-1.58-.61,5.7,5.7,0,0,0-1.79.3,10.19,10.19,0,0,0-1.67.75A6.69,6.69,0,0,0,262,74.49a1.93,1.93,0,0,0-.57,1.35c0,.22.14.34.32.36a.6.6,0,0,0,.49-.12,6.52,6.52,0,0,1,1-.62,2.63,2.63,0,0,1,1.27-.26c.26,0,.43.1.48.32a1.21,1.21,0,0,1-.12.76l-3.95,10.28c-.14.43-.25.79-.34,1.09a2.49,2.49,0,0,0-.15.8,1.17,1.17,0,0,0,.33.81,2,2,0,0,0,.78.54,2.08,2.08,0,0,0,.79.19,1.94,1.94,0,0,0,1.37-.89,16.47,16.47,0,0,0,1.57-2.42c.35-.62.77-1.33,1.25-2.15s1-1.64,1.47-2.44l1.37-2.24.95-1.55A18.66,18.66,0,0,1,271.94,76a1.92,1.92,0,0,1,1.31-.78.71.71,0,0,1,.69.46,4.5,4.5,0,0,1,.28,1.15,3.65,3.65,0,0,0,.34,1.17.69.69,0,0,0,.62.4A1.83,1.83,0,0,0,276.41,77.85ZM417.05,93.73a5.69,5.69,0,0,0-1.41-1.33c-.54-.34-1.14-.73-1.82-1.14l-2-1.25-1.73-1.11a7.5,7.5,0,0,1-1.23-1,1.46,1.46,0,0,1-.43-1,1.06,1.06,0,0,1,.45-.84,1,1,0,0,1,.5-.16,5.53,5.53,0,0,1,.71,0,6.57,6.57,0,0,0,3.12-.79,8.8,8.8,0,0,0,2.58-2.1,10.59,10.59,0,0,0,1.75-2.9,8.47,8.47,0,0,0,.65-3.2c0-.22,0-.43,0-.63a3.7,3.7,0,0,0-.1-.58c-.06-.22,0-.35.1-.4a.73.73,0,0,1,.34-.08,5.47,5.47,0,0,1,.93.08c.35,0,.69.11,1,.18a5.6,5.6,0,0,0,.89.1.82.82,0,0,0,.69-.45,2.2,2.2,0,0,0,.28-1.17A.87.87,0,0,0,422,73a1.2,1.2,0,0,0-.6-.22,5,5,0,0,0-1.19.16q-.66.17-1.35.3a6.2,6.2,0,0,1-1.33.14,1.71,1.71,0,0,1-.72-.2c-.3-.13-.62-.27-1-.4a7.52,7.52,0,0,0-1-.45,4.44,4.44,0,0,0-1.37-.2,7.45,7.45,0,0,0-3.63.89,9,9,0,0,0-2.72,2.28,10.81,10.81,0,0,0-1.69,2.92,8,8,0,0,0-.58,2.86,4.44,4.44,0,0,0,.36,1.79,4.1,4.1,0,0,0,1,1.41,5,5,0,0,0,1.37.91c.24.14.36.24.36.32a.36.36,0,0,1-.1.21,3.92,3.92,0,0,1-.34.32,15.05,15.05,0,0,0-2,1.35,1.87,1.87,0,0,0-.82,1.47,2,2,0,0,0,.62,1.43,9,9,0,0,0,1.47,1.23c.22.16.19.28-.08.36-1.34.4-2.61.85-3.79,1.33a12,12,0,0,0-2.9,1.61,2.5,2.5,0,0,0-1.13,1.94A2.81,2.81,0,0,0,400,99a8.57,8.57,0,0,0,3.18,1.52l.54.12h7.12l.26-.06a14.42,14.42,0,0,0,3.19-1.31,8.5,8.5,0,0,0,2.33-1.9,3.36,3.36,0,0,0,.89-2.19A2.5,2.5,0,0,0,417.05,93.73Zm-8.28-13.17a18.05,18.05,0,0,1,.9-2.42,16.51,16.51,0,0,1,1.27-2.32,9.33,9.33,0,0,1,1.43-1.73,2.14,2.14,0,0,1,1.41-.67,1,1,0,0,1,.85.53,2.3,2.3,0,0,1,.32,1.21,8.09,8.09,0,0,1-.32,2A19.71,19.71,0,0,1,412.49,82,7.39,7.39,0,0,1,411,83.8a2.06,2.06,0,0,1-1.45.62,1.08,1.08,0,0,1-.82-.5,2.17,2.17,0,0,1-.35-1.31A7.33,7.33,0,0,1,408.77,80.56ZM413,98.37a4.33,4.33,0,0,1-1.55,1,6.38,6.38,0,0,1-2.22.36,11.87,11.87,0,0,1-3.39-.44,5.83,5.83,0,0,1-2.23-1.17,2.12,2.12,0,0,1-.79-1.57,2.52,2.52,0,0,1,1.15-2.18,11.8,11.8,0,0,1,3.24-1.45,2.16,2.16,0,0,1,.45-.12,1.81,1.81,0,0,1,.4,0,1.76,1.76,0,0,1,.81.24,15.21,15.21,0,0,1,1.69.93A18.13,18.13,0,0,1,412.21,95a3,3,0,0,1,1,.94,1.93,1.93,0,0,1,.34,1A1.91,1.91,0,0,1,413,98.37ZM294.53,83.7l-.08,0-.16.1a11.07,11.07,0,0,1-1.88,1.71,3,3,0,0,1-1.55.71c-.56,0-.71-.39-.44-1.17l4.19-11.29a2,2,0,0,0,.12-.6.91.91,0,0,0-.38-.62,3.39,3.39,0,0,0-1-.59,3,3,0,0,0-1.15-.24.78.78,0,0,0-.8.48.83.83,0,0,1-.12.31l-.53.94a.58.58,0,0,1-.12.2s-.06,0-.12,0h0l-.36-.4a3.09,3.09,0,0,0-2-.93A4.46,4.46,0,0,0,286,73.48a32.36,32.36,0,0,0-3.37,3,63.82,63.82,0,0,0-4.33,4.85,22.51,22.51,0,0,0-2.48,3.73A6.61,6.61,0,0,0,275,88a1.43,1.43,0,0,0,.37.89,3.13,3.13,0,0,0,.9.74,2.25,2.25,0,0,0,1.07.31,5.44,5.44,0,0,0,2.54-.71,15.59,15.59,0,0,0,3-2.24,44.07,44.07,0,0,0,3.89-4c.11-.1.2-.11.26,0a.44.44,0,0,1,0,.43c-.17.35-.34.72-.53,1.1s-.36.78-.52,1.17l-.39,1c-.09.26-.14.4-.14.42a2.54,2.54,0,0,0-.24.93,1.49,1.49,0,0,0,.36.91,2.9,2.9,0,0,0,.93.76,2.35,2.35,0,0,0,1.09.31,5.5,5.5,0,0,0,2.3-.65,12.19,12.19,0,0,0,2.66-1.81,12.52,12.52,0,0,0,1.71-1.82,2.71,2.71,0,0,0,.7-1.41.64.64,0,0,0-.12-.42A.4.4,0,0,0,294.53,83.7Zm-5.76-5.24a25.89,25.89,0,0,1-2.18,3,28.15,28.15,0,0,1-3.34,3.47,4.57,4.57,0,0,1-2.34,1.33,1.1,1.1,0,0,1-.89-.39,1.54,1.54,0,0,1-.32-1,6.53,6.53,0,0,1,.56-2.38,16,16,0,0,1,1.46-2.72,15.07,15.07,0,0,1,1.85-2.32,13.4,13.4,0,0,1,2.16-1.69,3.82,3.82,0,0,1,1.79-.73,1.66,1.66,0,0,1,.62.17,2.4,2.4,0,0,1,.71.44q.72.6.72.93A4.48,4.48,0,0,1,288.77,78.46ZM488.62,3.69a13.12,13.12,0,0,1,4.32,6.36,6.37,6.37,0,0,0,.86,2.52,3.33,3.33,0,0,0,2.28.94,2.63,2.63,0,0,0,2.59-2.83c0-3.53-5.34-7.77-9.9-7.77-.39,0-.55.07-.55.31S488.3,3.46,488.62,3.69Z"/></svg>