<svg id="レイヤー_1" data-name="レイヤー 1" xmlns="http://www.w3.org/2000/svg" viewBox="0 0 921.35 54.47"><defs><style>.cls-1{isolation:isolate;}.cls-2{fill:#fff;}</style></defs><g class="cls-1"><path class="cls-2" d="M31.19,26.21c.51-1.14,1.15-2.48,1.66-3.69.57-1.47,1-2.81,1.34-4a5.49,5.49,0,0,0,.12-.83c0-.19-.25-.38-.63-.38-.19,0-1.66.13-2.68.25s-2.55.26-3.25.32c-1.15.13-2.11.19-2.81.26-.38.57-1.21,1.34-2,2.23a62.51,62.51,0,0,1-4.46,4.47,39.84,39.84,0,0,1-7.85,5A27.78,27.78,0,0,1,8,31.06c-.9.32-1.28.45-1.73.58a3,3,0,0,1-.63.12.17.17,0,0,1-.19-.19c0-.13.12-.25.51-.51a33.88,33.88,0,0,0,3.31-2.49,30.72,30.72,0,0,0,3.25-3.31,44.56,44.56,0,0,0,5.11-7A57.58,57.58,0,0,0,20.16,13a19.1,19.1,0,0,0,1.59-5.55,1.38,1.38,0,0,0-.57-1.15A11.75,11.75,0,0,0,20,5.68c-.38-.19-.44-.26-.44-.39s.83-.63,1.72-.89A8.4,8.4,0,0,1,23,4.15a9.53,9.53,0,0,1,4.59,1.72c1.6,1,3,2.29,3,3.19a2.69,2.69,0,0,1-1.08,2.1,4.88,4.88,0,0,0-.51.77c-.32.51-.58,1-.77,1.27-.64,1.09-1,1.72-1.47,2.36,1.15-.06,2-.19,3.26-.32,1.08-.12,2.23-.32,2.48-.38a4,4,0,0,0,2.36-1c2.24-1.78,2.43-2,3.13-2s2.81,1.53,4.53,3.38c1.34,1.46,1.85,2.36,1.85,3.19S43.69,20,42,20.28A87.83,87.83,0,0,1,36,31.7c3.77,2.87,5.17,5,5.17,7.72a3.84,3.84,0,0,1-3.89,3.95c-1.79,0-2.49-.7-4.4-3.51-.45-.63-1.21-1.65-1.6-2.1-.7.7-2.48,2.42-3.44,3.19A44.18,44.18,0,0,1,15.75,48a45.46,45.46,0,0,1-8.86,2.55c-1.47.25-3.64.51-4.91.7-.39.06-1.21.13-1.47.13S0,51.28,0,51s.13-.2.89-.39c1.28-.32,2.36-.64,3.51-1A37.38,37.38,0,0,0,8.55,48a39.71,39.71,0,0,0,7-4.08,48.57,48.57,0,0,0,11-10.65,36.36,36.36,0,0,0-4-3.51,24.44,24.44,0,0,0-4.2-2.61c-.13-.07-.26-.19-.26-.32s.19-.19.7-.19a26.17,26.17,0,0,1,5.49.51,30,30,0,0,1,5.55,1.72C30.1,28.26,30.74,27.11,31.19,26.21ZM48.73,11a2.18,2.18,0,0,1-2.23,2.24,2.39,2.39,0,0,1-1.92-.9,5.61,5.61,0,0,1-.76-1.72,10.12,10.12,0,0,0-3.89-4.78c-.26-.13-.39-.19-.39-.38s.2-.32.58-.32C44.52,5.17,48.73,8,48.73,11Zm1.59-3.76a12.36,12.36,0,0,0-5.55-4.4c-.57-.25-.7-.32-.7-.51s.83-.51,2.3-.51a14.19,14.19,0,0,1,6.7,1.85A3.41,3.41,0,0,1,55,6.76a2.24,2.24,0,0,1-2.17,2.36C51.73,9.12,51.22,8.74,50.32,7.27Z"/><path class="cls-2" d="M69.65,17.92a4.43,4.43,0,0,1-4.53,4.53,6.36,6.36,0,0,1-1.91-.38c-.45-.13-.39-.26-1-1.4-1.41-2.56-5.68-6.32-8.23-7.21-.32-.13-.45-.26-.45-.38s.7-.39,1.66-.58a30,30,0,0,1,5-.45C65.76,12.05,69.65,14.48,69.65,17.92ZM65.18,45.8a4.82,4.82,0,0,1-2.48,1.08,5.21,5.21,0,0,1-3-1.21,22.92,22.92,0,0,1-3.45-3.25c-1.46-1.6-2.16-2.88-2.16-3.9,0-1.72,1.08-3.76,2.23-4.08.57,2,1.91,2.87,4.53,2.87A45.68,45.68,0,0,0,68.69,35,131.8,131.8,0,0,0,90.12,22.83,65,65,0,0,0,95.93,18c1.08-1,1.21-1.09,1.4-1.09a.36.36,0,0,1,.38.32,1.19,1.19,0,0,1-.19.51,57.71,57.71,0,0,1-5.8,7.91,67.28,67.28,0,0,1-10,9.25A122.14,122.14,0,0,1,66,45.22C66,45.29,65.38,45.67,65.18,45.8Z"/><path class="cls-2" d="M125.46,10.14c.76-.76,1.21-1.15,1.85-1.15,1,0,3.06,1.34,5.74,3.51,1.4,1.21,2,2,2,2.87s-.58,1.28-3.07,1.92c-.38.7-.51.89-1.08,2.1a89,89,0,0,1-7.14,12.05c5.86.83,10.46,2.68,13.39,5a9.24,9.24,0,0,1,3.7,7.08c0,3.13-2,5.23-5,5.23-2.36,0-3.63-1-4.08-3.31-.83-4.72-4.65-10.27-8.8-13.08a35.79,35.79,0,0,1-17.35,12.44,62.94,62.94,0,0,1-9.44,2.42,32.2,32.2,0,0,1-3.63.39c-.26,0-.45-.13-.45-.32s.06-.32.51-.45A41.13,41.13,0,0,0,98.22,45,37.89,37.89,0,0,0,104,42.16,41,41,0,0,0,117.8,27.94a76.76,76.76,0,0,0,3.64-7,32.06,32.06,0,0,0,1.59-4,2.88,2.88,0,0,0,.13-.76c0-.26-.25-.39-.64-.39A42.57,42.57,0,0,0,115,17.48,43.14,43.14,0,0,0,110.15,19c-.83.32-1.4.63-2.55,1.15a3,3,0,0,1-1.34.25,6.28,6.28,0,0,1-3.51-1.66c-1.27-1.08-2.23-2.36-2.23-3.31a3,3,0,0,1,2-3.07c1.34,1.66,2.1,2.11,4.08,2.11a85.42,85.42,0,0,0,13.07-1.79c2.94-.57,4.34-1.08,4.85-1.59Z"/><path class="cls-2" d="M156.65,21.5a39.05,39.05,0,0,1,6.69.5c5.3,1,8.61,3.77,8.61,7.21a4.13,4.13,0,0,1-4.08,4.34,4,4,0,0,1-2.49-.77c-.57-.44-.7-.7-2.29-3.38-2.23-3.76-4.27-5.93-7.21-7.33.32,16.07.58,21.94.7,26.66a3.74,3.74,0,0,1-3.44,4c-1,0-1.92-.64-2.94-2.23A10.2,10.2,0,0,1,148.48,46c0-.32,0-.39.39-1.47.76-2.36.95-7.46.95-26.47,0-4.85-.19-7.65-.7-9.44a2.53,2.53,0,0,0-2.17-2c-.32,0-.45-.13-.45-.26a6.19,6.19,0,0,1,1.6-1.85,4,4,0,0,1,2.74-1.21,9.21,9.21,0,0,1,4.47,1.53c1.65,1,2.93,2.43,2.93,3.45,0,.51-.13.64-1.21,1.78-.51.51-.77,1.53-1,4.72-.06,1.66-.13,3.83-.19,6.77Zm17.09-8.42a2.39,2.39,0,0,1-2-1c-.32-.45-.38-.64-.57-2a9.89,9.89,0,0,0-3.06-5.29c-.26-.19-.39-.32-.39-.45a.29.29,0,0,1,.32-.25,12.49,12.49,0,0,1,4.6,1.78c1.91,1.21,3.25,3.13,3.25,4.72A2.19,2.19,0,0,1,173.74,13.08Zm4.15-5.43a13.33,13.33,0,0,0-4.72-5.35c-.51-.26-.64-.39-.64-.64s.25-.26.57-.26a12.21,12.21,0,0,1,3.77.64c3.76,1.15,5.74,2.94,5.74,5.1a2.34,2.34,0,0,1-2.24,2.62C179.16,9.76,178.59,9.25,177.89,7.65Z"/><path class="cls-2" d="M186.24,21.69a129.77,129.77,0,0,0,15.12-2.17c3.25-.64,5-1.21,5.67-1.79,1-.83,1-.89,1.34-.89,1,0,2.62.83,4.28,2,2.8,2,3.95,3.31,3.95,4.4,0,.89-.51,1.27-1.85,1.59-1.34,4.4-3.83,11.29-7.65,16.46s-10.27,9.18-19.78,12.18a25.13,25.13,0,0,1-4.78,1c-.19,0-.32-.06-.32-.19s.07-.13.38-.26a29.1,29.1,0,0,0,8.74-4.84,35,35,0,0,0,10.78-13.46A41.34,41.34,0,0,0,206,23c-.38,0-1.91.07-2.93.13a24,24,0,0,0-3.25.51c-2.49.57-5.3,1.08-7.28,1.72a9.52,9.52,0,0,0-3.57,1.6,2,2,0,0,1-1.21.44,10.5,10.5,0,0,1-5.29-2.23c-1.21-1-1.66-1.59-1.66-2.49a2,2,0,0,1,1.27-2.1C182.92,21.3,184.2,21.69,186.24,21.69ZM184.65,7.27a6.87,6.87,0,0,1,.95.13,8.45,8.45,0,0,0,2,.25,36.9,36.9,0,0,0,8.8-1.27,30.67,30.67,0,0,0,6.12-2.17,4.54,4.54,0,0,1,1.92-.57,19.25,19.25,0,0,1,4.33,1.14c2.24.83,3.45,2.05,3.45,3.51,0,1.28-.7,1.92-2.68,2.55a46,46,0,0,1-10.4,1.47,27.7,27.7,0,0,1-7.39-1.08,24,24,0,0,1-5.94-2.43,9.64,9.64,0,0,1-1.08-.64c-.32-.25-.51-.44-.51-.57S184.39,7.27,184.65,7.27Z"/><path class="cls-2" d="M252.7,40.37a5,5,0,0,1-5,5.23c-1.21,0-2-.57-2.93-2.29a38.72,38.72,0,0,0-5-6.83,23.81,23.81,0,0,0-4-3.5c-.83-.58-1.66-1-2.55-1.6-.2-.13-.26-.19-.26-.32s.19-.32.64-.32a40.36,40.36,0,0,1,14,2.94c3.82-5.93,7-12,7-13.52,0-.32-.32-.45-1-.45A80.3,80.3,0,0,0,245,20.86c-7.27,1.27-10.84,2-14.92,3.63a6.93,6.93,0,0,0-1.28.77c-.57.44-.76.51-1.15.51a7.63,7.63,0,0,1-4.52-2c-1.28-1.15-2.3-2.49-2.3-3.7a4.6,4.6,0,0,1,1-2.3c.25-.38.51-.57.7-.57s.19.06.38.32a4.4,4.4,0,0,0,1.22.95,3.85,3.85,0,0,0,1.78.58c1.09,0,2.87-.26,5-.39,5-.31,10-1.08,15.3-1.59,6.32-.64,7.15-.77,8.3-1.28,2.55-2.23,2.93-2.61,3.82-2.61,1.28,0,2.81.83,5.93,3.44,2.62,2.17,3.51,3.38,3.51,4.85,0,1.72-.7,2.23-4.53,3A146.78,146.78,0,0,1,249.7,35,6.8,6.8,0,0,1,252.7,40.37Z"/><path class="cls-2" d="M281.66,21.37a40.43,40.43,0,0,1,6.69.44c5.3,1,8.61,3.77,8.61,7.27a4.13,4.13,0,0,1-4.14,4.28,4.46,4.46,0,0,1-2.36-.64c-.58-.38-.7-.51-2.36-3.44-2.17-3.83-4.34-6-7.21-7.34.06,3.89.13,7.27.19,10.27.19,7.65.38,12.12.51,16.39a3.82,3.82,0,0,1-3.44,4c-1,0-1.85-.7-2.94-2.23a10.74,10.74,0,0,1-1.72-4.53,3.63,3.63,0,0,1,.32-1.47c.57-1.78.83-5.16,1-14.8,0-3.18.06-7,.06-11.73,0-4.53-.19-7.4-.7-9.12-.45-1.53-1.09-2.17-2.17-2.3-.32-.06-.45-.13-.45-.25a5.42,5.42,0,0,1,1.6-1.92,4.07,4.07,0,0,1,2.74-1.14,9.41,9.41,0,0,1,4.59,1.65c1.6,1,2.75,2.36,2.75,3.26,0,.51-.07.7-1.15,1.85-.7.83-1,2.74-1.15,11.48Z"/><path class="cls-2" d="M327.26,22.58c1.34-1.08,2-1.79,2.81-1.79s2.87,1.66,4.65,3.7a3.65,3.65,0,0,1,1.09,2.43c0,.89-.45,1.34-2.05,1.78a8.17,8.17,0,0,0-.76,1.72c-3.38,8.93-9.25,15.82-16.33,19.46-3.44,1.72-8.55,3.19-11.35,3.19-.26,0-.45-.13-.45-.32s.13-.32.7-.45a31.81,31.81,0,0,0,10.27-5.87,35.16,35.16,0,0,0,10-15,20.77,20.77,0,0,0,1.34-5.16c0-.51-.57-.7-2.1-.7a93.2,93.2,0,0,0-12.95,1.14c-.83.13-1.15.26-1.47.26a1.69,1.69,0,0,1-.95-.32,38.33,38.33,0,0,1,.57,6.12c0,2.55-1.28,4.34-2.94,4.34a3.28,3.28,0,0,1-2.61-2.1c-.32-.9-.38-1.41-.51-4.4a17,17,0,0,0-1.08-6.32,3.43,3.43,0,0,0-1.41-1.78c-.44-.32-.44-.45-.44-.64a.5.5,0,0,1,.51-.51c1.34,0,5.54,1.59,7.14,2.74A63.9,63.9,0,0,0,316,23.6a37.4,37.4,0,0,0-.7-7.08c-.19-.7-.7-1.08-1.66-1.4-.51-.2-.76-.32-.76-.45,0-.64,2.55-1.66,3.95-1.66,2.87,0,6.32,2,6.32,3.64,0,.64-.13,1-1,1.59-.32,1.34-1,4.08-1.34,5C323.43,23,326.24,22.71,327.26,22.58Z"/><path class="cls-2" d="M351.62,29.79c-1.66,5.67-4.08,9.69-8,12.75A30,30,0,0,1,333.25,48a11.14,11.14,0,0,1-2.17.45c-.12,0-.31,0-.31-.13s.12-.25.51-.38A14.65,14.65,0,0,0,334,46.37a26.77,26.77,0,0,0,3.82-3.25,30.31,30.31,0,0,0,5.49-8.61,28.9,28.9,0,0,0,2.55-11.68,6,6,0,0,0-.32-2.23,6.64,6.64,0,0,0-1.28-.89,5.54,5.54,0,0,0-1.72-.45c-.19,0-.32-.06-.32-.19s.77-.89,1.73-1.59A8.87,8.87,0,0,1,346.78,16a6.47,6.47,0,0,1,2.48.76,19.44,19.44,0,0,1,3.7,2.42c1.28,1,1.79,1.54,1.79,2.17,0,.39-.38.83-1.09,1.28C353.34,23.85,352.77,25.7,351.62,29.79Zm13.08-2.24c0,.64-.07,1.28-.07,1.92,0,.89.07,1.85.13,2.68a1.56,1.56,0,0,0,.9.25c2.55,0,8.16-2.81,12.37-6.25A47.62,47.62,0,0,0,386.89,17c.71-1,.9-1.15,1.09-1.15s.13.06.13.19a9.78,9.78,0,0,1-.77,2.17,54.46,54.46,0,0,1-3.63,6.89A49.56,49.56,0,0,1,378,31.89a58.32,58.32,0,0,1-11.23,8.68c-1.53,1.14-1.91,1.59-2.61,1.59-.9,0-1.92-.57-3.19-1.79a26,26,0,0,1-2.36-2.67,4.28,4.28,0,0,1-1.15-2.37,1.23,1.23,0,0,1,1-1.27c.32-2.55.58-7,.58-9.12,0-2.68-.07-4.85-.2-6.38a6.9,6.9,0,0,0-.38-2.49,3.57,3.57,0,0,0-2.36-1.46c-.57-.13-.64-.19-.64-.32,0-.39.58-.9,1.28-1.53a5.75,5.75,0,0,1,2.74-1.47c1,0,2.81.76,5,2.23,1.79,1.15,2.36,1.92,2.36,2.94,0,.83-.45,1.4-1.66,2C365,21.11,364.76,25.32,364.7,27.55Z"/><path class="cls-2" d="M430.14,30.55l-2.24-.06c-.76,0-1.33-.07-1.72-.07-.7,0-2.1.13-3.06.13h-1.59c-.39,0-2,.13-3.19.26-1.85.19-3.64.38-4.47.51l.19,1.4c.19,1.34.51,2.93,1.09,5.93a76.64,76.64,0,0,1,1.53,9.51A10.93,10.93,0,0,1,415,53.51a2.21,2.21,0,0,1-2.1.9c-1.47,0-2.49-1-3.19-3.26-.32-1.08-1.22-8.48-2.36-18.75-1.6.32-4.53,1-8.74,2A17.42,17.42,0,0,0,394.74,36c-1.09.64-1.21.77-1.79.77-2.93,0-6.31-3.38-6.31-6.19,0-.19.06-.38.19-.38s1,.32,1.34.38a19.64,19.64,0,0,0,3.32.38,105.64,105.64,0,0,0,12.56-1.59c1.47-.26,1.91-.32,2.87-.45-.64-4.52-1-7.71-1.15-9.25-.44.07-1,.2-1.53.26-2.17.38-2.8.51-3.95.77a11.92,11.92,0,0,1-2.75.44c-2.61,0-4.46-.89-6.57-3.19-.57-.63-.89-1.08-.89-1.4a.17.17,0,0,1,.19-.19,3.12,3.12,0,0,1,.64.13,11.59,11.59,0,0,0,1.28.19c.76.06,1.59.06,2.93.06a36.27,36.27,0,0,0,7.78-1c1-.19,1.47-.31,2-.44-1.21-6.89-1.46-7.85-2.61-9.06a4.09,4.09,0,0,0-2-1c-.32-.06-.39-.12-.39-.25a5.22,5.22,0,0,1,1.15-1.47c1.34-1.34,2.43-2,3.32-2,1.21,0,4.4,1.34,6.12,2.43.89.57,1.28,1.08,1.28,1.72A1.36,1.36,0,0,1,411.19,7c-.38.32-.44.58-.44,1.21,0,1.47.06,3.13.32,6.13,2.48-.7,5.8-2.43,6.88-3.64l.83.13c3.64.57,7.08,2.17,7.08,3.64,0,1.78-.89,2.42-3.31,2.55-1,.06-9.32,1.34-10.85,1.65.07,1,1.09,7.66,1.41,9.19.89-.13,3.38-.89,6.25-1.72a9.26,9.26,0,0,0,3.89-1.85c.83-.7,1.27-1,1.91-1,1.21,0,1.41.19,5.36,2.3,1.85,1,2.49,1.59,2.49,2.87S431.67,30.62,430.14,30.55ZM429.37,11a2.75,2.75,0,0,1-1.85-.76c-.32-.51-.32-.51-.7-2.05A10.53,10.53,0,0,0,423.31,3c-.25-.19-.32-.26-.32-.38s.13-.26.45-.26c3.7,0,8,3.44,8,6.31A2.14,2.14,0,0,1,429.37,11Zm6.32-3.12c-1.15,0-1.66-.45-2.43-2a11.33,11.33,0,0,0-5.1-5c-.57-.25-.7-.38-.7-.51s.32-.38,1.21-.38a14.75,14.75,0,0,1,7,2c1.53,1,2.23,2.11,2.23,3.38A2.27,2.27,0,0,1,435.69,7.85Z"/><path class="cls-2" d="M481.05,24.75c1.78.76,2.58,1.78,2.58,3.25,0,1.85-2.35,3.19-5.86,3.19-.8,0-2.41-.06-4.53-.13-1.44-.06-3.5-.13-7.23-.13-12.63,0-14.64.13-20,1a18.66,18.66,0,0,0-2.24.83,4.2,4.2,0,0,1-1.6.45c-.92,0-3.05-1.15-4.83-2.75A4.12,4.12,0,0,1,435.64,27c0-1.34.46-3.19.86-3.19.12,0,.17.06.69.58A6.5,6.5,0,0,0,442,26.21c7.87,0,9.42,0,22.33-1,7-.51,9-.89,10.16-1.65A23,23,0,0,1,481.05,24.75Z"/><path class="cls-2" d="M521.13,26.92a1.86,1.86,0,0,1,.58,1c0,.63-.32,1-1.28,1.4a32.57,32.57,0,0,1-3.76,12.37,22.45,22.45,0,0,1-10.14,9.06,48.16,48.16,0,0,1-5.94,2.17,14.24,14.24,0,0,1-3.18.7c-.2,0-.45-.13-.45-.32s.25-.32,1.08-.64a20.07,20.07,0,0,0,5.11-2.87,21.16,21.16,0,0,0,5-5.16,30.56,30.56,0,0,0,4.53-16.27c0-2.68-.19-3.44-1.15-4.78-.76.06-2.16.32-3.82.64-1.85.38-4,1-5.62,1.4a24.18,24.18,0,0,0-4,1.6,3,3,0,0,1-1.15.38c-1,0-2.55-1.09-3.7-2.36a6.81,6.81,0,0,1-2.17-4c0-.13,0-.19.13-.19a4,4,0,0,1,.83.25,10.92,10.92,0,0,0,3.7.64c.95,0,4.46-.44,9.44-1.08,4.59-.64,10.33-1.41,16.45-2.36a18.79,18.79,0,0,0,5.17-1.28c.57-.25.76-.32,1.59-.64a3.79,3.79,0,0,1,1.09-.19c1.08,0,4.65,1.4,6.89,2.68a3.51,3.51,0,0,1,2,2.74,2.71,2.71,0,0,1-2.3,2.43,42.22,42.22,0,0,1-4.21-.7,34.63,34.63,0,0,0-8.16-.71c-3,0-6.13.07-9.38.26C519.86,25.83,520.24,26,521.13,26.92ZM520.56,11a50.62,50.62,0,0,0-7.78.7,45.6,45.6,0,0,0-6.25,1.21,5.5,5.5,0,0,1-1.53.32c-1,0-2-.7-3.32-2.36a7.62,7.62,0,0,1-1.09-1.53,3.11,3.11,0,0,1-.51-1.08c0-.13.07-.19.2-.19s.63.19,1,.25a22.11,22.11,0,0,0,2.55.32,42.88,42.88,0,0,0,7.4-1,40.51,40.51,0,0,0,7.71-2c1.53-.63,1.79-.76,2.36-.76,1,0,2.36.57,4.53,1.66,1.66.82,2.36,1.59,2.36,2.87s-1.21,1.91-3.51,1.91c-.76,0-.89-.19-2.8-.26Z"/><path class="cls-2" d="M570,14.16c1.27-1.08,2-1.4,2.93-1.4s2.43.76,4.21,2.29,2.74,3,2.74,4.15c0,1-.7,1.53-2.61,1.91a5.68,5.68,0,0,0-.77.19A118.7,118.7,0,0,1,565,37,45,45,0,0,1,543.52,50.9c-1.47.44-3.51.83-5.23,1.15a22.64,22.64,0,0,1-3.64.51c-.25,0-.44-.13-.44-.32s.12-.26,1.78-.77a35.73,35.73,0,0,0,9.57-4.65,56.36,56.36,0,0,0,12.25-11.17C563,29.34,568,21,568,18.69c0-.19-.26-.32-.64-.32-.89,0-2.87.13-4.08.19l-2,.06c-.45,0-.7-.06-1.21-.76-5.17,6.57-9.63,10.33-15.44,12.63A32.16,32.16,0,0,1,540.14,32a6.45,6.45,0,0,1-1.41.25.27.27,0,0,1-.25-.25c0-.19.13-.32.83-.77a32.69,32.69,0,0,0,5.42-4.46A68,68,0,0,0,551,19.2C554,15,557,9.38,557,7.78c0-.51-.45-.83-1.34-1.34a7.08,7.08,0,0,0-1.41-.51c-.25-.06-.31-.13-.31-.25,0-.32.89-.83,1.91-1.22a9.77,9.77,0,0,1,3-.63c1.27,0,3.31,1,5,2.17,1.54,1.14,2.87,2.36,2.87,3.12s-.25,1-1.91,1.6c-2.23,3.44-2.36,3.63-3.32,5h.9A29.35,29.35,0,0,0,569,15Z"/><path class="cls-2" d="M612.27,10.14C613,9.38,613.49,9,614.12,9c1,0,3.07,1.34,5.74,3.51,1.41,1.21,2,2,2,2.87s-.57,1.28-3.06,1.92c-.38.7-.51.89-1.08,2.1a88,88,0,0,1-7.15,12.05c5.87.83,10.46,2.68,13.4,5a9.24,9.24,0,0,1,3.7,7.08,4.86,4.86,0,0,1-5,5.23c-2.36,0-3.63-1-4.08-3.31-.83-4.72-4.66-10.27-8.8-13.08a35.88,35.88,0,0,1-17.35,12.44A62.94,62.94,0,0,1,583,47.26a32.3,32.3,0,0,1-3.64.39c-.25,0-.44-.13-.44-.32s.06-.32.51-.45A41.58,41.58,0,0,0,585,45a37.76,37.76,0,0,0,5.8-2.87,40.89,40.89,0,0,0,13.78-14.22c1.21-2,2.55-4.72,3.64-7a32.06,32.06,0,0,0,1.59-4,3.36,3.36,0,0,0,.13-.76c0-.26-.26-.39-.64-.39a42.59,42.59,0,0,0-7.53,1.73A42.71,42.71,0,0,0,597,19c-.83.32-1.41.63-2.55,1.15a3,3,0,0,1-1.34.25,6.28,6.28,0,0,1-3.51-1.66c-1.28-1.08-2.23-2.36-2.23-3.31a3,3,0,0,1,2-3.07c1.34,1.66,2.11,2.11,4.08,2.11a85.35,85.35,0,0,0,13.08-1.79c2.93-.57,4.34-1.08,4.85-1.59Z"/><path class="cls-2" d="M643.33,21.37a40.48,40.48,0,0,1,6.7.44c5.3,1,8.61,3.77,8.61,7.27a4.13,4.13,0,0,1-4.14,4.28,4.46,4.46,0,0,1-2.36-.64c-.58-.38-.7-.51-2.36-3.44-2.17-3.83-4.34-6-7.21-7.34.06,3.89.13,7.27.19,10.27.19,7.65.38,12.12.51,16.39a3.83,3.83,0,0,1-3.44,4c-1,0-1.85-.7-2.94-2.23a10.74,10.74,0,0,1-1.72-4.53,3.63,3.63,0,0,1,.32-1.47c.57-1.78.83-5.16,1-14.8,0-3.18.06-7,.06-11.73,0-4.53-.19-7.4-.7-9.12-.45-1.53-1.09-2.17-2.17-2.3-.32-.06-.45-.13-.45-.25a5.42,5.42,0,0,1,1.6-1.92,4.07,4.07,0,0,1,2.74-1.14,9.41,9.41,0,0,1,4.59,1.65c1.6,1,2.75,2.36,2.75,3.26,0,.51-.07.7-1.15,1.85-.7.83-1,2.74-1.15,11.48Z"/><path class="cls-2" d="M697,37c2.17,1.53,2.61,2,2.61,3a2.39,2.39,0,0,1-2.17,2.43,2.66,2.66,0,0,1-.63-.07,69.37,69.37,0,0,0-10.14-.7c-5.17,0-12.76,1.21-15.18,2.49a4.58,4.58,0,0,1-1.92.57,6.34,6.34,0,0,1-3.82-2c-1.22-1.14-2.24-2.61-2.24-3.76,0-.76.19-1.27.51-1.27a1,1,0,0,1,.58.19,9.31,9.31,0,0,0,3.63.76c1.6,0,3.13-.19,8.55-.76l9.89-1c1.59-.2,3.06-.26,4.4-.45.89-9.06,1.14-12.18,1.14-14.1,0-1.59-.31-2.1-1.27-2.1-.26,0-.89.06-1.6.13-2.55.19-10.14,1.21-14.22,2a44.54,44.54,0,0,0-6.76,1.6,4.62,4.62,0,0,1-1.47.38c-1,0-3.31-1.59-4.59-3.12a3.89,3.89,0,0,1-1-2.3c0-1.34.45-2.55.9-2.55.12,0,.19.13.32.25a3.63,3.63,0,0,0,1.34.83,11,11,0,0,0,3.95.58c3.25,0,8-.45,15.82-1.28a35.84,35.84,0,0,0,5-.7,5.74,5.74,0,0,0,2.93-1.4,4.49,4.49,0,0,1,2.55-1.15c1.21,0,3.32,1.27,5.3,2.74,2.16,1.66,4,3.51,4,4.47a2,2,0,0,1-.7,1.4,4.57,4.57,0,0,1-1.08.7,3.51,3.51,0,0,0-.89.57C700,26.66,697.74,34.51,697,37Z"/><path class="cls-2" d="M716.49,23.15c0,3.32-.06,7-.06,10.53,0,2.74.06,2.87.7,2.87,1.28,0,7.59-3,12.56-6,8-4.85,15.76-10.52,20-14.54a18.42,18.42,0,0,0,2-2c.13-.13.39-.44.71-.83s.25-.32.38-.32.25.07.25.2a5.84,5.84,0,0,1-1,2.1,82.29,82.29,0,0,1-5.3,7.4A74.72,74.72,0,0,1,732.88,36a98.38,98.38,0,0,1-14.41,9.76c-1.6,1.53-2.17,1.92-3.06,1.92s-2.11-.77-3.26-2.3a22.56,22.56,0,0,1-1.78-3.19,8.9,8.9,0,0,1-.58-1.53,7.85,7.85,0,0,1-.12-1c0-.26.06-1,.12-1.47.13-1.21.2-2,.26-3.44.13-2.43.19-5,.19-9.31,0-2.56,0-4.66-.06-6.19-.19-4.91-.9-5.74-3.06-6.19-.2,0-.26-.06-.26-.19s.19-.32.32-.51a7.71,7.71,0,0,1,2-1.66,4.7,4.7,0,0,1,2-.64,8.87,8.87,0,0,1,4.59,2.11c1.59,1.21,2.87,2.74,2.87,3.76a2.39,2.39,0,0,1-.89,1.66l-1.09,1.08a7.78,7.78,0,0,0-.19,2.36Z"/><path class="cls-2" d="M782.63,14.16c1.28-1.08,2-1.4,2.94-1.4s2.42.76,4.21,2.29,2.74,3,2.74,4.15c0,1-.7,1.53-2.62,1.91a5.45,5.45,0,0,0-.76.19A120.52,120.52,0,0,1,777.66,37a45.12,45.12,0,0,1-21.5,13.91c-1.46.44-3.5.83-5.23,1.15a22.41,22.41,0,0,1-3.63.51c-.26,0-.45-.13-.45-.32s.13-.26,1.79-.77a35.68,35.68,0,0,0,9.56-4.65,56.36,56.36,0,0,0,12.25-11.17c5.17-6.31,10.14-14.67,10.14-17,0-.19-.25-.32-.64-.32-.89,0-2.87.13-4.08.19l-2,.06c-.44,0-.7-.06-1.21-.76-5.16,6.57-9.63,10.33-15.43,12.63A31.78,31.78,0,0,1,752.78,32a6.39,6.39,0,0,1-1.4.25.27.27,0,0,1-.26-.25c0-.19.13-.32.83-.77a33.15,33.15,0,0,0,5.43-4.46,69.1,69.1,0,0,0,6.31-7.59c3-4.21,5.93-9.82,5.93-11.42,0-.51-.45-.83-1.34-1.34a7.25,7.25,0,0,0-1.4-.51c-.26-.06-.32-.13-.32-.25,0-.32.89-.83,1.91-1.22a9.83,9.83,0,0,1,3-.63c1.28,0,3.32,1,5,2.17,1.53,1.14,2.87,2.36,2.87,3.12s-.26,1-1.91,1.6c-2.24,3.44-2.36,3.63-3.32,5H775a29.52,29.52,0,0,0,6.64-.7Z"/><path class="cls-2" d="M797.94,23.41a11,11,0,0,1-1.53-4.21c0-.32.13-.45.32-.45s.25,0,.7.51a10.88,10.88,0,0,0,3.44,2.24c1.41.63,1.6.7,4.66,1.14a6.67,6.67,0,0,1,2.93,1.73,4.78,4.78,0,0,1,1.34,3.25,3.84,3.84,0,0,1-3.7,4.08c-1.46,0-2.48-.57-3.76-2.3A30.78,30.78,0,0,1,797.94,23.41Zm11.48,26.21c-1,.7-1.47,1-1.91,1a5.82,5.82,0,0,1-3.39-1.47c-2.48-1.85-3.89-3.89-3.89-5.8a13.7,13.7,0,0,1,.52-3.26c.12-.51.25-.82.38-.82s.38.19.64.76c.63,1.28,1.46,2,2.16,2,1.28,0,5.49-2,10.4-5a208.65,208.65,0,0,0,18.11-12.5,115.54,115.54,0,0,0,11.36-9.83c.38-.44.64-.57.89-.57s.13.06.13.26a4.84,4.84,0,0,1-.7,1.59,82.08,82.08,0,0,1-6.45,8.87,139.78,139.78,0,0,1-15,15.05c-2.29,1.91-9.88,7.59-12,8.93C810.06,49.18,809.67,49.43,809.42,49.62Zm3.44-31.76a4.38,4.38,0,0,1-3-1.15c-.64-.57-.71-.83-1-2.23a9.61,9.61,0,0,0-1.66-3.32,23.36,23.36,0,0,0-1.79-1.91c-.64-.58-1.28-1.21-2-1.79-.26-.19-.32-.25-.32-.38s.32-.38,1-.38a23.74,23.74,0,0,1,8.67,1.4c2.94,1.21,4.59,3.13,4.59,5.42A4.28,4.28,0,0,1,812.86,17.86Z"/><path class="cls-2" d="M864.46,30.36c.19-4.91-.06-5.1-.57-5.1a67.87,67.87,0,0,0-6.95.76,66.59,66.59,0,0,0-6.76,1.28,3.19,3.19,0,0,1-1.15.32,3.36,3.36,0,0,1-2.62-1.28,5.69,5.69,0,0,1-1.21-3.76c0-.51.06-.7.38-.7.13,0,.13.06.32.19a3.55,3.55,0,0,0,1.41.64,10.22,10.22,0,0,0,2.1.12c1.85,0,5.1-.06,7.91-.25,2.42-.13,4.46-.32,5.17-.45A13.7,13.7,0,0,0,864,20.86c1.21-1.15,1.47-1.41,2.36-1.41a8,8,0,0,1,3.77,1.09c2,1.08,3.69,2.74,3.69,4A1.35,1.35,0,0,1,873,25.9a6,6,0,0,0-.64.31c-.58,3.9-1.15,7.28-1.66,10.08s-1.08,5.17-1.53,6.89c-.07.19-.19.45-.26.64a6.14,6.14,0,0,1,2,2.8,1.59,1.59,0,0,1-.51,1.15,2.18,2.18,0,0,1-1.59.58,6.77,6.77,0,0,1-1.28-.19c-.76-.13-1.14-.2-1.78-.26-1-.06-2.36-.06-2.81-.06a60.72,60.72,0,0,0-6.95.38,29.62,29.62,0,0,0-5.29,1,2.22,2.22,0,0,1-.77.12c-.83,0-1.47-.63-2.42-2.36a12.8,12.8,0,0,1-1-2.23.3.3,0,0,1,.32-.32,3.2,3.2,0,0,1,.76.26,10.71,10.71,0,0,0,1.79.19,47.7,47.7,0,0,0,4.91-.32c2.93-.26,5.87-.57,9.31-.83.26-2.36.45-4.91.58-7.33a9.94,9.94,0,0,0-2-.2c-1.09,0-4.21.39-9.44,1.15a4.56,4.56,0,0,1-.83.07c-.9,0-1.53-.58-2.68-2.11a4.89,4.89,0,0,1-1-1.78c0-.13.06-.26.19-.26a4.74,4.74,0,0,1,.7.13,14.41,14.41,0,0,0,2.49.19,21.71,21.71,0,0,0,3.7-.32,46.62,46.62,0,0,0,5-1,9.05,9.05,0,0,1,1.91-.32,8.27,8.27,0,0,1,1.53.26c.26.06.45.06.64.12Z"/><path class="cls-2" d="M893.29,17.92a4.43,4.43,0,0,1-4.53,4.53,6.36,6.36,0,0,1-1.91-.38c-.45-.13-.38-.26-1-1.4-1.41-2.56-5.68-6.32-8.23-7.21-.32-.13-.45-.26-.45-.38s.71-.39,1.66-.58a30,30,0,0,1,5-.45C889.4,12.05,893.29,14.48,893.29,17.92ZM888.83,45.8a4.88,4.88,0,0,1-2.49,1.08,5.23,5.23,0,0,1-3-1.21,22.45,22.45,0,0,1-3.44-3.25c-1.47-1.6-2.17-2.88-2.17-3.9,0-1.72,1.08-3.76,2.23-4.08.57,2,1.91,2.87,4.53,2.87A45.68,45.68,0,0,0,892.33,35a131,131,0,0,0,21.43-12.12A65,65,0,0,0,919.57,18c1.08-1,1.21-1.09,1.4-1.09a.36.36,0,0,1,.38.32,1.19,1.19,0,0,1-.19.51,57.71,57.71,0,0,1-5.8,7.91,66.78,66.78,0,0,1-10,9.25,122.69,122.69,0,0,1-15.75,10.33C889.59,45.29,889,45.67,888.83,45.8Z"/></g></svg>